<?xml version="1.0" encoding="utf-8"?>
<!-- Generator: Adobe Illustrator 27.9.0, SVG Export Plug-In . SVG Version: 6.00 Build 0)  -->
<svg version="1.1" id="Layer_1" xmlns="http://www.w3.org/2000/svg" xmlns:xlink="http://www.w3.org/1999/xlink" x="0px" y="0px"
	 viewBox="0 0 470.2 200.6" style="enable-background:new 0 0 470.2 200.6;" xml:space="preserve">
<style type="text/css">
	.st0{fill:#282024;}
	.st1{fill:#465415;}
	.st2{fill:#434F15;}
	.st3{fill:#5A770B;}
	.st4{fill:#5B780C;}
	.st5{fill:#5B780B;}
	.st6{fill:#445015;}
	.st7{fill:#93A938;}
	.st8{fill:#5C790C;}
	.st9{fill:#424E15;}
	.st10{fill:#92A837;}
	.st11{fill:#91A638;}
	.st12{fill:#92A838;}
	.st13{fill:#59750C;}
	.st14{fill:#455115;}
	.st15{fill:#819928;}
	.st16{fill:#444F16;}
	.st17{fill:#92A739;}
	.st18{fill:#91A737;}
	.st19{fill:#8FA437;}
	.st20{fill:#8DA137;}
	.st21{fill:#251E1F;}
	.st22{fill:#261E1F;}
</style>
<path d="M7,200.5L7,200.5c0,0-1.5-27.2,0.3-27.4c22.6-3.5,39.9-20.9,42.2-43c0.4-3.9,0.1-8.1-0.9-11.8c-3.1-11.7-16-15.1-24.8-6.8
	c-3.9,3.7-4.3,7.9-2,12.8c1.1,2.3,1.4,4.9,2.1,7.4c-3-0.6-6.3-0.6-8.9-1.9C6.5,125.5-2.3,108.5,0.6,100c0.4-0.9,0.8-1.9,1.1-2.8
	c0.6-1.7,0.9-3.5,1.7-5.1c13-25.7,46-33.5,68.7-16c9.9,7.6,17.2,17.1,19.1,29.8c0.3,1.1,0.7,2.2,1,3.4c0.3-1.3,0.6-2.6,0.9-3.8
	c1.8-14-2.2-26.9-7.7-39.6C76.7,45.8,80,26.6,90.3,8.1c1.4-2.6,2.8-5.3,4.2-7.9c0.7,0,1.3-0.1,2-0.1c1,3,2.4,5.8,3,8.9
	c3.6,17.9,12,33.7,20.9,49.3c6.4,11.3,12,23,13.2,36.2c0.1,1.3-0.1,2.6-0.1,3.9c0.2,0.5,0.5,0.9,0.8,1.4c0.3-0.5,0.7-1,1-1.5
	c3.9-4.9,7.4-10.2,11.9-14.5c8.5-8.1,17.2-15.8,19.2-28.3c0.2-1,1.5-1.8,2.3-2.7c0.7,0.8,1.6,1.6,2,2.5c5,11.1,9.4,22.4,7.5,34.4
	c6.4-2.1,12.7-4.9,19.2-6c10.1-1.7,19.5,0.6,25.1,10.3c6.3,10.8,8.7,22.1,1.3,33.4c-5.5,8.5-16.7,11.4-25.6,7
	c-1.2-0.6-2.2-1.8-3.2-2.7c1-1,2-1.9,2.9-3c3.1-3.3,6.9-6.3,9-10.2c2.7-5.1-0.4-9.9-6.3-9.9c-3.1,0-6.8,1.1-9.1,3
	c-7.6,6-9.6,14.6-8.2,23.8c1.3,8.4,6.7,13.9,14.6,16.9c6.2,2.4,11.8,0.5,16.8-3.2c16.9-12.4,24.8-41.6,16.4-60.7
	c-0.8-1.8-2.1-3.4-3.1-5l1.3-1.3c20.7,13,38.5,28.4,45.1,53.3c0.8,2.9,1,5.9,1.5,8.8c0,0.5,0,1,0,1.5c0.4-0.5,0.8-1.1,1.2-1.6
	c6.4-13.2,11.2-26.8,8.8-41.7c-1.7-10.3-3.7-20.6-6.5-30.7c-3.5-12.5-4.5-25.2-3.4-38c1-12.3,8-22.4,14.3-32.5
	c0.4-0.6,1.5-0.8,2.3-1.1c0.3,0.9,1.1,1.9,0.9,2.6c-5,16.3,3.3,29.4,10.2,42.8c5.2,10.2,11.4,20,15.7,30.6
	c3.7,9.3,5.3,19.4,7.8,29.2c-0.2,0.5-0.4,1-0.5,1.5c0.5-0.4,1-0.7,1.5-1.1c4.6-5.2,8.5-11.3,13.8-15.6c12.2-9.7,16.2-22.6,16.8-37.3
	c0.1-2.6,0-5.2,0.8-7.8c3.7,10.8,8.2,21.5,10.9,32.6c1.5,6.2,0.3,13.1,0.3,18.8c7.1-1.8,14.7-4.7,22.6-5.6
	c14-1.6,23.7,5.9,27.2,19.5c3.6,13.8-1.4,25.5-13,31.2c-7,3.4-13.9,2.7-20.7-0.3c-1.4-0.6-2.2-2.5-3.4-3.8c1.3-0.5,2.6-1.2,3.9-1.4
	c7.6-1.4,12.9-8,12-15.3c-0.7-5.5-4.9-8.4-10.3-6.9c-5.5,1.5-9.3,5.1-11.5,10.2c-4.8,11,0.1,26.8,10.1,33.3
	c6.1,3.9,12.4,4.3,18.1-0.2c13.9-10.9,22.7-25.1,23-42.9c0.1-6.7-4-13.4-6.2-20.2c-0.6-1.8-1-3.7-1.5-5.5c2,0.6,4.2,0.7,5.8,1.8
	c26.2,18.8,45.4,41.7,43.2,76.6c-0.3,5-1,9.9-2.1,14.8c-1.5,6.7-7.8,18.9-7.8,18.9 M401,134.8l-0.4,0.4
	C400.7,135.1,400.9,135,401,134.8c0.2-0.1,0.3-0.3,0.4-0.4C401.3,134.5,401.1,134.7,401,134.8L401,134.8z M373,103.7L373,103.7
	c-0.4,0.4-0.7,0.6-1,0.9l-0.2,0.2c-1.6,1.1-3.7,1.8-4.6,3.2c-3,5.2-5.5,10.6-8.3,15.9c-1.3-0.7-2.6-1.4-4-2.1c0.6-2,1-4.1,1.7-6.1
	c2.1-6.3,4.3-12.5,6.4-18.8c0-0.7,0-1.4,0-2.1c0.3-0.3,0.7-0.7,1-1c0.1-2.7,5.6-6.2-1.1-8c0-5.4,2.4-10.9-1-16.7
	c-1.1,3.7-2,6.7-2.9,9.7c-4.2,4.8-8.2,9.8-12.8,14.3c-6.9,6.9-14,13.8-17.1,23.4c-4.9,15.4-9.3,30.8-14,46.3
	c-0.7,1.5-1.1,3.1-2.1,4.3c-2.6,3.2-5.5,6.2-8.2,9.3c-0.6,0.7-0.9,1.6-1.4,2.4c0.9,0.3,1.8,0.7,2.7,0.8c7.9,0.4,15.9,0.7,23.8,1.2
	c3.4,0.2,4.5-0.4,2.7-4c-4.6-9.6-2.8-19.4-0.5-30.3c0.6,8.3,1.2,15.3,1.8,22.4c1.2,5,1.8,10.3,8.1,11.9c-0.7-1.3-1.3-2.6-2-3.9
	l1-1.2c2.7,3.8,6.1,6.5,11,6.9c5.6,0.4,11.2,0.7,16.9,1c2.2,0.1,3.2,0.2,2.1-3c-2.1-6.4-4.1-13-4.5-19.6c-0.4-7.4,1-14.8,1.6-22.2
	c0.7-8,1.8-15.9,7.1-22.4c6.2-7.7,14.3-12.2,23.2-7c7.1,4.1,9.2,9.6,6.1,17.2c-0.8,1.9-1.7,3.6-3.1,6.7c6.1-4,8.7-11.5,7-17.5
	c-2.6-9.4-8.3-13.5-19.8-14.1c9.4-5.3,20.3,4.1,22.3,12.5c1.7,7.2-0.9,13.3-4,19.5c-0.5,0.4-1.1,0.8-1.6,1.2l0.3,0.3
	c0.4-0.5,0.8-1.1,1.2-1.6c1.5-0.9,3.3-1.5,4.4-2.7c5.9-6.2,6-18.3,0.5-26.9c-2.7-4.1-6.2-6.6-11.2-7.4c-9.8-1.6-18.8-0.2-26.8,6.1
	C373.6,103.2,373.3,103.5,373,103.7L373,103.7z M17.9,83.7c-0.4,0.3-0.8,0.7-1.2,1c0.6-0.1,1.1-0.3,1.7-0.4c0.4-0.3,0.8-0.6,1.2-0.8
	c3.8-1.6,7.5-3.1,11.3-4.7c0.5-0.2,0.9-0.4,1.3-0.7c0.9-0.1,1.8-0.3,2.7-0.4c5.2,0.4,10.6,0.3,15.7,1.4c9,2.1,18.2,4.5,22.5,14.2
	c-0.9-0.3-2-0.4-2.8-1c-10.7-8.3-23.1-9.6-35.9-8.2c-7.7,0.8-14.7,4-19.3,10.8c-6.4,6.4-7.8,14.8-3.4,21.5c0.4-0.8,0.9-1.5,1.1-2.3
	c2.9-14.4,17.9-19.9,30.3-16.2c10.4,3.1,16.2,11,20.7,19.7c3.3,6.3,5,13.5,7.4,20.3c0.5,11.1-1.8,21.7-6.1,31.9
	c-1.3,3-0.9,4.2,2.6,4.2c3.4,0,6.9,0.5,10.4,0.8h5.4c-1.9-6.3-3.8-12.5-5.7-18.7c-1.3,2-3,4.5-4.7,7c0-2-0.1-4.1-0.1-6.1
	c4.3-11.1,8.6-22.1,12.9-33.2c2.6-10.5,1.2-20.3-4.7-29.6C66.2,70.4,41.1,64.4,19,82.7C18.6,83,18.3,83.4,17.9,83.7L17.9,83.7z
	 M286.1,70.9c-0.2,1.1-0.5,2.1-0.6,3.2c0,0.1,0.5,0.2,0.8,0.3c0.3-1.2,0.6-2.3,0.9-3.4c-0.6-0.6-1.1-1.2-1.7-1.8
	c-0.3,0.3-0.6,0.6-0.9,0.9L286.1,70.9L286.1,70.9z M282.1,32c-0.3,2-0.7,4-1,6c0,2.3,0,4.7,0,7c0.3,0.8,0.5,1.7,0.8,2.5
	c0.4-0.8,0.8-1.7,1.2-2.5c0.3-1.3,0.7-2.7,1-4c0.6-0.1,1.3-0.2,1.9-0.3c-0.6-0.5-1.3-1.1-1.9-1.7c-0.3-0.3-0.7-0.7-1-1v-6
	c0.9-1,1.8-1.9,2.7-2.9c-0.6-0.4-1.3-0.7-2-1c-0.6,1.1-1.2,2.3-1.8,3.4C282,31.6,282.1,31.8,282.1,32L282.1,32z M276.1,173.8l3,2
	c1.5,3.4,4.2,3.4,7.2,2.6c2.9,0.1,5.7,0.2,8.6,0.3c1.1-0.1,2.8,0.3,3.3-0.3c4.7-5.5,10.6-10.5,13.5-16.9c7.5-16.6,9.7-34.5,9.3-52.6
	c-0.3-0.8-0.6-1.7-0.9-2.5c-0.3,0.1-0.8,0.3-0.8,0.4c0.2,0.7,0.4,1.4,0.7,2.1c-0.4,13-4.4,25.3-8.3,37.5c-1.1,3.3-3.2,6.3-4.8,9.4
	c2.4-8.3,4.9-16.5,7.1-24.9c5.4-20.6,4.3-40.4-6.5-59.3c-6.4-11.4-12.3-23.1-18.4-34.7c-0.5-1.5-1.1-2.9-1.6-4.3
	c-0.4,0.2-1.1,0.4-1.1,0.5c0.2,1.3,0.5,2.6,0.8,4c3.3,10,6.6,19.9,10,29.9c0.3,0.7,0.6,1.4,0.9,2.1l0,0c-0.2,2.2-0.4,4.4-0.6,6.7
	l-12.1-31.9c0.4,8.2,1.9,16.3,2.9,24.4c1.3,10.8,2.5,21.7,3,32.5c0.4,7.7,0.6,15.6-1.1,23c-2,8.6-5.7,16.9-9.5,25
	c-3.8,8.3-6.4,16.3-2.4,25.2C277.4,173.8,276.7,173.8,276.1,173.8c-0.9-1.9-1.7-3.9-2.6-5.8c-0.4,0.3-0.8,0.5-1.1,0.8L276.1,173.8
	L276.1,173.8z M134.1,177.6c0.4,0,0.7,0.1,1.1,0.1c-0.4-3.8-0.9-7.6-1.1-11.5c-0.8-17,2.7-33.1,10.4-48.2c0.7-1.4,1.2-2.9,1.9-4.4
	c-12.9,17-17.9,36.2-15.8,57.2C130.7,173.2,132.8,175.4,134.1,177.6z M85.2,40.2c-0.2,8.6,1.4,17,5.3,24.6
	c8.8,17.1,9.7,34.9,5.4,53.2c-0.2,0.9,0.1,2,0.1,3c-0.7,0.9-1.6,1.7-1.9,2.7c-1.3,4.1-2.3,8.2-3.6,12.3c-1.9,6-4.4,11.9-5.8,18
	c-1.7,7.4,0,14.2,5.8,19.5c0.7,0.6,1.7,0.7,2.6,1c0-0.9,0.2-1.9-0.1-2.7c-3-7.8-2.5-15.6-0.2-23.4c3.1-10.2,6.3-20.3,9.4-30.4
	c3.1-10.1,3.1-20.2-0.8-30.2c-2-6-4.1-11.9-5.9-17.9c-3-9.8-5.7-19.7-8.6-29.5c-0.1-1.3-0.2-2.6-0.4-3.9c-0.4,0-0.8,0.1-1.2,0.1
	C85.3,37.8,85.3,39,85.2,40.2L85.2,40.2z M245.3,122.9c0.3-2.7,0.5-5.3,0.8-8c1.1-0.3,2.3-0.7,3.4-1c-1.2-0.3-2.3-0.6-3.5-0.9
	c-0.9-1.7-1.9-3.5-2.8-5.2c-0.8-1.7-1.5-3.3-2.3-5c-0.2,15.1-5.4,28.1-13.4,40c-7.9,11.6-19,20.3-37.2,11.9
	c-0.3-0.1-0.6-0.1-0.9-0.2c0.2,0.2,0.4,0.4,0.6,0.6c2.6,3.1,5.3,6.1,7.9,9.2c3,1.6,5.9,3.9,9.1,4.6c9.8,2.1,20.7-4.1,27.3-14.3
	c5.8-8.8,8.5-18.6,10.7-28.6c1.3-0.2,2.6-0.4,3.9-0.6C247.7,124.4,246.5,123.7,245.3,122.9L245.3,122.9z M110.2,122.9
	c0.3-0.7,0.6-1.4,0.9-2.1c0.7-2.2,1.4-4.5,2.2-6.7c6.2-12.3,5.2-25.1,3.4-38.2c-2.5-18.2-12.6-33.5-19.1-50.2
	c-0.6-2.8-1.3-5.6-2.1-9.4c-4.5,8.8-5.8,17.1-3.6,25.2c3,11,6.8,21.9,10.9,32.5c6.8,17.6,9.7,35.1,1.8,53.2
	c-2.4,5.6-4.2,11.6-5.5,17.5c-1.6,6.8-2.4,13.8,2,20.1c3.4,9.2,10.1,13.2,18.4,11c-8.3-9.2-12-20.1-11.4-32.4
	C108.4,136.7,109.5,129.8,110.2,122.9L110.2,122.9L110.2,122.9z M120.1,69.8c-0.9-1.9-1.8-3.8-2.7-5.7c-0.4,0.2-0.8,0.4-1.2,0.6
	l2.7,4.9c0.4,2.7,0.8,5.4,1.2,8.1c0,5.1-0.7,10.3,0.1,15.2c1.4,8-1.3,15-3.8,22.1c-5.9,16.3-8.6,32.7-1.3,49.3
	c1.1,2.6,3.6,4.6,5.4,6.8c0.8-2.6,1.9-5.2,2.4-7.9c2.7-14.3,4.3-29.1,11.9-41.8c6-9.9,13.2-19,20.3-28.1c4.7-6,9.2-12,10.5-18
	c-3.5,2.9-8.2,6.4-12.2,10.4c-4.7,4.6-10,9.2-13,14.8c-5.6,10.5-9.6,21.8-14.4,32.7c-0.7,1.6-2,3-3.1,4.5c1.8-9.6,3.4-19.2,5.3-28.8
	C131,94.8,126,82.2,120.1,69.8L120.1,69.8z M436.4,180.8c-1.4,5.4-1.4,5.1,4.4,5.4c3.9,0.2,5.9-2,7.2-4.9
	c10.9-24.3,9.9-47.9-11.2-68.7c0.2,2.3,0.5,4.3,0.6,6.2c-0.1,3.2-0.2,6.3-0.4,9.5c-0.6,12.2-4.2,23.6-11.1,33.6
	c-10.1,14.8-25.9,17.1-40.2,6.4c-7.9-6-12-14.3-15-23.6c-0.7,4.4-0.8,8.7-0.7,13.1c0.4,14.8,12.8,27,27.4,27.2
	c2.3,0,4.6,0.8,6.9,0.6c2-0.1,4.9-0.3,5.8-1.6c4.8-7,11.9-10.4,19.4-13.4c6.2-2.6,11.8-5.9,15.4-12.1c4.8-8.5,2.4-16.6-0.5-24.9
	c-1.1-3.3-2.2-6.6-3.2-9.9c7.8,11.5,12.5,23.6,7.5,37.8c-0.8,2.2-5,4.6-0.8,7.5c0.1,0.1-0.2,1-0.5,1.3
	C443.7,173.7,440,177.2,436.4,180.8c-0.4-0.5-0.8-0.9-1.2-1.2l-0.5,0.7C435.3,180.5,435.9,180.6,436.4,180.8L436.4,180.8z
	 M385.1,162.8c-0.4-0.2-0.8-0.5-1.1-0.7c0,0-0.2,0.2-0.3,0.4c0.4,0.2,0.9,0.3,1.3,0.5c5.2,9.7,27.9,12.1,35.5,0.4
	c4.5-7,7.2-15.1,10.6-22.8c0.8-1.8,1.1-3.8,1.5-5.8c0.5-2.1,0.9-4.2,1.1-6.3c0.2-1.8,0.2-3.5,0.3-5.3c-2.6,10.2-7.5,19.1-13.7,27.1
	C412.1,160.8,402.8,170.4,385.1,162.8L385.1,162.8z M248,174.8l1.6,0.3c0,5.6,4.3,1.7,6.3,2.9c6.3,0.1,9.7-2.4,12.3-10
	c3.7-10.7,3.2-21.8,0.2-32.4c-2-7.1-6.7-13.3-10.2-20c-3.3-4.5-6.6-9-9.9-13.4c0.9,5,2.5,9.3,4.3,13.6c7.3,16.8,7.7,33.9,1.5,51.1
	c-0.6-0.3-1.3-0.6-1.9-1c4.7-15.9,4.9-31.6-1.6-47c-0.4,1.2-0.4,2.3-0.2,3.4c2.6,16.2-0.2,31.1-10.4,44.2c-2.6,3.4-6,6.1-9,9.2
	c-0.6,0.6-1.1,1.2-1.4,1.9c-0.1,0.1,0.9,1,1.3,1C236.7,178.3,243.3,180.7,248,174.8L248,174.8z M166,134.8
	c0.7-11.5,4.9-21.8,12.7-30.2c3.6-4,8.8-7.4,13.9-9c7.5-2.4,15.3-1.3,21.4,4.6c5.1,4.9,6.1,11.3,3.8,17.5c-1.6,4.4-4.9,8.2-7.4,12.3
	c2.9-1.2,6.1-2.7,8.2-5.2c8.2-9.5,3.2-29.4-8.4-34.2c-11.2-4.6-29.4,0.8-34.7,11.6c-5.8,11.9-10.2,24.5-15.2,36.7
	c0.2-5.5-0.5-11.2,0.9-16.3c2.1-7.5,5.7-14.5,8.6-21.7c2.6-6.3,4.3-12.8,3.2-19.6c-1.4,4.6-2.6,9.2-4.3,13.6
	c-4.9,13.4-10.9,26.4-14.7,40.1c-3.8,13.2-3.4,26.6,5.1,38.7c2.1,3.1,4.4,4.8,8.2,4.2c1.6,0.2,3.2,0.5,4.8,0.7
	c7.7,0.1,15.4,0.2,23,0.2c6.8,0,13.7,0.4,20.4-0.1c3.8-0.3,8.2-1.2,11.1-3.3c15.3-11.1,24.2-25.6,21.2-45.4
	c-0.2,0.2-0.6,0.4-0.6,0.6c-0.4,1.3-0.7,2.6-1.1,3.8c-3.2,11.3-6.9,22.5-16.3,30.2c-14.3,11.7-28.1,11.7-39.9-4.6
	c-3.4-4.7-5.4-10.3-8.7-15c-8.6-12.1-1.1-32.1,7.9-39.2c5.4-4.3,13.9-4.7,19.5-0.6c5.3,3.9,5.7,9.3,3.8,15.2c-0.1,0.5-0.1,1-0.1,1.5
	c-0.1,0.2-0.3,0.3-0.4,0.5c0.1-0.1,0.3-0.3,0.4-0.4c3.8-3.3,4.8-7.4,3.4-12.1c-3.3-11.9-15.6-14.8-25.3-10.2
	c-15,7-27.5,30.8-17.3,49.2c0.5,0.9-0.4,2.7-0.7,4.1C170.1,146.8,168.1,140.8,166,134.8L166,134.8z M142.1,178
	c3.4,0.1,6.8,0.1,10.1,0.1c2.2,0.5,4.4,1,6.7,1.4c0.1-0.6,0.1-1.2,0.1-1.7c-4.8-5.5-8.9-11.6-8.9-19c-0.1-9.7-0.1-19.6,1.9-29
	c1.8-8.8,6.2-17.1,9.4-25.6c2.4-6.3,4.8-12.7,7.2-19.1c-0.5-0.2-1-0.4-1.5-0.7c-4.9,8.2-9.8,16.4-14.7,24.5
	c-10.6,17.3-16.4,36-16.4,56.4c0,4.9,1.3,9.1,5.1,12.3C141.4,177.8,141.8,177.9,142.1,178L142.1,178z M27,172.4
	c7.8,0.6,14.7,1.1,20.3-6.9c8-11.4,14.3-22.9,12.7-37.2c-0.5-4.7-2.4-9.2-3.8-13.8c-0.2-0.7-1.5-1.1-2.2-1.6c0,0.8-0.3,1.7-0.1,2.5
	c3.1,10.9,1.3,21.4-3.2,31.5C45.6,158.1,37.7,166.5,27,172.4L27,172.4z M444.4,115.2c17.9,22.3,16.3,45.9,5.3,70.2
	c9.1,1.2,10.4,0.2,12.7-8.1c2.8-10.2,2.3-20.4,0.4-30.6C460.4,134.4,454.7,123.7,444.4,115.2L444.4,115.2z M67,130.6l-0.5,0.3
	c-1.1,5.6-1.2,11.5-3.4,16.6c-3.3,7.7-8.1,14.7-12.2,22c-0.5,0.8-0.8,1.7-1.3,2.5c0.9,0.3,1.8,0.6,2.7,0.8c1.2,0.1,2.5-0.2,3.5,0.2
	c3.7,1.6,5.1-0.2,6-3.4c2-7.5,4.8-14.9,6-22.5C68.7,141.8,67.4,136.1,67,130.6L67,130.6z M283.7,67c0.6-0.1,1.2-0.1,1.8-0.1
	c-0.9-5.2-1.9-10.3-2.8-15.5c-0.5,0.1-1,0.2-1.6,0.3C282,56.8,282.8,61.9,283.7,67L283.7,67z M439.4,107.8l-1.5,1.2
	c1.3,1.6,2.7,3.2,4,4.8l1.3-1C442,111.1,440.7,109.4,439.4,107.8L439.4,107.8z M124.7,171.6c-0.3-0.1-0.6-0.2-0.8-0.4
	c-0.1,0.3-0.4,0.6-0.3,0.8c0.1,0.2,0.5,0.3,0.8,0.4C124.4,172.1,124.5,171.8,124.7,171.6L124.7,171.6z M149.8,106.3
	c-0.1,0.3-0.2,0.6-0.4,0.8c0.3,0.1,0.6,0.4,0.8,0.3s0.3-0.5,0.4-0.8C150.3,106.6,150.1,106.4,149.8,106.3L149.8,106.3z M11.9,89.2
	l-0.5,0.7c0.3,0.1,0.5,0.2,0.8,0.2c0.1,0,0.3-0.3,0.3-0.4C12.3,89.5,12.1,89.4,11.9,89.2z M147.7,112.2c0.1-0.1,0.1-0.3,0.1-0.4
	s-0.2-0.1-0.4-0.1c-0.1,0.1-0.1,0.3-0.1,0.4C147.4,112.1,147.6,112.1,147.7,112.2z M53.1,110.6c0.1-0.1,0.3-0.1,0.4-0.2
	c-0.1-0.1-0.2-0.2-0.3-0.3c-0.1,0-0.3,0.1-0.4,0.2C52.9,110.4,53,110.5,53.1,110.6z"/>
<path class="st0" d="M450,192.6c2.1-0.6,4.2-1.1,6.3-1.6C454.2,191.5,452.1,192,450,192.6z"/>
<path class="st0" d="M93,105.4c-0.3,1.3-0.6,2.6-0.9,3.8c-0.3-1.1-0.7-2.2-1-3.4C91.7,105.8,92.4,105.6,93,105.4z"/>
<path class="st0" d="M229.2,81.8c-0.4,0.4-0.9,0.9-1.3,1.3c-0.8-0.9-1.6-1.8-2.4-2.7c0.2-0.3,0.4-0.6,0.6-0.8
	C227.2,80.4,228.2,81.1,229.2,81.8L229.2,81.8z"/>
<path d="M167,51.3c0.9-0.4,1.4-0.7,2-0.8c0.3,0,0.9,0.7,0.8,0.9c-0.1,0.5-0.6,0.9-1,1.3C168.7,52.7,168.2,52.2,167,51.3L167,51.3z"
	/>
<path class="st0" d="M1.8,97.1C1.4,98,1,99,0.7,99.9C1,99,1.4,98,1.8,97.1z"/>
<path class="st0" d="M135.2,98.1c-0.3,0.5-0.7,1-1,1.5c-0.2-0.5-0.5-0.9-0.8-1.4C134,98.2,134.6,98.1,135.2,98.1L135.2,98.1z"/>
<path class="st0" d="M277,143.8c-0.4,0.5-0.8,1.1-1.2,1.6c0-0.5,0-1,0-1.5C276.3,143.9,276.7,143.8,277,143.8L277,143.8z"/>
<path class="st0" d="M328,105.2c-0.5,0.4-1,0.7-1.5,1.1c0.2-0.5,0.4-1,0.5-1.5C327.4,104.9,327.7,105.1,328,105.2z"/>
<path class="st0" d="M96.4,0c-0.7,0-1.3,0.1-2,0.1C95,0.1,95.7,0,96.4,0z"/>
<path d="M420.9,87.3c-0.1,0.2-0.2,0.4-0.4,0.6c-0.1-0.1-0.3-0.2-0.3-0.3c0-0.2,0.2-0.4,0.3-0.7C420.6,87,420.7,87.1,420.9,87.3z"/>
<path class="st1" d="M388.7,101.8c11.4,0.6,17.1,4.6,19.8,14.1c1.7,6-0.9,13.5-7,17.5c1.4-3,2.3-4.8,3.1-6.7c3.1-7.6,1-13-6.1-17.2
	c-9-5.2-17-0.7-23.2,7c-5.3,6.5-6.4,14.4-7.1,22.4c-0.7,7.4-2.1,14.9-1.6,22.2c0.4,6.6,2.3,13.3,4.5,19.6c1,3.1,0.1,3.1-2.1,3
	c-5.6-0.3-11.2-0.6-16.9-1c-4.9-0.3-8.3-3.1-11-6.9l0.3-0.2c-0.1-1.3-0.2-2.6-0.3-3.9c-0.2-3.1-0.8-6.2-0.7-9.3
	c0.1-7.3,0.5-14.6,0.9-21.9c0.1-1.2,0.5-2.5,0.9-3.7h0.5h0.5c0.1,2,0.2,4,0.3,7.4c2.2-8.1,4-14.7,5.8-21.4c2.1-3.9,4.3-7.8,6.2-11.8
	c0.7-1.4,0.5-3.2,0.7-4.8c0.2-0.5,0.4-1,0.6-1.5c1.4-1.1,3-1.9,4.1-3.3c1.1-1.3,1.6-3.1,2.4-4.6c-2.1,6.3-4.3,12.5-6.4,18.8
	c-0.7,2-1.1,4-1.7,6.1c-0.3,1.7-0.7,3.3-1,5c-0.3,1.4-0.6,2.7-0.9,4.1c0.3,1.7,0.6,3.4,1,5.2v8.8c0.2,0,0.5,0,0.8,0
	c0.8-5.3,1.6-10.6,2.4-15.9c0-0.3,0-0.6,0.1-0.9c0.6-1.4,1.2-2.7,1.8-4.1c2.7-5.3,5.3-10.7,8.3-15.9c0.9-1.5,3-2.2,4.6-3.2
	c-0.3,0.9-0.4,1.9-0.9,2.7c-10,13.4-14.2,28.7-13.6,45.2c0.2,6.7,1,13.6,5.4,19.4c0.5-7.8,0.4-15.5,0.5-23.2
	c0.1-13.7,4.5-26.1,12.7-37C379.1,107.4,382.5,102.7,388.7,101.8L388.7,101.8z M354.8,148.5c-0.4,0-0.8-0.1-1.3-0.1v8.1h0.4
	C354.2,153.9,354.5,151.2,354.8,148.5z"/>
<path class="st2" d="M172.2,152.8c0.3-1.4,1.2-3.1,0.7-4.1c-10.2-18.4,2.3-42.1,17.3-49.2c9.8-4.6,22-1.6,25.3,10.2
	c1.3,4.7,0.4,8.8-3.4,12.1l-0.1-0.1c0-0.5-0.1-1,0.1-1.5c1.9-5.9,1.5-11.3-3.8-15.2c-5.6-4.1-14.1-3.7-19.5,0.6
	c-8.9,7-16.4,27.1-7.9,39.2c3.3,4.7,5.4,10.3,8.7,15c11.8,16.3,25.7,16.3,39.9,4.6c9.4-7.7,13.1-18.9,16.3-30.2
	c0.4-1.3,0.7-2.6,1.1-3.8c0.1-0.2,0.4-0.4,0.6-0.6c3,19.8-5.9,34.2-21.2,45.4c-3,2.2-7.3,3-11.1,3.3c-6.8,0.5-13.6,0.1-20.4,0.1
	c-0.9-0.6-1.9-1.3-2.9-1.9C183.2,170.7,175.9,163.2,172.2,152.8L172.2,152.8z"/>
<path class="st3" d="M441.1,123.6c1.1,3.3,2.1,6.6,3.2,9.9c2.9,8.3,5.3,16.4,0.5,24.9c-3.5,6.2-9.1,9.6-15.4,12.1
	c-7.5,3.1-14.5,6.5-19.4,13.4c-0.9,1.3-3.8,1.5-5.8,1.6c-2.3,0.1-4.6-0.6-6.9-0.6c-14.6-0.2-27-12.5-27.4-27.2
	c-0.1-4.4,0-8.7,0.7-13.1c3,9.4,7.1,17.7,15,23.6c14.2,10.7,30,8.4,40.2-6.4c6.9-10.1,10.5-21.4,11.1-33.6c0.2-3.1,0.3-6.3,0.4-9.5
	C438.6,120.4,439.9,122,441.1,123.6L441.1,123.6z"/>
<path class="st4" d="M333.9,169.1c-0.5-7.1-1.1-14.2-1.8-22.4c-2.3,10.8-4.1,20.6,0.5,30.3c1.8,3.6,0.7,4.2-2.7,4
	c-7.9-0.5-15.9-0.8-23.8-1.2c-0.9-0.1-1.8-0.5-2.7-0.8c0.5-0.8,0.8-1.7,1.4-2.4c2.7-3.1,5.6-6.1,8.2-9.3c1-1.2,1.4-2.9,2.1-4.3
	c0.8-0.7,2-1.3,2.4-2.2c3.6-8.7,7.9-17.2,10.4-26.2c5-18.4,14.8-33.3,29.3-45.5c-1.1,3.4-2,6.9-3.4,10.2
	c-3.8,8.9-7.8,17.7-11.8,26.6c-2.3,10-4.6,20-7,30C334.7,160.3,334.3,164.7,333.9,169.1L333.9,169.1z"/>
<path class="st5" d="M73,156.8c0,2,0.1,4.1,0.1,6.1c1.7,3.9,3.3,7.8,4.9,11.8c-3.4-0.3-6.9-0.8-10.4-0.8s-3.9-1.1-2.6-4.2
	c4.3-10.2,6.6-20.8,6.1-31.9c0.3-1.2,0.8-2.4,0.9-3.7c1-15.9-7-27.4-19.1-36.2c-11-8-23.1-8.6-35.1-1.9c-1.8,1-3,1.8-2.7-1.2
	c4.6-6.8,11.6-10,19.3-10.8c12.8-1.4,25.2,0,35.9,8.2c0.7,0.6,1.8,0.7,2.8,1c1.3,3.3,3.3,6.5,3.9,10c2.2,13.7,1.9,27.3-2.6,40.7
	C73,148,73.4,152.5,73,156.8L73,156.8z"/>
<path class="st6" d="M123,137.8c1-1.5,2.4-2.9,3.1-4.5c4.8-10.9,8.9-22.2,14.4-32.7c3-5.7,8.3-10.2,13-14.8c4.1-4,8.8-7.5,12.2-10.4
	c-1.3,6-5.8,12-10.5,18c-7.1,9.2-14.3,18.3-20.3,28.1c-7.7,12.7-9.3,27.5-11.9,41.8c-0.5,2.7-1.6,5.2-2.4,7.9
	c-1.8-2.3-4.2-4.2-5.4-6.8c-7.3-16.6-4.6-32.9,1.3-49.3c2.6-7.1,5.3-14.1,3.8-22.1c-0.9-4.9-0.1-10.1-0.1-15.2
	c3.6,9.1,5.3,18.6,4,28.2c-1.2,9-3.8,17.8-5.5,26.8c-1.3,6.9-1.6,13.8,1.1,21.9C121.1,148,122,142.9,123,137.8L123,137.8z"/>
<path class="st7" d="M294.9,178.7c-2.9-0.1-5.7-0.2-8.6-0.3l-0.2-0.1c1-1.2,1.9-2.3,2.9-3.5c2.1-2.5,5-4.7,6.2-7.6
	c8.8-20.4,16.9-41.1,14.7-63.8c-1.2-12.2-5.7-23.8-12-34.5l0,0c-0.3-0.7-0.6-1.4-0.9-2.1c-3.3-10-6.6-19.9-10-29.9
	c0.6,0,1.3,0,2-0.1c6.1,11.6,12,23.3,18.5,34.8c10.7,18.9,11.9,38.7,6.5,59.3c-2.2,8.3-4.7,16.6-7.1,24.9h0.1c-0.4,0.7-0.7,1.3-1,2
	C302.2,164.7,298.6,171.7,294.9,178.7L294.9,178.7z"/>
<path class="st5" d="M141.1,177.7c-3.7-3.3-5.1-7.4-5.1-12.3c-0.1-20.4,5.8-39.1,16.4-56.4c5-8.2,9.8-16.4,14.7-24.5
	c0.5,0.2,1,0.4,1.5,0.7c-2.4,6.4-4.8,12.7-7.2,19.1c-3.2,8.5-7.6,16.8-9.4,25.6c-1.9,9.4-1.9,19.3-1.9,29c0,7.4,4.1,13.5,8.9,19
	c-2.3,0.1-4.6,0.2-6.8,0.3c-3.4-0.1-6.8-0.1-10.1-0.1C141.8,177.9,141.5,177.8,141.1,177.7L141.1,177.7z"/>
<path class="st8" d="M297.9,69c6.2,10.7,10.8,22.2,12,34.5c2.2,22.8-5.9,43.5-14.7,63.8c-1.2,2.9-4.1,5.1-6.2,7.6
	c-3-1-4.3-2.9-4-6.3c0.4-3.6,0.2-7.2,0.3-10.8c0.1-0.3,0.2-0.5,0.2-0.8c0.3-0.7,0.7-1.3,1-2c1.9-4.9,3.6-9.9,5.8-14.7
	c7.5-16.5,13.5-33.4,9.6-51.9c-0.9-4.1,0.7-9.6-4.8-12c0.1-0.2,0.2-0.5,0.2-0.8C297.5,73.4,297.7,71.2,297.9,69L297.9,69z"/>
<path class="st9" d="M297.3,75.6c0,0.3-0.1,0.5-0.2,0.8c0,0.8-0.1,1.7,0.1,2.5c5.5,19,3,37.1-5.4,54.9c-3.1,6.6-4.6,14.1-6.8,21.1
	c-0.3,0.7-0.6,1.3-0.9,2c0,0.3-0.1,0.7,0,1c-2.3,7.1-3.3,14.1,2.1,20.5c0,0,0.1,0.1,0.2,0.1c-3,0.9-5.7,0.8-7.2-2.6
	c-0.3-0.7-0.6-1.3-0.9-2c-4-8.9-1.4-16.9,2.4-25.2c3.8-8.1,7.5-16.4,9.5-25c1.7-7.4,1.4-15.3,1.1-23c-0.5-10.9-1.8-21.7-3-32.5
	c-1-8.1-2.5-16.1-2.9-24.4L297.3,75.6L297.3,75.6z"/>
<path class="st10" d="M388.7,101.8c-6.2,0.9-9.6,5.6-13,10c-8.2,10.9-12.6,23.2-12.7,37c-0.1,7.7,0,15.4-0.5,23.2
	c-4.4-5.8-5.2-12.7-5.4-19.4c-0.6-16.5,3.6-31.8,13.6-45.2c0.5-0.7,0.6-1.8,0.9-2.7l0.2-0.2c0.3-0.3,0.6-0.5,0.9-0.8l0.1-0.1
	c0.3-0.3,0.7-0.6,1-0.8c8-6.3,17-7.7,26.8-6.1c5,0.8,8.5,3.4,11.2,7.4c5.6,8.6,5.5,20.7-0.5,26.9c-1.1,1.2-2.9,1.8-4.4,2.7l0,0
	c3.1-6.1,5.6-12.3,4-19.5C409.1,105.9,398.2,96.6,388.7,101.8z"/>
<path class="st11" d="M171.9,178.5c-1.6-0.2-3.2-0.5-4.8-0.7c-7.4-9.9-9.8-21.3-8.8-33.4c0.1-1.9,1.2-3.7,1.8-5.5
	c5-12.3,9.4-24.9,15.2-36.7c5.3-10.8,23.6-16.2,34.7-11.6c11.6,4.8,16.6,24.7,8.4,34.2c-2.1,2.4-5.3,3.9-8.2,5.2
	c2.5-4.1,5.8-7.9,7.4-12.3c2.2-6.2,1.2-12.6-3.8-17.5c-6.1-5.9-13.9-7-21.4-4.6c-5.1,1.7-10.2,5.1-13.9,9
	c-7.7,8.4-12,18.7-12.7,30.2c-0.7,7.1-2.8,14.4-1.7,21.2C165.4,163.7,169.2,171,171.9,178.5L171.9,178.5z"/>
<path class="st12" d="M113.3,114.1c-0.7,2.2-1.4,4.5-2.2,6.7c-0.3,0.7-0.6,1.4-0.9,2.1l0,0c-0.4,0.5-0.9,1-1.1,1.5
	c-5.5,12.9-7.9,26.5-8,40.4c-4.4-6.3-3.6-13.3-2-20.1c1.4-6,3.1-12,5.5-17.5c7.9-18.1,5.1-35.6-1.8-53.2
	c-4.1-10.6-7.9-21.5-10.9-32.5c-2.2-8.1-1-16.4,3.6-25.2c0.9,3.8,1.5,6.6,2.1,9.4c-1.9,16.9,1.9,32.6,9.3,47.7
	c6,12.3,10.7,24.7,6.3,38.7C113,112.7,113.2,113.4,113.3,114.1L113.3,114.1z"/>
<path class="st7" d="M190.3,154.6c18.2,8.4,29.3-0.3,37.2-11.9c8.1-11.9,13.3-24.9,13.4-40c0.8,1.7,1.5,3.3,2.3,5
	c0,3.3-0.2,6.7,0,10c0.6,9.8-1.9,18.7-6.6,27.2c-5.7,10.3-13.4,18.2-25.9,19.5c-4.2,0.4-8.5-0.1-12.8-0.2c-2.6-3.1-5.3-6.1-7.9-9.2
	C190.1,154.9,190.2,154.7,190.3,154.6z"/>
<path class="st8" d="M113.3,114.1c0-0.7-0.3-1.4-0.1-2c4.3-14-0.4-26.4-6.3-38.7c-7.4-15-11.2-30.8-9.3-47.7
	c6.5,16.7,16.6,31.9,19.1,50.2C118.5,89,119.5,101.8,113.3,114.1L113.3,114.1z"/>
<path class="st4" d="M255.8,178c-2-1.2-6.3,2.7-6.3-2.9c1.5-2.7,3.1-5.5,4.6-8.2c6.2-17.2,5.8-34.2-1.5-51.1
	c-1.8-4.2-3.4-8.6-4.3-13.6c3.3,4.5,6.6,9,9.9,13.4c1,2.8,2.1,5.5,2.9,8.3c4.9,18.1,8.9,36.1-4.9,52.5
	C255.9,176.9,255.9,177.5,255.8,178L255.8,178z"/>
<path class="st2" d="M15.2,94.9c-0.2,3,0.9,2.2,2.7,1.2C30,89.4,42,89.9,53,98c12.1,8.8,20.1,20.2,19.1,36.1
	c-0.1,1.2-0.6,2.5-0.9,3.7c-2.4-6.8-4.1-14-7.4-20.3c-4.5-8.7-10.3-16.6-20.7-19.7c-12.4-3.7-27.4,1.8-30.2,16.2
	c-0.1,0.8-0.7,1.5-1.1,2.3C7.3,109.7,8.7,101.3,15.2,94.9L15.2,94.9z"/>
<path class="st8" d="M171.9,178.5c-2.7-7.5-6.6-14.8-7.7-22.6c-1-6.8,1-14.1,1.7-21.2c2.1,6,4.1,12,6.2,18c3.7,10.4,11.1,17.9,20,24
	c0.9,0.6,1.9,1.3,2.9,1.9C187.3,178.7,179.6,178.6,171.9,178.5L171.9,178.5z"/>
<path class="st13" d="M248,174.8c-4.7,5.9-11.2,3.4-17.2,3.8c-0.4,0-1.4-0.9-1.3-1c0.4-0.7,0.9-1.4,1.4-1.9c3-3.1,6.4-5.8,9-9.2
	c10.2-13.1,13-28,10.4-44.2c-0.2-1.1-0.2-2.3,0.2-3.4c6.5,15.4,6.3,31.1,1.6,47C250.8,168.9,249.4,171.8,248,174.8L248,174.8z"/>
<path class="st2" d="M160.1,138.9c-0.6,1.8-1.6,3.6-1.8,5.5c-0.9,12.1,1.4,23.5,8.8,33.4c-3.8,0.7-6.1-1.1-8.2-4.2
	c-8.4-12.1-8.8-25.5-5.1-38.7c3.9-13.6,9.8-26.7,14.7-40.1c1.6-4.5,2.9-9.1,4.3-13.6c1.1,6.8-0.7,13.3-3.2,19.6
	c-2.9,7.2-6.6,14.2-8.6,21.7C159.6,127.7,160.3,133.4,160.1,138.9L160.1,138.9z"/>
<path class="st14" d="M73,156.8c0.4-4.3,0.1-8.9,1.4-12.9c4.5-13.4,4.8-27,2.6-40.7c-0.6-3.4-2.6-6.7-3.9-10
	C68.7,83.5,59.6,81.1,50.6,79c-5.1-1.2-10.5-1-15.7-1.4c8.4-3.2,16.8-1.6,24.8,1.2c15,5.2,21,17.3,23.5,31.9
	c0.7,4.3,1.8,8.6,2.8,12.9C81.6,134.7,77.3,145.8,73,156.8L73,156.8z"/>
<path class="st15" d="M27,172.4c10.7-5.9,18.6-14.4,23.6-25.4c4.5-10.1,6.3-20.6,3.2-31.5c-0.2-0.8,0.1-1.7,0.1-2.5
	c0.8,0.5,2,0.9,2.2,1.6c1.4,4.6,3.3,9.1,3.8,13.8c1.6,14.3-4.7,25.8-12.7,37.2C41.7,173.5,34.8,173,27,172.4L27,172.4z"/>
<path class="st9" d="M444.4,115.2c10.3,8.5,15.9,19.2,18.3,31.6c1.9,10.1,2.4,20.4-0.4,30.6c-2.3,8.4-3.6,9.3-12.7,8.1
	C460.8,161.1,462.4,137.4,444.4,115.2L444.4,115.2z"/>
<path class="st2" d="M357.2,89.1c-14.5,12.2-24.2,27.1-29.3,45.5c-2.5,9-6.8,17.5-10.4,26.2c-0.4,0.9-1.6,1.5-2.4,2.2
	c4.6-15.4,9.1-30.9,14-46.3c3-9.6,10.2-16.5,17.1-23.4c4.5-4.5,8.5-9.6,12.8-14.3c-0.3,3-0.6,6-1,9
	C357.7,88.2,357.4,88.6,357.2,89.1L357.2,89.1L357.2,89.1z"/>
<path class="st16" d="M101.4,87.8c3.8,10,3.8,20.1,0.8,30.2c-3.1,10.2-6.3,20.3-9.4,30.4c-2.4,7.8-2.8,15.6,0.2,23.4
	c0.3,0.8,0.1,1.8,0.1,2.7c-0.9-0.3-2-0.4-2.6-1c-5.8-5.3-7.5-12.2-5.8-19.5c1.4-6.1,3.9-12,5.8-18c1.3-4.1,2.3-8.2,3.6-12.3
	c0.3-1,1.2-1.8,1.9-2.7c1-2,2.7-3.9,2.9-6C100,106.1,100.7,96.9,101.4,87.8L101.4,87.8z"/>
<path class="st9" d="M385.1,162.8c17.8,7.6,27-2,35.2-12.6c6.2-8.1,11.1-16.9,13.7-27.1c-0.1,1.8-0.1,3.6-0.3,5.3
	c-0.3,2.1-0.7,4.2-1.1,6.3c-0.4,1.9-0.7,4-1.5,5.8c-3.4,7.7-6,15.9-10.6,22.8c-7.6,11.8-30.3,9.4-35.5-0.4L385.1,162.8L385.1,162.8z
	"/>
<path class="st17" d="M441.1,123.6c-1.2-1.6-2.5-3.2-3.7-4.8c-0.2-1.9-0.4-3.9-0.6-6.2c21.1,20.9,22.2,44.4,11.2,68.7
	c-1.3,2.9-3.3,5.1-7.2,4.9c-5.7-0.2-5.7,0.1-4.4-5.4v-0.1c3.6-3.5,7.2-7,10.8-10.5c0.3-0.3,0.6-1.2,0.5-1.3c-4.2-2.9,0-5.4,0.8-7.5
	C453.6,147.2,448.9,135.1,441.1,123.6L441.1,123.6z"/>
<path class="st18" d="M123,137.8c-0.9,5.1-1.9,10.2-3.1,16.9c-2.7-8.1-2.3-15.1-1.1-21.9c1.7-9,4.3-17.8,5.5-26.8
	c1.3-9.6-0.4-19.1-4-28.2c-0.4-2.7-0.8-5.4-1.2-8.1c0.4,0.1,0.7,0.1,1.1,0.2c5.9,12.4,10.9,25,8.1,39.2
	C126.4,118.6,124.7,128.2,123,137.8L123,137.8z"/>
<path class="st4" d="M101.1,164.9c0.2-14,2.5-27.5,8-40.4c0.2-0.6,0.7-1,1.1-1.5c-0.7,6.9-1.8,13.7-2.1,20.6
	c-0.6,12.2,3.1,23.1,11.4,32.3C111.2,178.1,104.5,174.1,101.1,164.9z"/>
<path class="st11" d="M85.9,123.6c-0.9-4.3-2-8.6-2.8-12.9c-2.4-14.6-8.4-26.7-23.5-32c-8-2.8-16.4-4.3-24.8-1.2
	c-0.9,0.1-1.8,0.3-2.7,0.4c-0.5,0.2-0.9,0.4-1.3,0.7c-3.8,1.6-7.5,3.1-11.3,4.7c-0.2-0.2-0.4-0.4-0.6-0.6
	c22.2-18.3,47.3-12.3,62.3,11.4C87.1,103.3,88.5,113.1,85.9,123.6L85.9,123.6z"/>
<path class="st9" d="M294.9,178.7c3.7-7,7.4-14,11.1-21c0.4-0.7,0.7-1.3,1-2h-0.1c1.6-3.1,3.8-6.1,4.8-9.4c4-12.2,8-24.5,8.3-37.5
	h0.5h0.5c0.4,18.2-1.8,36-9.3,52.6c-2.9,6.4-8.8,11.4-13.5,16.9C297.7,179,296,178.6,294.9,178.7L294.9,178.7z"/>
<path class="st7" d="M255.8,178c0.1-0.5,0.1-1.1,0.4-1.4c13.8-16.4,9.8-34.4,4.9-52.5c-0.8-2.8-1.9-5.6-2.9-8.3
	c3.5,6.6,8.3,12.9,10.2,20c2.9,10.5,3.5,21.7-0.2,32.4C265.5,175.6,262.2,178.1,255.8,178L255.8,178z"/>
<path class="st4" d="M197.9,164.1c4.3,0.1,8.6,0.6,12.8,0.2c12.4-1.3,20.1-9.2,25.9-19.5c4.7-8.4,7.2-17.4,6.6-27.2
	c-0.2-3.3,0-6.6,0-10c0.9,1.7,1.9,3.4,2.8,5.2c0,0.7,0.1,1.3,0.1,2c-0.3,2.7-0.5,5.3-0.8,8c-0.1,1-0.2,2-0.2,3
	c-2.2,10.1-5,19.8-10.7,28.6c-6.7,10.2-17.5,16.4-27.3,14.3C203.8,168,200.9,165.7,197.9,164.1L197.9,164.1z"/>
<path class="st9" d="M67,130.6c0.3,5.5,1.6,11.2,0.8,16.5c-1.2,7.6-4,15-6,22.5c-0.9,3.3-2.3,5-6,3.4c-1-0.4-2.3,0-3.5-0.2
	c-0.9-0.1-1.8-0.5-2.7-0.8c0.4-0.8,0.8-1.7,1.3-2.5c4.1-7.3,8.9-14.4,12.2-22c2.2-5.1,2.3-11,3.4-16.6L67,130.6L67,130.6z"/>
<path class="st11" d="M358,87.9c0.3-3,0.6-6,1-9c0.9-3,1.8-6,2.9-9.7c3.4,5.8,1,11.4,1,16.7c-2.1,6.3-4.3,12.6-6.4,18.9
	c-0.2,0.5-0.4,1-0.6,1.5c-4.2,7-8.4,14-12.6,20.9c-0.4-0.5-0.8-1-1.3-1.4c3.9-8.9,8-17.7,11.8-26.6c1.4-3.3,2.2-6.8,3.4-10.2v-0.1
	C357.4,88.6,357.7,88.2,358,87.9L358,87.9z"/>
<path class="st19" d="M101.4,87.8c-0.8,9.1-1.4,18.2-2.5,27.3c-0.2,2.1-1.9,4-2.9,6c-0.1-1-0.3-2.1-0.1-3
	c4.3-18.4,3.4-36.1-5.4-53.2c-3.9-7.6-5.5-16-5.3-24.6c0.6,0.1,1.2,0.1,1.7,0.2c2.8,9.8,5.6,19.7,8.6,29.5
	C97.4,75.9,99.5,81.8,101.4,87.8L101.4,87.8z"/>
<path class="st20" d="M134.1,177.6c-1.2-2.3-3.3-4.4-3.6-6.8c-2.1-20.9,2.9-40.2,15.8-57.2c-0.6,1.5-1.1,3-1.9,4.4
	c-7.7,15.2-11.2,31.2-10.4,48.2c0.2,3.8,0.8,7.7,1.1,11.5C134.8,177.7,134.4,177.6,134.1,177.6z"/>
<path class="st14" d="M78,174.7c-1.7-3.9-3.3-7.8-4.9-11.8c1.7-2.5,3.4-5,4.7-7c1.9,6.2,3.8,12.5,5.7,18.7H78V174.7z"/>
<path class="st15" d="M333.9,169.1c0.4-4.4,0.8-8.8,1.2-13.2c4,2.1,0.7,5.1,1,7.7c-0.3,1.3-1.1,2.8-0.7,3.9c1.3,3.3,3,6.4,4.6,9.6
	c0.7,1.3,1.3,2.6,2,3.9C335.7,179.4,335,174.1,333.9,169.1L333.9,169.1z"/>
<path class="st21" d="M356.5,104.8c2.1-6.3,4.3-12.6,6.4-18.9c6.7,1.8,1.2,5.3,1.1,8c-0.3,0.3-0.7,0.7-1,1c0,0.7,0,1.4,0,2.1
	c-0.8,1.6-1.3,3.3-2.4,4.6C359.5,102.9,357.9,103.8,356.5,104.8L356.5,104.8z"/>
<path class="st1" d="M283.7,67c-0.9-5.1-1.7-10.2-2.6-15.3c0.5-0.1,1-0.2,1.6-0.3c0.9,5.2,1.9,10.3,2.8,15.5
	C284.9,66.9,284.3,67,283.7,67L283.7,67z"/>
<path class="st0" d="M339.9,177c-1.6-3.2-3.3-6.3-4.6-9.6c-0.4-1,0.5-2.6,0.7-3.9c1.1,2.8,2.2,5.5,3.2,8.3c0.6,1.3,1.3,2.6,1.9,3.9
	l-0.3,0.2C340.6,176.2,340.3,176.6,339.9,177L339.9,177z"/>
<path class="st21" d="M248,174.8c1.4-3,2.8-6,4.2-8.9c0.6,0.3,1.3,0.6,1.9,1c-1.5,2.7-3.1,5.5-4.6,8.2
	C249,175,248.5,174.9,248,174.8z"/>
<path class="st21" d="M283.1,38c0.3,0.3,0.7,0.7,1,1c0,0.7,0,1.3,0,2c-0.3,1.3-0.7,2.7-1,4h-2v-7C281.7,38,282.4,38,283.1,38z"/>
<path class="st21" d="M358.8,123.9c-0.6,1.4-1.2,2.7-1.8,4.1c-1-0.4-2-0.7-3.1-1.1l-0.1-0.1c0.3-1.7,0.7-3.3,1-5
	C356.2,122.5,357.5,123.2,358.8,123.9L358.8,123.9z"/>
<path class="st21" d="M276.1,173.8c-1.2-1.7-2.5-3.4-3.7-5c0.4-0.3,0.8-0.5,1.1-0.8C274.3,170,275.2,171.9,276.1,173.8L276.1,173.8
	L276.1,173.8z"/>
<path class="st9" d="M439.4,107.8c1.3,1.7,2.6,3.3,3.9,5l-1.3,1c-1.3-1.6-2.7-3.2-4-4.8L439.4,107.8L439.4,107.8z"/>
<path class="st21" d="M245,125.9c0.1-1,0.2-2,0.2-3c1.2,0.8,2.5,1.6,3.7,2.3C247.6,125.4,246.3,125.7,245,125.9L245,125.9z"/>
<path class="st21" d="M282.1,32c0-0.2-0.1-0.4,0-0.5c0.6-1.1,1.2-2.3,1.8-3.4c0.6,0.4,1.3,0.7,2,1c-0.9,1-1.8,1.9-2.7,2.9
	C282.7,32,282.4,32,282.1,32L282.1,32z"/>
<path class="st0" d="M289.1,36.9c-0.6,0-1.3,0-2,0.1c-0.3-1.3-0.6-2.6-0.8-4c0-0.1,0.7-0.3,1.1-0.5C288,34,288.5,35.5,289.1,36.9
	L289.1,36.9z"/>
<path class="st22" d="M282.1,32c0.3,0,0.7,0,1,0v6c-0.7,0-1.3,0-2,0C281.4,35.9,281.7,33.9,282.1,32z"/>
<path class="st0" d="M120.1,69.8c-0.4-0.1-0.7-0.1-1.1-0.2c-0.9-1.6-1.8-3.3-2.7-4.9c0.4-0.2,0.8-0.4,1.2-0.6
	C118.4,66,119.3,67.9,120.1,69.8z"/>
<path class="st0" d="M152.2,178.1c2.3-0.1,4.6-0.2,6.8-0.3c-0.1,0.6-0.1,1.2-0.1,1.7C156.7,179.1,154.5,178.6,152.2,178.1
	L152.2,178.1z"/>
<path class="st0" d="M87,40.4c-0.6-0.1-1.2-0.1-1.7-0.2c0.1-1.2,0.1-2.4,0.2-3.6c0.4,0,0.8-0.1,1.2-0.1C86.7,37.8,86.9,39.1,87,40.4
	L87,40.4z"/>
<path class="st21" d="M246.1,114.9c0-0.7-0.1-1.3-0.1-2c1.2,0.3,2.3,0.6,3.5,0.9C248.3,114.2,247.2,114.5,246.1,114.9L246.1,114.9z"
	/>
<path class="st22" d="M287.1,70.9c-0.3,1.2-0.6,2.3-0.9,3.4c-0.3-0.1-0.8-0.2-0.8-0.3c0.2-1.1,0.4-2.1,0.6-3.2
	C286.4,70.9,286.7,70.9,287.1,70.9L287.1,70.9z"/>
<path class="st21" d="M287.1,70.9c-0.3,0-0.7,0-1,0c-0.5-0.3-1-0.6-1.6-0.9c0.3-0.3,0.6-0.6,0.9-0.9
	C285.9,69.7,286.5,70.3,287.1,70.9z"/>
<path class="st22" d="M321,108.9h-0.5h-0.4c-0.2-0.7-0.5-1.4-0.7-2.1c0-0.1,0.5-0.3,0.8-0.4C320.4,107.2,320.7,108.1,321,108.9
	L321,108.9z"/>
<path class="st21" d="M278.1,173.8c0.3,0.7,0.6,1.3,0.9,2c-1-0.7-2-1.3-3-2l0,0C276.7,173.8,277.4,173.8,278.1,173.8L278.1,173.8z"
	/>
<path class="st22" d="M281.1,44.9h2c-0.4,0.8-0.8,1.7-1.2,2.5C281.6,46.6,281.3,45.8,281.1,44.9z"/>
<path class="st22" d="M284.1,40.9c0-0.7,0-1.3,0-2c0.6,0.5,1.3,1.1,1.9,1.7C285.3,40.7,284.7,40.8,284.1,40.9z"/>
<path class="st0" d="M407.1,133.8c-0.4,0.5-0.8,1.1-1.2,1.6l-0.3-0.3C406,134.6,406.6,134.2,407.1,133.8L407.1,133.8L407.1,133.8z"
	/>
<path class="st21" d="M124.7,171.6c-0.1,0.3-0.2,0.6-0.4,0.8c-0.3-0.1-0.7-0.2-0.8-0.4s0.2-0.5,0.3-0.8
	C124.1,171.3,124.4,171.5,124.7,171.6L124.7,171.6z"/>
<path class="st0" d="M149.8,106.3c0.3,0.1,0.6,0.2,0.8,0.4c-0.1,0.3-0.2,0.7-0.4,0.8c-0.2,0.1-0.5-0.2-0.8-0.3
	C149.6,106.9,149.7,106.6,149.8,106.3L149.8,106.3z"/>
<path class="st0" d="M11.9,89.2c0.2,0.2,0.4,0.3,0.5,0.5c0,0-0.2,0.4-0.3,0.4c-0.3,0-0.5-0.1-0.8-0.2C11.6,89.7,11.8,89.5,11.9,89.2
	z"/>
<path class="st0" d="M436.4,180.7v0.1c-0.5-0.2-1.1-0.3-1.7-0.5l0.5-0.7C435.6,179.9,436,180.3,436.4,180.7L436.4,180.7z"/>
<path class="st4" d="M110.2,122.9c0.3-0.7,0.6-1.4,0.9-2.1C110.8,121.5,110.5,122.2,110.2,122.9z"/>
<path class="st8" d="M297.1,66.9c0.3,0.7,0.6,1.4,0.9,2.1C297.6,68.3,297.3,67.6,297.1,66.9z"/>
<path class="st0" d="M147.7,112.2c-0.1,0-0.4-0.1-0.4-0.1c0-0.1,0.1-0.3,0.1-0.4c0.1,0,0.4,0.1,0.4,0.1
	C147.8,111.9,147.8,112,147.7,112.2z"/>
<path class="st0" d="M53.1,110.6c-0.1-0.1-0.2-0.2-0.3-0.3c0.1-0.1,0.3-0.2,0.4-0.2c0.1,0,0.2,0.2,0.3,0.3
	C53.4,110.5,53.2,110.6,53.1,110.6z"/>
<path class="st11" d="M18.4,84.2c-0.6,0.1-1.1,0.3-1.7,0.4c0.4-0.3,0.8-0.7,1.2-1C18.1,83.8,18.3,84,18.4,84.2L18.4,84.2z"/>
<path class="st9" d="M384.9,162.9c-0.4-0.2-0.9-0.3-1.3-0.5c0.1-0.1,0.3-0.4,0.3-0.4c0.4,0.2,0.8,0.4,1.1,0.7L384.9,162.9
	L384.9,162.9z"/>
<path class="st22" d="M363,94.9c0.3-0.3,0.7-0.7,1-1C363.7,94.2,363.4,94.6,363,94.9z"/>
<path class="st7" d="M190,155c-0.2-0.2-0.4-0.4-0.6-0.6c0.3,0.1,0.6,0.1,0.9,0.2C190.2,154.7,190.1,154.9,190,155L190,155z"/>
<path class="st1" d="M372.8,103.8c-0.3,0.3-0.6,0.5-0.9,0.8C372.2,104.3,372.5,104.1,372.8,103.8z"/>
<path class="st1" d="M374,102.8c-0.3,0.3-0.7,0.6-1,0.8C373.3,103.4,373.6,103.1,374,102.8z"/>
<path class="st1" d="M401,134.9c-0.2,0.1-0.3,0.3-0.5,0.4L401,134.9L401,134.9L401,134.9z"/>
<path class="st0" d="M134.1,177.6c0.4,0,0.7,0.1,1.1,0.1C134.8,177.7,134.4,177.6,134.1,177.6z"/>
<path class="st0" d="M141.1,177.7c0.3,0.1,0.6,0.1,0.9,0.2C141.8,177.9,141.4,177.8,141.1,177.7z"/>
<path class="st11" d="M19.6,83.4c-0.4,0.3-0.8,0.6-1.2,0.8c-0.2-0.2-0.4-0.4-0.5-0.6c0.4-0.3,0.7-0.6,1.1-0.9
	C19.2,82.9,19.4,83.2,19.6,83.4z"/>
<path class="st1" d="M401,134.8c0.1-0.1,0.3-0.3,0.5-0.4C401.3,134.6,401.2,134.7,401,134.8L401,134.8L401,134.8z"/>
<path class="st14" d="M30.9,78.7c0.5-0.2,0.9-0.4,1.3-0.7C31.8,78.3,31.3,78.5,30.9,78.7z"/>
<path class="st2" d="M212.1,121.9c-0.1,0.1-0.3,0.3-0.4,0.4C211.8,122.2,211.9,122,212.1,121.9L212.1,121.9z"/>
<path class="st7" d="M339.3,171.8c-1.1-2.8-2.2-5.5-3.2-8.3c-0.4-2.6,2.9-5.6-1-7.7c2.3-10,4.6-20,7-30c0.4,0.5,0.8,1,1.2,1.4
	c-0.4,3.2-0.8,6.4-1.3,9.6c-0.3,1.2-0.8,2.5-0.9,3.7c-0.4,7.3-0.8,14.6-0.9,21.9c-0.1,3.1,0.5,6.2,0.7,9.3
	C340.4,171.8,339.9,171.8,339.3,171.8L339.3,171.8z"/>
<path class="st0" d="M342,136.9c0.4-3.2,0.8-6.4,1.3-9.6c4.2-7,8.4-14,12.6-20.9c-0.2,1.6-0.1,3.4-0.7,4.8c-1.9,4-4.1,7.8-6.2,11.8
	c-2,4.7-4.1,9.3-6.1,14h-0.5L342,136.9L342,136.9z"/>
<path class="st20" d="M342.9,136.8c2-4.6,4.1-9.3,6.1-14c-1.8,6.6-3.6,13.3-5.8,21.4C343.1,140.8,343,138.8,342.9,136.8L342.9,136.8
	z"/>
<path class="st21" d="M353,130.8c0.3-1.4,0.6-2.7,0.9-4.1l0.1,0.1c1,0.7,2,1.3,3,2c-0.8,5.3-1.6,10.6-2.4,15.9c-0.2,0-0.5,0-0.8,0
	c0-2.9,0-5.9,0-8.8C354.6,134.1,356.6,131.9,353,130.8L353,130.8z"/>
<path class="st22" d="M354.8,148.5c-0.3,2.7-0.6,5.4-0.9,8.1h-0.4v-8.1C353.9,148.4,354.4,148.5,354.8,148.5z"/>
<path class="st22" d="M353,130.8c3.7,1.1,1.7,3.3,1,5.2C353.6,134.3,353.3,132.6,353,130.8z"/>
<path class="st10" d="M339.3,171.8c0.5,0,1.1,0,1.6,0c0.1,1.3,0.2,2.6,0.3,3.9C340.6,174.4,340,173.1,339.3,171.8L339.3,171.8z"/>
<path class="st22" d="M357,128.9c-1-0.7-2-1.3-3-2c1,0.4,2,0.7,3.1,1.1C357.1,128.3,357.1,128.6,357,128.9L357,128.9z"/>
<path d="M286.1,178.3c-5.4-6.4-4.3-13.4-2.1-20.5c0.4,0,0.9,0,1.3,0c-0.1,3.6,0,7.2-0.3,10.8c-0.3,3.3,0.9,5.3,4,6.3
	C288,176,287.1,177.2,286.1,178.3L286.1,178.3z"/>
<path d="M307,155.8c-0.4,0.7-0.7,1.3-1,2C306.3,157.1,306.7,156.4,307,155.8z"/>
<path class="st21" d="M285,154.8c2.2-7.1,3.6-14.5,6.8-21.1c8.4-17.8,10.9-35.9,5.4-54.9c-0.2-0.8-0.1-1.7-0.1-2.5
	c5.6,2.4,4,7.9,4.8,12c3.9,18.5-2,35.4-9.6,51.9c-2.2,4.8-3.9,9.8-5.8,14.7C286,155,285.5,154.9,285,154.8L285,154.8z"/>
<path d="M285,154.8c0.5,0.1,1,0.1,1.5,0.2c-0.3,0.7-0.7,1.3-1,2c-0.5-0.1-1-0.1-1.5-0.2C284.4,156.2,284.7,155.5,285,154.8
	L285,154.8z"/>
<path class="st21" d="M284.1,156.8c0.5,0.1,1,0.1,1.5,0.2c-0.1,0.3-0.1,0.5-0.2,0.8c-0.4,0-0.9,0-1.3,0
	C284.1,157.5,284.1,157.2,284.1,156.8L284.1,156.8z"/>
<path class="st4" d="M358,87.9c-0.3,0.4-0.6,0.7-0.9,1.1C357.4,88.6,357.7,88.2,358,87.9z"/>
</svg>
