<?xml version="1.0" encoding="utf-8"?>
<!-- Generator: Adobe Illustrator 27.9.0, SVG Export Plug-In . SVG Version: 6.00 Build 0)  -->
<svg version="1.1" xmlns="http://www.w3.org/2000/svg" xmlns:xlink="http://www.w3.org/1999/xlink" x="0px" y="0px"
	 viewBox="0 0 1400 286" style="enable-background:new 0 0 1400 286;" xml:space="preserve">
<style type="text/css">
	.st0{fill:#282024;}
	.st1{fill:#465415;}
	.st2{fill:#434F15;}
	.st3{fill:#5A770B;}
	.st4{fill:#5B780C;}
	.st5{fill:#5B780B;}
	.st6{fill:#445015;}
	.st7{fill:#93A938;}
	.st8{fill:#5C790C;}
	.st9{fill:#424E15;}
	.st10{fill:#92A837;}
	.st11{fill:#91A638;}
	.st12{fill:#92A838;}
	.st13{fill:#59750C;}
	.st14{fill:#455115;}
	.st15{fill:#819928;}
	.st16{fill:#444F16;}
	.st17{fill:#92A739;}
	.st18{fill:#91A737;}
	.st19{fill:#8FA437;}
	.st20{fill:#8DA137;}
	.st21{fill:#251E1F;}
	.st22{fill:#261E1F;}
</style>
<g id="Layer_2">
	<path d="M541.8,186.8L541.8,186.8c0,0-1.2-21.3,0.2-21.5c17.7-2.7,31.3-16.4,33.1-33.7c0.3-3.1,0.1-6.3-0.7-9.2
		c-2.4-9.2-12.5-11.8-19.4-5.3c-3.1,2.9-3.4,6.2-1.6,10c0.9,1.8,1.1,3.8,1.6,5.8c-2.4-0.5-4.9-0.5-7-1.5
		c-6.7-3.4-13.6-16.7-11.3-23.4c0.3-0.7,0.6-1.5,0.9-2.2c0.5-1.3,0.7-2.7,1.3-4c10.2-20.1,36.1-26.3,53.8-12.5
		c7.8,6,13.5,13.4,15,23.4c0.2,0.9,0.5,1.7,0.8,2.7c0.2-1,0.5-2,0.7-3c1.4-11-1.7-21.1-6-31c-6.8-15.8-4.2-30.8,3.8-45.3
		c1.1-2,2.2-4.2,3.3-6.2c0.5,0,1-0.1,1.6-0.1c0.8,2.4,1.9,4.5,2.4,7c2.8,14,9.4,26.4,16.4,38.6c5,8.9,9.4,18,10.3,28.4
		c0.1,1-0.1,2-0.1,3.1c0.2,0.4,0.4,0.7,0.6,1.1c0.2-0.4,0.5-0.8,0.8-1.2c3.1-3.8,5.8-8,9.3-11.4c6.7-6.3,13.5-12.4,15-22.2
		c0.2-0.8,1.2-1.4,1.8-2.1c0.5,0.6,1.3,1.3,1.6,2c3.9,8.7,7.4,17.6,5.9,27c5-1.6,10-3.8,15-4.7c7.9-1.3,15.3,0.5,19.7,8.1
		c4.9,8.5,6.8,17.3,1,26.2c-4.3,6.7-13.1,8.9-20.1,5.5c-0.9-0.5-1.7-1.4-2.5-2.1c0.8-0.8,1.6-1.5,2.3-2.4c2.4-2.6,5.4-4.9,7.1-8
		c2.1-4-0.3-7.8-4.9-7.8c-2.4,0-5.3,0.9-7.1,2.4c-6,4.7-7.5,11.4-6.4,18.7c1,6.6,5.3,10.9,11.4,13.2c4.9,1.9,9.2,0.4,13.2-2.5
		c13.2-9.7,19.4-32.6,12.9-47.6c-0.6-1.4-1.6-2.7-2.4-3.9l1-1c16.2,10.2,30.2,22.3,35.3,41.8c0.6,2.3,0.8,4.6,1.2,6.9
		c0,0.4,0,0.8,0,1.2c0.3-0.4,0.6-0.9,0.9-1.3c5-10.3,8.8-21,6.9-32.7c-1.3-8.1-2.9-16.1-5.1-24.1c-2.7-9.8-3.5-19.8-2.7-29.8
		c0.8-9.6,6.3-17.6,11.2-25.5c0.3-0.5,1.2-0.6,1.8-0.9c0.2,0.7,0.9,1.5,0.7,2c-3.9,12.8,2.6,23,8,33.5c4.1,8,8.9,15.7,12.3,24
		c2.9,7.3,4.2,15.2,6.1,22.9c-0.2,0.4-0.3,0.8-0.4,1.2c0.4-0.3,0.8-0.5,1.2-0.9c3.6-4.1,6.7-8.9,10.8-12.2
		c9.6-7.6,12.7-17.7,13.2-29.2c0.1-2,0-4.1,0.6-6.1c2.9,8.5,6.4,16.9,8.5,25.6c1.2,4.9,0.2,10.3,0.2,14.7c5.6-1.4,11.5-3.7,17.7-4.4
		c11-1.3,18.6,4.6,21.3,15.3c2.8,10.8-1.1,20-10.2,24.5c-5.5,2.7-10.9,2.1-16.2-0.2c-1.1-0.5-1.7-2-2.7-3c1-0.4,2-0.9,3.1-1.1
		c6-1.1,10.1-6.3,9.4-12c-0.5-4.3-3.8-6.6-8.1-5.4c-4.3,1.2-7.3,4-9,8c-3.8,8.6,0.1,21,7.9,26.1c4.8,3.1,9.7,3.4,14.2-0.2
		c10.9-8.5,17.8-19.7,18-33.6c0.1-5.3-3.1-10.5-4.9-15.8c-0.5-1.4-0.8-2.9-1.2-4.3c1.6,0.5,3.3,0.5,4.5,1.4
		c20.5,14.7,35.6,32.7,33.9,60c-0.2,3.9-0.8,7.8-1.6,11.6c-1.2,5.3-6.1,14.8-6.1,14.8 M850.6,135.3l-0.3,0.3
		C850.4,135.6,850.5,135.5,850.6,135.3c0.2-0.1,0.2-0.2,0.3-0.3C850.9,135.1,850.7,135.3,850.6,135.3L850.6,135.3z M828.7,111
		L828.7,111c-0.3,0.3-0.5,0.5-0.8,0.7l-0.2,0.2c-1.3,0.9-2.9,1.4-3.6,2.5c-2.4,4.1-4.3,8.3-6.5,12.5c-1-0.5-2-1.1-3.1-1.6
		c0.5-1.6,0.8-3.2,1.3-4.8c1.6-4.9,3.4-9.8,5-14.7c0-0.5,0-1.1,0-1.6c0.2-0.2,0.5-0.5,0.8-0.8c0.1-2.1,4.4-4.9-0.9-6.3
		c0-4.2,1.9-8.5-0.8-13.1c-0.9,2.9-1.6,5.3-2.3,7.6c-3.3,3.8-6.4,7.7-10,11.2c-5.4,5.4-11,10.8-13.4,18.3
		c-3.8,12.1-7.3,24.1-11,36.3c-0.5,1.2-0.9,2.4-1.6,3.4c-2,2.5-4.3,4.9-6.4,7.3c-0.5,0.5-0.7,1.3-1.1,1.9c0.7,0.2,1.4,0.5,2.1,0.6
		c6.2,0.3,12.5,0.5,18.7,0.9c2.7,0.2,3.5-0.3,2.1-3.1c-3.6-7.5-2.2-15.2-0.4-23.7c0.5,6.5,0.9,12,1.4,17.6c0.9,3.9,1.4,8.1,6.3,9.3
		c-0.5-1-1-2-1.6-3.1l0.8-0.9c2.1,3,4.8,5.1,8.6,5.4c4.4,0.3,8.8,0.5,13.2,0.8c1.7,0.1,2.5,0.2,1.6-2.4c-1.6-5-3.2-10.2-3.5-15.4
		c-0.3-5.8,0.8-11.6,1.3-17.4c0.5-6.3,1.4-12.5,5.6-17.6c4.9-6,11.2-9.6,18.2-5.5c5.6,3.2,7.2,7.5,4.8,13.5
		c-0.6,1.5-1.3,2.8-2.4,5.3c4.8-3.1,6.8-9,5.5-13.7c-2-7.4-6.5-10.6-15.5-11.1c7.4-4.2,15.9,3.2,17.5,9.8c1.3,5.6-0.7,10.4-3.1,15.3
		c-0.4,0.3-0.9,0.6-1.3,0.9l0.2,0.2c0.3-0.4,0.6-0.9,0.9-1.3c1.2-0.7,2.6-1.2,3.4-2.1c4.6-4.9,4.7-14.3,0.4-21.1
		c-2.1-3.2-4.9-5.2-8.8-5.8c-7.7-1.3-14.7-0.2-21,4.8C829.1,110.6,828.9,110.8,828.7,111L828.7,111z M550.4,95.3
		c-0.3,0.2-0.6,0.5-0.9,0.8c0.5-0.1,0.9-0.2,1.3-0.3c0.3-0.2,0.6-0.5,0.9-0.6c3-1.3,5.9-2.4,8.9-3.7c0.4-0.2,0.7-0.3,1-0.5
		c0.7-0.1,1.4-0.2,2.1-0.3c4.1,0.3,8.3,0.2,12.3,1.1c7.1,1.6,14.3,3.5,17.6,11.1c-0.7-0.2-1.6-0.3-2.2-0.8
		c-8.4-6.5-18.1-7.5-28.1-6.4c-6,0.6-11.5,3.1-15.1,8.5c-5,5-6.1,11.6-2.7,16.9c0.3-0.6,0.7-1.2,0.9-1.8c2.3-11.3,14-15.6,23.7-12.7
		c8.2,2.4,12.7,8.6,16.2,15.4c2.6,4.9,3.9,10.6,5.8,15.9c0.4,8.7-1.4,17-4.8,25c-1,2.4-0.7,3.3,2,3.3c2.7,0,5.4,0.4,8.2,0.6h4.2
		c-1.5-4.9-3-9.8-4.5-14.7c-1,1.6-2.4,3.5-3.7,5.5c0-1.6-0.1-3.2-0.1-4.8c3.4-8.7,6.7-17.3,10.1-26c2-8.2,0.9-15.9-3.7-23.2
		c-11.8-18.7-31.4-23.4-48.8-9C550.9,94.7,550.7,95.1,550.4,95.3L550.4,95.3z M760.6,85.3c-0.2,0.9-0.4,1.6-0.5,2.5
		c0,0.1,0.4,0.2,0.6,0.2c0.2-0.9,0.5-1.8,0.7-2.7c-0.5-0.5-0.9-0.9-1.3-1.4c-0.2,0.2-0.5,0.5-0.7,0.7L760.6,85.3L760.6,85.3z
		 M757.4,54.8c-0.2,1.6-0.5,3.1-0.8,4.7c0,1.8,0,3.7,0,5.5c0.2,0.6,0.4,1.3,0.6,2c0.3-0.6,0.6-1.3,0.9-2c0.2-1,0.5-2.1,0.8-3.1
		c0.5-0.1,1-0.2,1.5-0.2c-0.5-0.4-1-0.9-1.5-1.3c-0.2-0.2-0.5-0.5-0.8-0.8v-4.7c0.7-0.8,1.4-1.5,2.1-2.3c-0.5-0.3-1-0.5-1.6-0.8
		c-0.5,0.9-0.9,1.8-1.4,2.7C757.4,54.5,757.4,54.6,757.4,54.8L757.4,54.8z M752.7,165.9l2.4,1.6c1.2,2.7,3.3,2.7,5.6,2
		c2.3,0.1,4.5,0.2,6.7,0.2c0.9-0.1,2.2,0.2,2.6-0.2c3.7-4.3,8.3-8.2,10.6-13.2c5.9-13,7.6-27,7.3-41.2c-0.2-0.6-0.5-1.3-0.7-2
		c-0.2,0.1-0.6,0.2-0.6,0.3c0.2,0.5,0.3,1.1,0.5,1.6c-0.3,10.2-3.4,19.8-6.5,29.4c-0.9,2.6-2.5,4.9-3.8,7.4
		c1.9-6.5,3.8-12.9,5.6-19.5c4.2-16.1,3.4-31.7-5.1-46.5c-5-8.9-9.6-18.1-14.4-27.2c-0.4-1.2-0.9-2.3-1.3-3.4
		c-0.3,0.2-0.9,0.3-0.9,0.4c0.2,1,0.4,2,0.6,3.1c2.6,7.8,5.2,15.6,7.8,23.4c0.2,0.5,0.5,1.1,0.7,1.6l0,0c-0.2,1.7-0.3,3.4-0.5,5.3
		l-9.5-25c0.3,6.4,1.5,12.8,2.3,19.1c1,8.5,2,17,2.4,25.5c0.3,6,0.5,12.2-0.9,18c-1.6,6.7-4.5,13.2-7.4,19.6c-3,6.5-5,12.8-1.9,19.8
		C753.7,165.9,753.2,165.9,752.7,165.9c-0.7-1.5-1.3-3.1-2-4.5c-0.3,0.2-0.6,0.4-0.9,0.6L752.7,165.9L752.7,165.9z M641.4,168.9
		c0.3,0,0.5,0.1,0.9,0.1c-0.3-3-0.7-6-0.9-9c-0.6-13.3,2.1-25.9,8.2-37.8c0.5-1.1,0.9-2.3,1.5-3.4c-10.1,13.3-14,28.4-12.4,44.8
		C638.8,165.4,640.4,167.2,641.4,168.9z M603.1,61.2c-0.2,6.7,1.1,13.3,4.2,19.3c6.9,13.4,7.6,27.4,4.2,41.7
		c-0.2,0.7,0.1,1.6,0.1,2.4c-0.5,0.7-1.3,1.3-1.5,2.1c-1,3.2-1.8,6.4-2.8,9.6c-1.5,4.7-3.4,9.3-4.5,14.1c-1.3,5.8,0,11.1,4.5,15.3
		c0.5,0.5,1.3,0.5,2,0.8c0-0.7,0.2-1.5-0.1-2.1c-2.4-6.1-2-12.2-0.2-18.3c2.4-8,4.9-15.9,7.4-23.8s2.4-15.8-0.6-23.7
		c-1.6-4.7-3.2-9.3-4.6-14c-2.4-7.7-4.5-15.4-6.7-23.1c-0.1-1-0.2-2-0.3-3.1c-0.3,0-0.6,0.1-0.9,0.1
		C603.2,59.3,603.2,60.3,603.1,61.2L603.1,61.2z M728.6,126c0.2-2.1,0.4-4.2,0.6-6.3c0.9-0.2,1.8-0.5,2.7-0.8
		c-0.9-0.2-1.8-0.5-2.7-0.7c-0.7-1.3-1.5-2.7-2.2-4.1c-0.6-1.3-1.2-2.6-1.8-3.9c-0.2,11.8-4.2,22-10.5,31.4
		c-6.2,9.1-14.9,15.9-29.2,9.3c-0.2-0.1-0.5-0.1-0.7-0.2c0.2,0.2,0.3,0.3,0.5,0.5c2,2.4,4.2,4.8,6.2,7.2c2.4,1.3,4.6,3.1,7.1,3.6
		c7.7,1.6,16.2-3.2,21.4-11.2c4.5-6.9,6.7-14.6,8.4-22.4c1-0.2,2-0.3,3.1-0.5C730.5,127.2,729.5,126.6,728.6,126L728.6,126z
		 M622.7,126c0.2-0.5,0.5-1.1,0.7-1.6c0.5-1.7,1.1-3.5,1.7-5.3c4.9-9.6,4.1-19.7,2.7-29.9c-2-14.3-9.9-26.3-15-39.3
		c-0.5-2.2-1-4.4-1.6-7.4c-3.5,6.9-4.5,13.4-2.8,19.8c2.4,8.6,5.3,17.2,8.5,25.5c5.3,13.8,7.6,27.5,1.4,41.7
		c-1.9,4.4-3.3,9.1-4.3,13.7c-1.3,5.3-1.9,10.8,1.6,15.8c2.7,7.2,7.9,10.3,14.4,8.6c-6.5-7.2-9.4-15.8-8.9-25.4
		C621.3,136.8,622.1,131.4,622.7,126L622.7,126L622.7,126z M630.5,84.4c-0.7-1.5-1.4-3-2.1-4.5c-0.3,0.2-0.6,0.3-0.9,0.5l2.1,3.8
		c0.3,2.1,0.6,4.2,0.9,6.3c0,4-0.5,8.1,0.1,11.9c1.1,6.3-1,11.8-3,17.3c-4.6,12.8-6.7,25.6-1,38.6c0.9,2,2.8,3.6,4.2,5.3
		c0.6-2,1.5-4.1,1.9-6.2c2.1-11.2,3.4-22.8,9.3-32.8c4.7-7.8,10.3-14.9,15.9-22c3.7-4.7,7.2-9.4,8.2-14.1c-2.7,2.3-6.4,5-9.6,8.2
		c-3.7,3.6-7.8,7.2-10.2,11.6c-4.4,8.2-7.5,17.1-11.3,25.6c-0.5,1.3-1.6,2.4-2.4,3.5c1.4-7.5,2.7-15,4.2-22.6
		C639,104,635.1,94.1,630.5,84.4L630.5,84.4z M878.4,171.4c-1.1,4.2-1.1,4,3.4,4.2c3.1,0.2,4.6-1.6,5.6-3.8
		c8.5-19,7.8-37.5-8.8-53.8c0.2,1.8,0.4,3.4,0.5,4.9c-0.1,2.5-0.2,4.9-0.3,7.4c-0.5,9.6-3.3,18.5-8.7,26.3
		c-7.9,11.6-20.3,13.4-31.5,5c-6.2-4.7-9.4-11.2-11.8-18.5c-0.5,3.4-0.6,6.8-0.5,10.3c0.3,11.6,10,21.2,21.5,21.3
		c1.8,0,3.6,0.6,5.4,0.5c1.6-0.1,3.8-0.2,4.5-1.3c3.8-5.5,9.3-8.2,15.2-10.5c4.9-2,9.2-4.6,12.1-9.5c3.8-6.7,1.9-13-0.4-19.5
		c-0.9-2.6-1.7-5.2-2.5-7.8c6.1,9,9.8,18.5,5.9,29.6c-0.6,1.7-3.9,3.6-0.6,5.9c0.1,0.1-0.2,0.8-0.4,1
		C884.1,165.8,881.2,168.6,878.4,171.4c-0.3-0.4-0.6-0.7-0.9-0.9L877,171C877.5,171.2,878,171.2,878.4,171.4L878.4,171.4z
		 M838.2,157.3c-0.3-0.2-0.6-0.4-0.9-0.5c0,0-0.2,0.2-0.2,0.3c0.3,0.2,0.7,0.2,1,0.4c4.1,7.6,21.9,9.5,27.8,0.3
		c3.5-5.5,5.6-11.8,8.3-17.9c0.6-1.4,0.9-3,1.2-4.5c0.4-1.6,0.7-3.3,0.9-4.9c0.2-1.4,0.2-2.7,0.2-4.2c-2,8-5.9,15-10.7,21.2
		C859.3,155.7,852,163.2,838.2,157.3L838.2,157.3z M730.7,166.7l1.3,0.2c0,4.4,3.4,1.3,4.9,2.3c4.9,0.1,7.6-1.9,9.6-7.8
		c2.9-8.4,2.5-17.1,0.2-25.4c-1.6-5.6-5.3-10.4-8-15.7c-2.6-3.5-5.2-7.1-7.8-10.5c0.7,3.9,2,7.3,3.4,10.7c5.7,13.2,6,26.6,1.2,40.1
		c-0.5-0.2-1-0.5-1.5-0.8c3.7-12.5,3.8-24.8-1.3-36.8c-0.3,0.9-0.3,1.8-0.2,2.7c2,12.7-0.2,24.4-8.2,34.6c-2,2.7-4.7,4.8-7.1,7.2
		c-0.5,0.5-0.9,0.9-1.1,1.5c-0.1,0.1,0.7,0.8,1,0.8C721.8,169.4,727,171.3,730.7,166.7L730.7,166.7z M666.4,135.3
		c0.5-9,3.8-17.1,10-23.7c2.8-3.1,6.9-5.8,10.9-7.1c5.9-1.9,12-1,16.8,3.6c4,3.8,4.8,8.9,3,13.7c-1.3,3.4-3.8,6.4-5.8,9.6
		c2.3-0.9,4.8-2.1,6.4-4.1c6.4-7.4,2.5-23-6.6-26.8c-8.8-3.6-23,0.6-27.2,9.1c-4.5,9.3-8,19.2-11.9,28.8c0.2-4.3-0.4-8.8,0.7-12.8
		c1.6-5.9,4.5-11.4,6.7-17c2-4.9,3.4-10,2.5-15.4c-1.1,3.6-2,7.2-3.4,10.7c-3.8,10.5-8.5,20.7-11.5,31.4c-3,10.3-2.7,20.8,4,30.3
		c1.6,2.4,3.4,3.8,6.4,3.3c1.3,0.2,2.5,0.4,3.8,0.5c6,0.1,12.1,0.2,18,0.2c5.3,0,10.7,0.3,16-0.1c3-0.2,6.4-0.9,8.7-2.6
		c12-8.7,19-20.1,16.6-35.6c-0.2,0.2-0.5,0.3-0.5,0.5c-0.3,1-0.5,2-0.9,3c-2.5,8.9-5.4,17.6-12.8,23.7c-11.2,9.2-22,9.2-31.3-3.6
		c-2.7-3.7-4.2-8.1-6.8-11.8c-6.7-9.5-0.9-25.2,6.2-30.7c4.2-3.4,10.9-3.7,15.3-0.5c4.2,3.1,4.5,7.3,3,11.9
		c-0.1,0.4-0.1,0.8-0.1,1.2c-0.1,0.2-0.2,0.2-0.3,0.4c0.1-0.1,0.2-0.2,0.3-0.3c3-2.6,3.8-5.8,2.7-9.5c-2.6-9.3-12.2-11.6-19.8-8
		c-11.8,5.5-21.6,24.1-13.6,38.6c0.4,0.7-0.3,2.1-0.5,3.2C669.6,144.7,668.1,140,666.4,135.3L666.4,135.3z M647.7,169.2
		c2.7,0.1,5.3,0.1,7.9,0.1c1.7,0.4,3.4,0.8,5.3,1.1c0.1-0.5,0.1-0.9,0.1-1.3c-3.8-4.3-7-9.1-7-14.9c-0.1-7.6-0.1-15.4,1.5-22.7
		c1.4-6.9,4.9-13.4,7.4-20.1c1.9-4.9,3.8-10,5.6-15c-0.4-0.2-0.8-0.3-1.2-0.5c-3.8,6.4-7.7,12.9-11.5,19.2
		c-8.3,13.6-12.9,28.2-12.9,44.2c0,3.8,1,7.1,4,9.6C647.2,169,647.5,169.1,647.7,169.2L647.7,169.2z M557.5,164.8
		c6.1,0.5,11.5,0.9,15.9-5.4c6.3-8.9,11.2-17.9,10-29.2c-0.4-3.7-1.9-7.2-3-10.8c-0.2-0.5-1.2-0.9-1.7-1.3c0,0.6-0.2,1.3-0.1,2
		c2.4,8.5,1,16.8-2.5,24.7C572.1,153.6,565.9,160.2,557.5,164.8L557.5,164.8z M884.6,120c14,17.5,12.8,36,4.2,55
		c7.1,0.9,8.2,0.2,10-6.3c2.2-8,1.8-16,0.3-24C897.2,135,892.7,126.6,884.6,120L884.6,120z M588.8,132l-0.4,0.2
		c-0.9,4.4-0.9,9-2.7,13c-2.6,6-6.3,11.5-9.6,17.2c-0.4,0.6-0.6,1.3-1,2c0.7,0.2,1.4,0.5,2.1,0.6c0.9,0.1,2-0.2,2.7,0.2
		c2.9,1.3,4-0.2,4.7-2.7c1.6-5.9,3.8-11.7,4.7-17.6C590.2,140.8,589.2,136.4,588.8,132L588.8,132z M758.7,82.2
		c0.5-0.1,0.9-0.1,1.4-0.1c-0.7-4.1-1.5-8.1-2.2-12.1c-0.4,0.1-0.8,0.2-1.3,0.2C757.4,74.2,758,78.2,758.7,82.2L758.7,82.2z
		 M880.7,114.2l-1.2,0.9c1,1.3,2.1,2.5,3.1,3.8l1-0.8C882.8,116.8,881.7,115.4,880.7,114.2L880.7,114.2z M634.1,164.2
		c-0.2-0.1-0.5-0.2-0.6-0.3c-0.1,0.2-0.3,0.5-0.2,0.6c0.1,0.2,0.4,0.2,0.6,0.3C633.8,164.6,633.9,164.3,634.1,164.2L634.1,164.2z
		 M653.7,113c-0.1,0.2-0.2,0.5-0.3,0.6c0.2,0.1,0.5,0.3,0.6,0.2c0.2-0.1,0.2-0.4,0.3-0.6C654.1,113.2,654,113.1,653.7,113L653.7,113
		z M545.7,99.6l-0.4,0.5c0.2,0.1,0.4,0.2,0.6,0.2c0.1,0,0.2-0.2,0.2-0.3C546,99.8,545.8,99.8,545.7,99.6z M652.1,117.6
		c0.1-0.1,0.1-0.2,0.1-0.3s-0.2-0.1-0.3-0.1c-0.1,0.1-0.1,0.2-0.1,0.3C651.9,117.5,652,117.5,652.1,117.6z M577.9,116.4
		c0.1-0.1,0.2-0.1,0.3-0.2c-0.1-0.1-0.2-0.2-0.2-0.2c-0.1,0-0.2,0.1-0.3,0.2C577.8,116.2,577.9,116.3,577.9,116.4z"/>
	<path class="st0" d="M889,180.6c1.6-0.5,3.3-0.9,4.9-1.3C892.3,179.8,890.7,180.2,889,180.6z"/>
	<path class="st0" d="M609.2,112.3c-0.2,1-0.5,2-0.7,3c-0.2-0.9-0.5-1.7-0.8-2.7C608.2,112.6,608.7,112.5,609.2,112.3z"/>
	<path class="st0" d="M716,93.8c-0.3,0.3-0.7,0.7-1,1c-0.6-0.7-1.3-1.4-1.9-2.1c0.2-0.2,0.3-0.5,0.5-0.6
		C714.4,92.7,715.2,93.3,716,93.8L716,93.8z"/>
	<path d="M667.2,69.9c0.7-0.3,1.1-0.5,1.6-0.6c0.2,0,0.7,0.5,0.6,0.7c-0.1,0.4-0.5,0.7-0.8,1C668.5,71,668.2,70.6,667.2,69.9
		L667.2,69.9z"/>
	<path class="st0" d="M537.7,105.8c-0.3,0.7-0.6,1.5-0.9,2.2C537.1,107.3,537.4,106.5,537.7,105.8z"/>
	<path class="st0" d="M642.3,106.6c-0.2,0.4-0.5,0.8-0.8,1.2c-0.2-0.4-0.4-0.7-0.6-1.1C641.4,106.7,641.8,106.6,642.3,106.6
		L642.3,106.6z"/>
	<path class="st0" d="M753.4,142.4c-0.3,0.4-0.6,0.9-0.9,1.3c0-0.4,0-0.8,0-1.2C752.9,142.5,753.2,142.4,753.4,142.4L753.4,142.4z"
		/>
	<path class="st0" d="M793.4,112.1c-0.4,0.3-0.8,0.5-1.2,0.9c0.2-0.4,0.3-0.8,0.4-1.2C792.9,111.9,793.2,112.1,793.4,112.1z"/>
	<path class="st0" d="M611.9,29.7c-0.5,0-1,0.1-1.6,0.1C610.8,29.8,611.3,29.7,611.9,29.7z"/>
	<path d="M866.2,98.1c-0.1,0.2-0.2,0.3-0.3,0.5c-0.1-0.1-0.2-0.2-0.2-0.2c0-0.2,0.2-0.3,0.2-0.5C866,97.9,866.1,98,866.2,98.1z"/>
	<path class="st1" d="M841,109.5c8.9,0.5,13.4,3.6,15.5,11.1c1.3,4.7-0.7,10.6-5.5,13.7c1.1-2.4,1.8-3.8,2.4-5.3
		c2.4-6,0.8-10.2-4.8-13.5c-7.1-4.1-13.3-0.5-18.2,5.5c-4.2,5.1-5,11.3-5.6,17.6c-0.5,5.8-1.6,11.7-1.3,17.4
		c0.3,5.2,1.8,10.4,3.5,15.4c0.8,2.4,0.1,2.4-1.6,2.4c-4.4-0.2-8.8-0.5-13.2-0.8c-3.8-0.2-6.5-2.4-8.6-5.4l0.2-0.2
		c-0.1-1-0.2-2-0.2-3.1c-0.2-2.4-0.6-4.9-0.5-7.3c0.1-5.7,0.4-11.4,0.7-17.2c0.1-0.9,0.4-2,0.7-2.9h0.4h0.4c0.1,1.6,0.2,3.1,0.2,5.8
		c1.7-6.3,3.1-11.5,4.5-16.8c1.6-3.1,3.4-6.1,4.9-9.2c0.5-1.1,0.4-2.5,0.5-3.8c0.2-0.4,0.3-0.8,0.5-1.2c1.1-0.9,2.4-1.5,3.2-2.6
		c0.9-1,1.3-2.4,1.9-3.6c-1.6,4.9-3.4,9.8-5,14.7c-0.5,1.6-0.9,3.1-1.3,4.8c-0.2,1.3-0.5,2.6-0.8,3.9c-0.2,1.1-0.5,2.1-0.7,3.2
		c0.2,1.3,0.5,2.7,0.8,4.1v6.9c0.2,0,0.4,0,0.6,0c0.6-4.2,1.3-8.3,1.9-12.5c0-0.2,0-0.5,0.1-0.7c0.5-1.1,0.9-2.1,1.4-3.2
		c2.1-4.2,4.2-8.4,6.5-12.5c0.7-1.2,2.4-1.7,3.6-2.5c-0.2,0.7-0.3,1.5-0.7,2.1c-7.8,10.5-11.1,22.5-10.7,35.4
		c0.2,5.3,0.8,10.7,4.2,15.2c0.4-6.1,0.3-12.1,0.4-18.2c0.1-10.7,3.5-20.5,10-29C833.5,113.9,836.1,110.2,841,109.5L841,109.5z
		 M814.4,146.1c-0.3,0-0.6-0.1-1-0.1v6.3h0.3C813.9,150.3,814.2,148.2,814.4,146.1z"/>
	<path class="st2" d="M671.3,149.4c0.2-1.1,0.9-2.4,0.5-3.2c-8-14.4,1.8-33,13.6-38.6c7.7-3.6,17.2-1.3,19.8,8
		c1,3.7,0.3,6.9-2.7,9.5l-0.1-0.1c0-0.4-0.1-0.8,0.1-1.2c1.5-4.6,1.2-8.9-3-11.9c-4.4-3.2-11.1-2.9-15.3,0.5
		c-7,5.5-12.9,21.2-6.2,30.7c2.6,3.7,4.2,8.1,6.8,11.8c9.2,12.8,20.1,12.8,31.3,3.6c7.4-6,10.3-14.8,12.8-23.7c0.3-1,0.5-2,0.9-3
		c0.1-0.2,0.3-0.3,0.5-0.5c2.4,15.5-4.6,26.8-16.6,35.6c-2.4,1.7-5.7,2.4-8.7,2.6c-5.3,0.4-10.7,0.1-16,0.1c-0.7-0.5-1.5-1-2.3-1.5
		C679.9,163.5,674.2,157.6,671.3,149.4L671.3,149.4z"/>
	<path class="st3" d="M882.1,126.6c0.9,2.6,1.6,5.2,2.5,7.8c2.3,6.5,4.2,12.9,0.4,19.5c-2.7,4.9-7.1,7.5-12.1,9.5
		c-5.9,2.4-11.4,5.1-15.2,10.5c-0.7,1-3,1.2-4.5,1.3c-1.8,0.1-3.6-0.5-5.4-0.5c-11.4-0.2-21.2-9.8-21.5-21.3
		c-0.1-3.4,0-6.8,0.5-10.3c2.4,7.4,5.6,13.9,11.8,18.5c11.1,8.4,23.5,6.6,31.5-5c5.4-7.9,8.2-16.8,8.7-26.3c0.2-2.4,0.2-4.9,0.3-7.4
		C880.1,124.1,881.1,125.3,882.1,126.6L882.1,126.6z"/>
	<path class="st4" d="M798,162.2c-0.4-5.6-0.9-11.1-1.4-17.6c-1.8,8.5-3.2,16.1,0.4,23.7c1.4,2.8,0.5,3.3-2.1,3.1
		c-6.2-0.4-12.5-0.6-18.7-0.9c-0.7-0.1-1.4-0.4-2.1-0.6c0.4-0.6,0.6-1.3,1.1-1.9c2.1-2.4,4.4-4.8,6.4-7.3c0.8-0.9,1.1-2.3,1.6-3.4
		c0.6-0.5,1.6-1,1.9-1.7c2.8-6.8,6.2-13.5,8.2-20.5c3.9-14.4,11.6-26.1,23-35.7c-0.9,2.7-1.6,5.4-2.7,8c-3,7-6.1,13.9-9.2,20.8
		c-1.8,7.8-3.6,15.7-5.5,23.5C798.7,155.3,798.3,158.8,798,162.2L798,162.2z"/>
	<path class="st5" d="M593.5,152.6c0,1.6,0.1,3.2,0.1,4.8c1.3,3.1,2.6,6.1,3.8,9.2c-2.7-0.2-5.4-0.6-8.2-0.6s-3.1-0.9-2-3.3
		c3.4-8,5.2-16.3,4.8-25c0.2-0.9,0.6-1.9,0.7-2.9c0.8-12.5-5.5-21.5-15-28.4c-8.6-6.3-18.1-6.7-27.5-1.5c-1.4,0.8-2.4,1.4-2.1-0.9
		c3.6-5.3,9.1-7.8,15.1-8.5c10-1.1,19.8,0,28.1,6.4c0.5,0.5,1.4,0.5,2.2,0.8c1,2.6,2.6,5.1,3.1,7.8c1.7,10.7,1.5,21.4-2,31.9
		C593.5,145.7,593.9,149.2,593.5,152.6L593.5,152.6z"/>
	<path class="st6" d="M632.7,137.7c0.8-1.2,1.9-2.3,2.4-3.5c3.8-8.5,7-17.4,11.3-25.6c2.4-4.5,6.5-8,10.2-11.6
		c3.2-3.1,6.9-5.9,9.6-8.2c-1,4.7-4.5,9.4-8.2,14.1c-5.6,7.2-11.2,14.3-15.9,22c-6,10-7.3,21.6-9.3,32.8c-0.4,2.1-1.3,4.1-1.9,6.2
		c-1.4-1.8-3.3-3.3-4.2-5.3c-5.7-13-3.6-25.8,1-38.6c2-5.6,4.2-11.1,3-17.3c-0.7-3.8-0.1-7.9-0.1-11.9c2.8,7.1,4.2,14.6,3.1,22.1
		c-0.9,7.1-3,14-4.3,21c-1,5.4-1.3,10.8,0.9,17.2C631.2,145.7,631.9,141.7,632.7,137.7L632.7,137.7z"/>
	<path class="st7" d="M767.5,169.7c-2.3-0.1-4.5-0.2-6.7-0.2l-0.2-0.1c0.8-0.9,1.5-1.8,2.3-2.7c1.6-2,3.9-3.7,4.9-6
		c6.9-16,13.2-32.2,11.5-50c-0.9-9.6-4.5-18.7-9.4-27l0,0c-0.2-0.5-0.5-1.1-0.7-1.6c-2.6-7.8-5.2-15.6-7.8-23.4c0.5,0,1,0,1.6-0.1
		c4.8,9.1,9.4,18.3,14.5,27.3c8.4,14.8,9.3,30.3,5.1,46.5c-1.7,6.5-3.7,13-5.6,19.5h0.1c-0.3,0.5-0.5,1-0.8,1.6
		C773.2,158.8,770.4,164.3,767.5,169.7L767.5,169.7z"/>
	<path class="st5" d="M646.9,169c-2.9-2.6-4-5.8-4-9.6c-0.1-16,4.5-30.6,12.9-44.2c3.9-6.4,7.7-12.9,11.5-19.2
		c0.4,0.2,0.8,0.3,1.2,0.5c-1.9,5-3.8,10-5.6,15c-2.5,6.7-6,13.2-7.4,20.1c-1.5,7.4-1.5,15.1-1.5,22.7c0,5.8,3.2,10.6,7,14.9
		c-1.8,0.1-3.6,0.2-5.3,0.2c-2.7-0.1-5.3-0.1-7.9-0.1C647.5,169.1,647.2,169,646.9,169L646.9,169z"/>
	<path class="st8" d="M769.8,83.8c4.9,8.4,8.5,17.4,9.4,27c1.7,17.9-4.6,34.1-11.5,50c-0.9,2.3-3.2,4-4.9,6
		c-2.4-0.8-3.4-2.3-3.1-4.9c0.3-2.8,0.2-5.6,0.2-8.5c0.1-0.2,0.2-0.4,0.2-0.6c0.2-0.5,0.5-1,0.8-1.6c1.5-3.8,2.8-7.8,4.5-11.5
		c5.9-12.9,10.6-26.2,7.5-40.7c-0.7-3.2,0.5-7.5-3.8-9.4c0.1-0.2,0.2-0.4,0.2-0.6C769.5,87.2,769.7,85.5,769.8,83.8L769.8,83.8z"/>
	<path class="st9" d="M769.3,88.9c0,0.2-0.1,0.4-0.2,0.6c0,0.6-0.1,1.3,0.1,2c4.3,14.9,2.4,29.1-4.2,43c-2.4,5.2-3.6,11.1-5.3,16.5
		c-0.2,0.5-0.5,1-0.7,1.6c0,0.2-0.1,0.5,0,0.8c-1.8,5.6-2.6,11.1,1.6,16.1c0,0,0.1,0.1,0.2,0.1c-2.4,0.7-4.5,0.6-5.6-2
		c-0.2-0.5-0.5-1-0.7-1.6c-3.1-7-1.1-13.2,1.9-19.8c3-6.3,5.9-12.9,7.4-19.6c1.3-5.8,1.1-12,0.9-18c-0.4-8.5-1.4-17-2.4-25.5
		c-0.8-6.3-2-12.6-2.3-19.1L769.3,88.9L769.3,88.9z"/>
	<path class="st10" d="M841,109.5c-4.9,0.7-7.5,4.4-10.2,7.8c-6.4,8.5-9.9,18.2-10,29c-0.1,6,0,12.1-0.4,18.2
		c-3.4-4.5-4.1-10-4.2-15.2c-0.5-12.9,2.8-24.9,10.7-35.4c0.4-0.5,0.5-1.4,0.7-2.1l0.2-0.2c0.2-0.2,0.5-0.4,0.7-0.6l0.1-0.1
		c0.2-0.2,0.5-0.5,0.8-0.6c6.3-4.9,13.3-6,21-4.8c3.9,0.6,6.7,2.7,8.8,5.8c4.4,6.7,4.3,16.2-0.4,21.1c-0.9,0.9-2.3,1.4-3.4,2.1l0,0
		c2.4-4.8,4.4-9.6,3.1-15.3C857,112.7,848.4,105.4,841,109.5z"/>
	<path class="st11" d="M671.1,169.6c-1.3-0.2-2.5-0.4-3.8-0.5c-5.8-7.8-7.7-16.7-6.9-26.2c0.1-1.5,0.9-2.9,1.4-4.3
		c3.9-9.6,7.4-19.5,11.9-28.8c4.2-8.5,18.5-12.7,27.2-9.1c9.1,3.8,13,19.4,6.6,26.8c-1.6,1.9-4.2,3.1-6.4,4.1c2-3.2,4.5-6.2,5.8-9.6
		c1.7-4.9,0.9-9.9-3-13.7c-4.8-4.6-10.9-5.5-16.8-3.6c-4,1.3-8,4-10.9,7.1c-6,6.6-9.4,14.7-10,23.7c-0.5,5.6-2.2,11.3-1.3,16.6
		C666,158,668.9,163.7,671.1,169.6L671.1,169.6z"/>
	<path class="st12" d="M625.1,119.1c-0.5,1.7-1.1,3.5-1.7,5.3c-0.2,0.5-0.5,1.1-0.7,1.6l0,0c-0.3,0.4-0.7,0.8-0.9,1.2
		c-4.3,10.1-6.2,20.8-6.3,31.7c-3.4-4.9-2.8-10.4-1.6-15.8c1.1-4.7,2.4-9.4,4.3-13.7c6.2-14.2,4-27.9-1.4-41.7
		c-3.2-8.3-6.2-16.9-8.5-25.5c-1.7-6.3-0.8-12.9,2.8-19.8c0.7,3,1.2,5.2,1.6,7.4c-1.5,13.2,1.5,25.6,7.3,37.4
		c4.7,9.6,8.4,19.4,4.9,30.3C624.9,118,625,118.6,625.1,119.1L625.1,119.1z"/>
	<path class="st7" d="M685.5,150.9c14.3,6.6,23-0.2,29.2-9.3c6.3-9.3,10.4-19.5,10.5-31.4c0.6,1.3,1.2,2.6,1.8,3.9
		c0,2.6-0.2,5.3,0,7.8c0.5,7.7-1.5,14.7-5.2,21.3c-4.5,8.1-10.5,14.3-20.3,15.3c-3.3,0.3-6.7-0.1-10-0.2c-2-2.4-4.2-4.8-6.2-7.2
		C685.3,151.1,685.4,150.9,685.5,150.9z"/>
	<path class="st8" d="M625.1,119.1c0-0.5-0.2-1.1-0.1-1.6c3.4-11-0.3-20.7-4.9-30.3c-5.8-11.8-8.8-24.1-7.3-37.4
		c5.1,13.1,13,25,15,39.3C629.2,99.4,630,109.5,625.1,119.1L625.1,119.1z"/>
	<path class="st4" d="M736.8,169.2c-1.6-0.9-4.9,2.1-4.9-2.3c1.2-2.1,2.4-4.3,3.6-6.4c4.9-13.5,4.5-26.8-1.2-40.1
		c-1.4-3.3-2.7-6.7-3.4-10.7c2.6,3.5,5.2,7.1,7.8,10.5c0.8,2.2,1.6,4.3,2.3,6.5c3.8,14.2,7,28.3-3.8,41.1
		C736.9,168.3,736.9,168.8,736.8,169.2L736.8,169.2z"/>
	<path class="st2" d="M548.2,104.1c-0.2,2.4,0.7,1.7,2.1,0.9c9.5-5.3,18.9-4.9,27.5,1.5c9.5,6.9,15.8,15.8,15,28.3
		c-0.1,0.9-0.5,2-0.7,2.9c-1.9-5.3-3.2-11-5.8-15.9c-3.5-6.8-8.1-13-16.2-15.4c-9.7-2.9-21.5,1.4-23.7,12.7
		c-0.1,0.6-0.5,1.2-0.9,1.8C542,115.7,543.1,109.1,548.2,104.1L548.2,104.1z"/>
	<path class="st8" d="M671.1,169.6c-2.1-5.9-5.2-11.6-6-17.7c-0.8-5.3,0.8-11.1,1.3-16.6c1.6,4.7,3.2,9.4,4.9,14.1
		c2.9,8.2,8.7,14,15.7,18.8c0.7,0.5,1.5,1,2.3,1.5C683.1,169.7,677.1,169.7,671.1,169.6L671.1,169.6z"/>
	<path class="st13" d="M730.7,166.7c-3.7,4.6-8.8,2.7-13.5,3c-0.3,0-1.1-0.7-1-0.8c0.3-0.5,0.7-1.1,1.1-1.5c2.4-2.4,5-4.5,7.1-7.2
		c8-10.3,10.2-21.9,8.2-34.6c-0.2-0.9-0.2-1.8,0.2-2.7c5.1,12.1,4.9,24.4,1.3,36.8C732.9,162.1,731.8,164.3,730.7,166.7L730.7,166.7
		z"/>
	<path class="st2" d="M661.8,138.6c-0.5,1.4-1.3,2.8-1.4,4.3c-0.7,9.5,1.1,18.4,6.9,26.2c-3,0.5-4.8-0.9-6.4-3.3
		c-6.6-9.5-6.9-20-4-30.3c3.1-10.7,7.7-20.9,11.5-31.4c1.3-3.5,2.3-7.1,3.4-10.7c0.9,5.3-0.5,10.4-2.5,15.4
		c-2.3,5.6-5.2,11.1-6.7,17C661.4,129.8,662,134.2,661.8,138.6L661.8,138.6z"/>
	<path class="st14" d="M593.5,152.6c0.3-3.4,0.1-7,1.1-10.1c3.5-10.5,3.8-21.2,2-31.9c-0.5-2.7-2-5.3-3.1-7.8
		c-3.4-7.6-10.6-9.5-17.6-11.1c-4-0.9-8.2-0.8-12.3-1.1c6.6-2.5,13.2-1.3,19.4,0.9c11.8,4.1,16.5,13.6,18.4,25
		c0.5,3.4,1.4,6.7,2.2,10.1C600.3,135.3,596.9,144,593.5,152.6L593.5,152.6z"/>
	<path class="st15" d="M557.5,164.8c8.4-4.6,14.6-11.3,18.5-19.9c3.5-7.9,4.9-16.1,2.5-24.7c-0.2-0.6,0.1-1.3,0.1-2
		c0.6,0.4,1.6,0.7,1.7,1.3c1.1,3.6,2.6,7.1,3,10.8c1.3,11.2-3.7,20.2-10,29.2C569,165.7,563.6,165.3,557.5,164.8L557.5,164.8z"/>
	<path class="st9" d="M884.6,120c8.1,6.7,12.5,15,14.3,24.8c1.5,7.9,1.9,16-0.3,24c-1.8,6.6-2.8,7.3-10,6.3
		C897.5,156,898.7,137.4,884.6,120L884.6,120z"/>
	<path class="st2" d="M816.3,99.5c-11.4,9.6-19,21.2-23,35.7c-2,7.1-5.3,13.7-8.2,20.5c-0.3,0.7-1.3,1.2-1.9,1.7
		c3.6-12.1,7.1-24.2,11-36.3c2.4-7.5,8-12.9,13.4-18.3c3.5-3.5,6.7-7.5,10-11.2c-0.2,2.4-0.5,4.7-0.8,7.1
		C816.7,98.8,816.4,99.1,816.3,99.5L816.3,99.5L816.3,99.5z"/>
	<path class="st16" d="M615.8,98.5c3,7.8,3,15.8,0.6,23.7c-2.4,8-4.9,15.9-7.4,23.8c-1.9,6.1-2.2,12.2,0.2,18.3
		c0.2,0.6,0.1,1.4,0.1,2.1c-0.7-0.2-1.6-0.3-2-0.8c-4.5-4.2-5.9-9.6-4.5-15.3c1.1-4.8,3.1-9.4,4.5-14.1c1-3.2,1.8-6.4,2.8-9.6
		c0.2-0.8,0.9-1.4,1.5-2.1c0.8-1.6,2.1-3.1,2.3-4.7C614.7,112.8,615.3,105.6,615.8,98.5L615.8,98.5z"/>
	<path class="st9" d="M838.2,157.3c14,6,21.2-1.6,27.6-9.9c4.9-6.3,8.7-13.2,10.7-21.2c-0.1,1.4-0.1,2.8-0.2,4.2
		c-0.2,1.6-0.5,3.3-0.9,4.9c-0.3,1.5-0.5,3.1-1.2,4.5c-2.7,6-4.7,12.5-8.3,17.9C859.9,166.9,842.2,165,838.2,157.3L838.2,157.3
		L838.2,157.3z"/>
	<path class="st17" d="M882.1,126.6c-0.9-1.3-2-2.5-2.9-3.8c-0.2-1.5-0.3-3.1-0.5-4.9c16.5,16.4,17.4,34.8,8.8,53.8
		c-1,2.3-2.6,4-5.6,3.8c-4.5-0.2-4.5,0.1-3.4-4.2v-0.1c2.8-2.7,5.6-5.5,8.5-8.2c0.2-0.2,0.5-0.9,0.4-1c-3.3-2.3,0-4.2,0.6-5.9
		C891.8,145.1,888.2,135.6,882.1,126.6L882.1,126.6z"/>
	<path class="st18" d="M632.7,137.7c-0.7,4-1.5,8-2.4,13.2c-2.1-6.3-1.8-11.8-0.9-17.2c1.3-7.1,3.4-14,4.3-21c1-7.5-0.3-15-3.1-22.1
		c-0.3-2.1-0.6-4.2-0.9-6.3c0.3,0.1,0.5,0.1,0.9,0.2c4.6,9.7,8.5,19.6,6.3,30.7C635.4,122.6,634.1,130.2,632.7,137.7L632.7,137.7z"
		/>
	<path class="st4" d="M615.6,158.9c0.2-11,2-21.6,6.3-31.7c0.2-0.5,0.5-0.8,0.9-1.2c-0.5,5.4-1.4,10.7-1.6,16.1
		c-0.5,9.6,2.4,18.1,8.9,25.3C623.5,169.3,618.2,166.1,615.6,158.9z"/>
	<path class="st11" d="M603.7,126.6c-0.7-3.4-1.6-6.7-2.2-10.1c-1.9-11.4-6.6-20.9-18.4-25.1c-6.3-2.2-12.9-3.4-19.4-0.9
		c-0.7,0.1-1.4,0.2-2.1,0.3c-0.4,0.2-0.7,0.3-1,0.5c-3,1.3-5.9,2.4-8.9,3.7c-0.2-0.2-0.3-0.3-0.5-0.5c17.4-14.3,37.1-9.6,48.8,8.9
		C604.6,110.7,605.7,118.3,603.7,126.6L603.7,126.6z"/>
	<path class="st9" d="M767.5,169.7c2.9-5.5,5.8-11,8.7-16.5c0.3-0.5,0.5-1,0.8-1.6h-0.1c1.3-2.4,3-4.8,3.8-7.4
		c3.1-9.6,6.3-19.2,6.5-29.4h0.4h0.4c0.3,14.3-1.4,28.2-7.3,41.2c-2.3,5-6.9,8.9-10.6,13.2C769.7,170,768.3,169.7,767.5,169.7
		L767.5,169.7z"/>
	<path class="st7" d="M736.8,169.2c0.1-0.4,0.1-0.9,0.3-1.1c10.8-12.9,7.7-27,3.8-41.1c-0.6-2.2-1.5-4.4-2.3-6.5
		c2.7,5.2,6.5,10.1,8,15.7c2.3,8.2,2.7,17-0.2,25.4C744.4,167.3,741.8,169.3,736.8,169.2L736.8,169.2z"/>
	<path class="st4" d="M691.4,158.3c3.4,0.1,6.7,0.5,10,0.2c9.7-1,15.8-7.2,20.3-15.3c3.7-6.6,5.6-13.6,5.2-21.3
		c-0.2-2.6,0-5.2,0-7.8c0.7,1.3,1.5,2.7,2.2,4.1c0,0.5,0.1,1,0.1,1.6c-0.2,2.1-0.4,4.2-0.6,6.3c-0.1,0.8-0.2,1.6-0.2,2.4
		c-1.7,7.9-3.9,15.5-8.4,22.4c-5.3,8-13.7,12.9-21.4,11.2C696.1,161.4,693.8,159.6,691.4,158.3L691.4,158.3z"/>
	<path class="st9" d="M588.8,132c0.2,4.3,1.3,8.8,0.6,12.9c-0.9,6-3.1,11.8-4.7,17.6c-0.7,2.6-1.8,3.9-4.7,2.7
		c-0.8-0.3-1.8,0-2.7-0.2c-0.7-0.1-1.4-0.4-2.1-0.6c0.3-0.6,0.6-1.3,1-2c3.2-5.7,7-11.3,9.6-17.2c1.7-4,1.8-8.6,2.7-13L588.8,132
		L588.8,132z"/>
	<path class="st11" d="M816.9,98.6c0.2-2.4,0.5-4.7,0.8-7.1c0.7-2.4,1.4-4.7,2.3-7.6c2.7,4.5,0.8,8.9,0.8,13.1
		c-1.6,4.9-3.4,9.9-5,14.8c-0.2,0.4-0.3,0.8-0.5,1.2c-3.3,5.5-6.6,11-9.9,16.4c-0.3-0.4-0.6-0.8-1-1.1c3.1-7,6.3-13.9,9.2-20.8
		c1.1-2.6,1.7-5.3,2.7-8v-0.1C816.4,99.1,816.7,98.8,816.9,98.6L816.9,98.6z"/>
	<path class="st19" d="M615.8,98.5c-0.6,7.1-1.1,14.3-2,21.4c-0.2,1.6-1.5,3.1-2.3,4.7c-0.1-0.8-0.2-1.6-0.1-2.4
		c3.4-14.4,2.7-28.3-4.2-41.7c-3.1-6-4.3-12.5-4.2-19.3c0.5,0.1,0.9,0.1,1.3,0.2c2.2,7.7,4.4,15.4,6.7,23.1
		C612.7,89.2,614.3,93.8,615.8,98.5L615.8,98.5z"/>
	<path class="st20" d="M641.4,168.9c-0.9-1.8-2.6-3.4-2.8-5.3c-1.6-16.4,2.3-31.5,12.4-44.8c-0.5,1.2-0.9,2.4-1.5,3.4
		c-6,11.9-8.8,24.5-8.2,37.8c0.2,3,0.6,6,0.9,9C642,169,641.7,168.9,641.4,168.9z"/>
	<path class="st14" d="M597.5,166.6c-1.3-3.1-2.6-6.1-3.8-9.2c1.3-2,2.7-3.9,3.7-5.5c1.5,4.9,3,9.8,4.5,14.7L597.5,166.6
		L597.5,166.6z"/>
	<path class="st15" d="M798,162.2c0.3-3.4,0.6-6.9,0.9-10.3c3.1,1.6,0.5,4,0.8,6c-0.2,1-0.9,2.2-0.5,3.1c1,2.6,2.4,5,3.6,7.5
		c0.5,1,1,2,1.6,3.1C799.4,170.3,798.9,166.1,798,162.2L798,162.2z"/>
	<path class="st21" d="M815.7,111.8c1.6-4.9,3.4-9.9,5-14.8c5.3,1.4,0.9,4.2,0.9,6.3c-0.2,0.2-0.5,0.5-0.8,0.8c0,0.5,0,1.1,0,1.6
		c-0.6,1.3-1,2.6-1.9,3.6C818.1,110.3,816.8,111,815.7,111.8L815.7,111.8z"/>
	<path class="st1" d="M758.7,82.2c-0.7-4-1.3-8-2-12c0.4-0.1,0.8-0.2,1.3-0.2c0.7,4.1,1.5,8.1,2.2,12.1
		C759.6,82.1,759.2,82.2,758.7,82.2L758.7,82.2z"/>
	<path class="st0" d="M802.7,168.4c-1.3-2.5-2.6-4.9-3.6-7.5c-0.3-0.8,0.4-2,0.5-3.1c0.9,2.2,1.7,4.3,2.5,6.5c0.5,1,1,2,1.5,3.1
		l-0.2,0.2C803.3,167.8,803,168.1,802.7,168.4L802.7,168.4z"/>
	<path class="st21" d="M730.7,166.7c1.1-2.4,2.2-4.7,3.3-7c0.5,0.2,1,0.5,1.5,0.8c-1.2,2.1-2.4,4.3-3.6,6.4
		C731.5,166.8,731.1,166.8,730.7,166.7z"/>
	<path class="st21" d="M758.2,59.5c0.2,0.2,0.5,0.5,0.8,0.8c0,0.5,0,1,0,1.6c-0.2,1-0.5,2.1-0.8,3.1h-1.6v-5.5
		C757.1,59.5,757.7,59.5,758.2,59.5z"/>
	<path class="st21" d="M817.5,126.8c-0.5,1.1-0.9,2.1-1.4,3.2c-0.8-0.3-1.6-0.5-2.4-0.9l-0.1-0.1c0.2-1.3,0.5-2.6,0.8-3.9
		C815.5,125.7,816.5,126.2,817.5,126.8L817.5,126.8z"/>
	<path class="st21" d="M752.7,165.9c-0.9-1.3-2-2.7-2.9-3.9c0.3-0.2,0.6-0.4,0.9-0.6C751.3,162.9,752,164.4,752.7,165.9L752.7,165.9
		L752.7,165.9z"/>
	<path class="st9" d="M880.7,114.2c1,1.3,2,2.6,3.1,3.9l-1,0.8c-1-1.3-2.1-2.5-3.1-3.8L880.7,114.2L880.7,114.2z"/>
	<path class="st21" d="M728.4,128.4c0.1-0.8,0.2-1.6,0.2-2.4c0.9,0.6,2,1.3,2.9,1.8C730.4,128,729.4,128.2,728.4,128.4L728.4,128.4z
		"/>
	<path class="st21" d="M757.4,54.8c0-0.2-0.1-0.3,0-0.4c0.5-0.9,0.9-1.8,1.4-2.7c0.5,0.3,1,0.5,1.6,0.8c-0.7,0.8-1.4,1.5-2.1,2.3
		C757.9,54.8,757.7,54.8,757.4,54.8L757.4,54.8z"/>
	<path class="st0" d="M762.9,58.6c-0.5,0-1,0-1.6,0.1c-0.2-1-0.5-2-0.6-3.1c0-0.1,0.5-0.2,0.9-0.4C762.1,56.3,762.4,57.5,762.9,58.6
		L762.9,58.6z"/>
	<path class="st22" d="M757.4,54.8c0.2,0,0.5,0,0.8,0v4.7c-0.5,0-1,0-1.6,0C756.9,57.8,757.1,56.3,757.4,54.8z"/>
	<path class="st0" d="M630.5,84.4c-0.3-0.1-0.5-0.1-0.9-0.2c-0.7-1.3-1.4-2.6-2.1-3.8c0.3-0.2,0.6-0.3,0.9-0.5
		C629.1,81.4,629.8,82.9,630.5,84.4z"/>
	<path class="st0" d="M655.6,169.3c1.8-0.1,3.6-0.2,5.3-0.2c-0.1,0.5-0.1,0.9-0.1,1.3C659.1,170.1,657.4,169.7,655.6,169.3
		L655.6,169.3z"/>
	<path class="st0" d="M604.5,61.4c-0.5-0.1-0.9-0.1-1.3-0.2c0.1-0.9,0.1-1.9,0.2-2.8c0.3,0,0.6-0.1,0.9-0.1
		C604.3,59.3,604.4,60.3,604.5,61.4L604.5,61.4z"/>
	<path class="st21" d="M729.2,119.7c0-0.5-0.1-1-0.1-1.6c0.9,0.2,1.8,0.5,2.7,0.7C730.9,119.2,730.1,119.4,729.2,119.7L729.2,119.7z
		"/>
	<path class="st22" d="M761.3,85.3c-0.2,0.9-0.5,1.8-0.7,2.7c-0.2-0.1-0.6-0.2-0.6-0.2c0.2-0.9,0.3-1.6,0.5-2.5
		C760.8,85.3,761,85.3,761.3,85.3L761.3,85.3z"/>
	<path class="st21" d="M761.3,85.3c-0.2,0-0.5,0-0.8,0c-0.4-0.2-0.8-0.5-1.3-0.7c0.2-0.2,0.5-0.5,0.7-0.7
		C760.4,84.3,760.9,84.8,761.3,85.3z"/>
	<path class="st22" d="M787.9,115h-0.4h-0.3c-0.2-0.5-0.4-1.1-0.5-1.6c0-0.1,0.4-0.2,0.6-0.3C787.4,113.7,787.7,114.4,787.9,115
		L787.9,115z"/>
	<path class="st21" d="M754.3,165.9c0.2,0.5,0.5,1,0.7,1.6c-0.8-0.5-1.6-1-2.4-1.6l0,0C753.2,165.9,753.7,165.9,754.3,165.9
		L754.3,165.9z"/>
	<path class="st22" d="M756.6,64.9h1.6c-0.3,0.6-0.6,1.3-0.9,2C757,66.2,756.8,65.6,756.6,64.9z"/>
	<path class="st22" d="M759,61.7c0-0.5,0-1,0-1.6c0.5,0.4,1,0.9,1.5,1.3C759.9,61.6,759.5,61.7,759,61.7z"/>
	<path class="st0" d="M855.4,134.6c-0.3,0.4-0.6,0.9-0.9,1.3l-0.2-0.2C854.5,135.2,855,134.9,855.4,134.6L855.4,134.6L855.4,134.6z"
		/>
	<path class="st21" d="M634.1,164.2c-0.1,0.2-0.2,0.5-0.3,0.6c-0.2-0.1-0.5-0.2-0.6-0.3s0.2-0.4,0.2-0.6
		C633.6,163.9,633.8,164.1,634.1,164.2L634.1,164.2z"/>
	<path class="st0" d="M653.7,113c0.2,0.1,0.5,0.2,0.6,0.3c-0.1,0.2-0.2,0.5-0.3,0.6c-0.2,0.1-0.4-0.2-0.6-0.2
		C653.6,113.5,653.7,113.2,653.7,113L653.7,113z"/>
	<path class="st0" d="M545.7,99.6c0.2,0.2,0.3,0.2,0.4,0.4c0,0-0.2,0.3-0.2,0.3c-0.2,0-0.4-0.1-0.6-0.2
		C545.4,100,545.6,99.8,545.7,99.6z"/>
	<path class="st0" d="M878.4,171.3L878.4,171.3c-0.4-0.1-0.9-0.2-1.3-0.3l0.4-0.5C877.7,170.7,878.1,171,878.4,171.3L878.4,171.3z"
		/>
	<path class="st4" d="M622.7,126c0.2-0.5,0.5-1.1,0.7-1.6C623.2,124.9,622.9,125.5,622.7,126z"/>
	<path class="st8" d="M769.2,82.1c0.2,0.5,0.5,1.1,0.7,1.6C769.6,83.2,769.3,82.7,769.2,82.1z"/>
	<path class="st0" d="M652.1,117.6c-0.1,0-0.3-0.1-0.3-0.1c0-0.1,0.1-0.2,0.1-0.3c0.1,0,0.3,0.1,0.3,0.1
		C652.2,117.4,652.2,117.5,652.1,117.6z"/>
	<path class="st0" d="M577.9,116.4c-0.1-0.1-0.2-0.2-0.2-0.2c0.1-0.1,0.2-0.2,0.3-0.2s0.2,0.2,0.2,0.2
		C578.2,116.3,578,116.4,577.9,116.4z"/>
	<path class="st11" d="M550.7,95.7c-0.5,0.1-0.9,0.2-1.3,0.3c0.3-0.2,0.6-0.5,0.9-0.8C550.5,95.4,550.7,95.5,550.7,95.7L550.7,95.7z
		"/>
	<path class="st9" d="M838,157.4c-0.3-0.2-0.7-0.2-1-0.4c0.1-0.1,0.2-0.3,0.2-0.3c0.3,0.2,0.6,0.3,0.9,0.5L838,157.4L838,157.4z"/>
	<path class="st22" d="M820.8,104.1c0.2-0.2,0.5-0.5,0.8-0.8C821.4,103.5,821.2,103.8,820.8,104.1z"/>
	<path class="st7" d="M685.2,151.2c-0.2-0.2-0.3-0.3-0.5-0.5c0.2,0.1,0.5,0.1,0.7,0.2C685.4,150.9,685.3,151.1,685.2,151.2
		L685.2,151.2z"/>
	<path class="st1" d="M828.5,111c-0.2,0.2-0.5,0.4-0.7,0.6C828,111.4,828.3,111.3,828.5,111z"/>
	<path class="st1" d="M829.5,110.3c-0.2,0.2-0.5,0.5-0.8,0.6C828.9,110.7,829.1,110.5,829.5,110.3z"/>
	<path class="st1" d="M850.6,135.4c-0.2,0.1-0.2,0.2-0.4,0.3L850.6,135.4L850.6,135.4L850.6,135.4z"/>
	<path class="st0" d="M641.4,168.9c0.3,0,0.5,0.1,0.9,0.1C642,169,641.7,168.9,641.4,168.9z"/>
	<path class="st0" d="M646.9,169c0.2,0.1,0.5,0.1,0.7,0.2C647.5,169.1,647.2,169,646.9,169z"/>
	<path class="st11" d="M551.7,95.1c-0.3,0.2-0.6,0.5-0.9,0.6c-0.2-0.2-0.3-0.3-0.4-0.5c0.3-0.2,0.5-0.5,0.9-0.7
		C551.4,94.7,551.5,94.9,551.7,95.1z"/>
	<path class="st1" d="M850.6,135.3c0.1-0.1,0.2-0.2,0.4-0.3C850.9,135.2,850.8,135.3,850.6,135.3L850.6,135.3L850.6,135.3z"/>
	<path class="st14" d="M560.5,91.4c0.4-0.2,0.7-0.3,1-0.5C561.2,91.1,560.9,91.2,560.5,91.4z"/>
	<path class="st2" d="M702.6,125.2c-0.1,0.1-0.2,0.2-0.3,0.3C702.3,125.5,702.4,125.3,702.6,125.2L702.6,125.2z"/>
	<path class="st7" d="M802.3,164.3c-0.9-2.2-1.7-4.3-2.5-6.5c-0.3-2,2.3-4.4-0.8-6c1.8-7.8,3.6-15.7,5.5-23.5
		c0.3,0.4,0.6,0.8,0.9,1.1c-0.3,2.5-0.6,5-1,7.5c-0.2,0.9-0.6,2-0.7,2.9c-0.3,5.7-0.6,11.4-0.7,17.2c-0.1,2.4,0.4,4.9,0.5,7.3
		C803.1,164.3,802.7,164.3,802.3,164.3L802.3,164.3z"/>
	<path class="st0" d="M804.4,137c0.3-2.5,0.6-5,1-7.5c3.3-5.5,6.6-11,9.9-16.4c-0.2,1.3-0.1,2.7-0.5,3.8c-1.5,3.1-3.2,6.1-4.9,9.2
		c-1.6,3.7-3.2,7.3-4.8,11h-0.4L804.4,137L804.4,137z"/>
	<path class="st20" d="M805.1,136.9c1.6-3.6,3.2-7.3,4.8-11c-1.4,5.2-2.8,10.4-4.5,16.8C805.2,140,805.2,138.5,805.1,136.9
		L805.1,136.9z"/>
	<path class="st21" d="M813,132.2c0.2-1.1,0.5-2.1,0.7-3.2l0.1,0.1c0.8,0.5,1.6,1,2.4,1.6c-0.6,4.2-1.3,8.3-1.9,12.5
		c-0.2,0-0.4,0-0.6,0c0-2.3,0-4.6,0-6.9C814.3,134.8,815.8,133.1,813,132.2L813,132.2z"/>
	<path class="st22" d="M814.4,146.1c-0.2,2.1-0.5,4.2-0.7,6.3h-0.3v-6.3C813.7,146,814.1,146.1,814.4,146.1z"/>
	<path class="st22" d="M813,132.2c2.9,0.9,1.3,2.6,0.8,4.1C813.5,134.9,813.2,133.6,813,132.2z"/>
	<path class="st10" d="M802.3,164.3c0.4,0,0.9,0,1.3,0c0.1,1,0.2,2,0.2,3.1C803.3,166.4,802.8,165.4,802.3,164.3L802.3,164.3z"/>
	<path class="st22" d="M816.1,130.7c-0.8-0.5-1.6-1-2.4-1.6c0.8,0.3,1.6,0.5,2.4,0.9C816.2,130.2,816.2,130.5,816.1,130.7
		L816.1,130.7z"/>
	<path d="M760.6,169.4c-4.2-5-3.4-10.5-1.6-16.1c0.3,0,0.7,0,1,0c-0.1,2.8,0,5.6-0.2,8.5c-0.2,2.6,0.7,4.2,3.1,4.9
		C762.1,167.6,761.3,168.6,760.6,169.4L760.6,169.4z"/>
	<path d="M776.9,151.8c-0.3,0.5-0.5,1-0.8,1.6C776.4,152.8,776.7,152.3,776.9,151.8z"/>
	<path class="st21" d="M759.7,151c1.7-5.6,2.8-11.4,5.3-16.5c6.6-14,8.5-28.1,4.2-43c-0.2-0.6-0.1-1.3-0.1-2
		c4.4,1.9,3.1,6.2,3.8,9.4c3.1,14.5-1.6,27.7-7.5,40.7c-1.7,3.8-3.1,7.7-4.5,11.5C760.5,151.2,760.1,151.1,759.7,151L759.7,151z"/>
	<path d="M759.7,151c0.4,0.1,0.8,0.1,1.2,0.2c-0.2,0.5-0.5,1-0.8,1.6c-0.4-0.1-0.8-0.1-1.2-0.2C759.2,152.1,759.5,151.6,759.7,151
		L759.7,151z"/>
	<path class="st21" d="M759,152.6c0.4,0.1,0.8,0.1,1.2,0.2c-0.1,0.2-0.1,0.4-0.2,0.6c-0.3,0-0.7,0-1,0
		C759,153.1,759,152.9,759,152.6L759,152.6z"/>
	<path class="st4" d="M816.9,98.6c-0.2,0.3-0.5,0.5-0.7,0.9C816.4,99.1,816.7,98.8,816.9,98.6z"/>
</g>
<g id="Layer_1">
	<path d="M1400,50v236H0V60c2.8,0.1,5.3-1.8,8.2-1c1.8-1.5,4-0.8,6.1-1c2.2-0.2,4.4-1,6.6-0.9c5,0.1,10.1,0.6,15.1,0.9
		c1.6,1.8,4.1,0.5,7,1.9c-5.1,0.3-9.1-0.2-13.1,1.1c-4.4,1.4-8.8,2.7-11.8,6.6c-1.6,2.1-2.9,4.5-3.9,6.9s-1.8,5.1-2,7.6
		C11.7,87.5,9.6,92.4,8,97.6c0.5,0.5,1,1.1,1.6,1.8c1.6-0.8,2.9-1.5,4.3-2.2s2.8-1.4,3.7-1.9c0.6-2.7,1.1-4.8,1.7-7.3
		c1.3,1.3,2.4,2.4,3.4,3.4c6.4-5.8,9.4-11.8,10.8-26.1c0.3,1.2,0.2,2.4,0.6,3.5c1.2,3.3,1.7,6.7,1.9,10.2c0.3,3.2-1,6-1,9.1
		c0,2.6-1,4.9-1.7,7.3c-1.9,6.2-4.1,12.4-3.3,19.1c0,0.5,0.1,0.9,0.2,1.8c2.7,1.6,5.5,3.2,8.4,4.8c0.5-0.5,0.9-0.9,1.3-1.3
		c0.2-2.5-0.3-5.3,0.6-7.4c1.1-2.4-0.6-5.3,1.5-7.4c0.8-7,4.5-12.5,9.7-16.9c2-1.7,4.2-3.6,7.4-4.1c-6.1,11.1-5.6,14.2-4.6,26
		c5.5-1.4,10.3-5,16.5-5c0,2.3-0.2,4.3,0.1,6.2c0.2,1.8,0.4,3.9,1.2,5.5c2.6,4.6,2.8,4.5,2.7,6.8c-0.1,1.8,0.7,3.2,1.9,4.7
		c1.8-1.2,3.5-2.4,5.3-3.7c-0.5-2.4-0.8-5-1.6-7.3c-1.2-3.8-2.2-7.6-2.5-11.4c-0.3-4,0.5-8.1,0.9-12.1c0-0.3,0.5-0.5,0.6-0.8
		c2.1-7.1,5.9-13.2,10.7-18.5c5.3-5.9,10.7-11.8,17.5-16.2c0.1,0.5,0.3,0.9,0.2,1.1c-4.6,8.2-8.5,16.8-11.9,25.6
		c-2.5,6.4-4.7,12.9-5.1,19.9c0,0.8-0.2,1.6-0.5,2.3c-0.9,2.7-0.4,5.3-0.3,8.4c4.7-3.3,8.7-6.7,13.2-9.2c4.4-2.5,9.1-4.8,15.3-5.2
		c-1.4,1-2,1.5-2.7,1.9c-1.7,1.2-4,2-4.9,3.6c-3.1,5-4.5,7.8-2.1,14.8c1.9,5.5,4.5,10.6,8.3,14.6h8.2c1.1-1.1,2.1-1.9,2.9-2.9
		s1.4-2.1,2.1-3.1c4.8-6,10.4-16.2,12.6-24.3c1.4-5.4,2.9-10.7,2.7-16.3c-0.1-1.4,0.3-2.5,1.5-3c0.7,0.9,1.2,1.9,2,2.7
		c4.4,4,7.4,13.7,7.6,18.4c0.2,4.5,0.1,9,0,13.5c0,1.2,0,2.4-0.7,3.7c-0.9,1.8-0.9,4.2-1.3,6.3c2.1-1.5,3.3-3.5,5-5.1
		c3.5-3.4,7.1-6.8,10.9-9.9c3.4-2.7,7-5.3,11-7.1c3.9-1.7,8-3.2,12.1-4.6c0.6-0.2,1.3,0.2,2.2,0.3c-2.4,1.3-4.6,2.2-6.3,3.7
		c-3.2,2.8-6.4,5.6-8.8,9.2c-3,4.6-3.3,9.5-2.8,15.1c4.1-3.2,8.1-5.7,12.6-7.7c2.1-0.9,4.1-2.3,5.9-3.9c1.9-1.7,3.3-3.8,5-5.7
		c1.7,4.2,2,8.5,0.4,12.8c0.8,0,1.2,0.2,1.4,0.1c3.3-2.9,6.6-5.8,9.9-8.8c2.4-2.3,4.7-4.7,7.1-7c0.8-0.8,1.7-1.5,2.6-2.2
		c3-2.2,6.1-4.4,9-6.5c-0.8-2.3-1.5-4.3-2.3-6.3c-0.9-2.2-1.3-4.5-1.9-6.8c-1.4-6.2-1.1-12.2,1.4-17.2c1.8-3.6,5.2-5.9,7.8-8.8
		c0.3-0.4,1-0.4,1.5-0.5c0.3,0.4,0.4,0.6,0.4,0.7c0,0.3,0,0.7-0.1,0.9c-2,4.2-3,8.6-3,13.3c0,7.9,4,13.9,9,19.3
		c3.2,3.4,7.4,6.1,11.4,8.5c1.8,1.1,3.7,3.2,6.7,2c-0.4-1.6-0.4-3.4-1.1-4.8c-2.1-3.9-5-7.1-9.2-9.5c0.9-0.2,1.3-0.4,1.5-0.3
		c4.2,2,8.4,3.9,12.5,6c7,3.4,9.3,5.6,12.9,12c0.5-0.5,0.9-0.9,1.7-1.7c-0.4-1-1.2-2.1-1.2-3.3c0-2.7-1.2-4.5-2.9-6.4
		c-1.7-1.9-2.8-4.2-5.1-5.7c-3.1-2-6.1-4.3-9.8-6.9c3.6-0.3,6.1,0.9,8.2,2.2c3.3,2,6.7,4.1,9.9,6.4c5,3.6,8.5,8.1,11,13.5
		c1.9,3.9,3.2,8.2,2.5,12.8c4.4,0.2,8.4,0.4,12.3-1.5c-1.8-2.5-2.2-5.4-3.1-8c-0.9-2.7-0.2-5.9-0.2-8.2c1.9-5.2,5-8.5,10.5-10.6
		c-1,2.1-1.7,3.2-2,4.5c-0.5,1.9-2.2,3.9-1.4,5.8c1.1,2.4,1.2,5,2.5,7.5c1.7,3.1,4.1,5.6,5.6,8.4h10.4c0.8-2.8,1.8-5.4,1.3-8.2
		c0-0.3-0.1-0.7,0-1c2.1-3.9,0.6-8.1,0.9-12.1c0.1-1.2-0.9-2.7-1.6-3.8c-0.9-1.2-2-2.3-3.1-3.2c-4-3.1-8.1-6.1-12.2-9.2
		c-1.7-1.3-3.3-2.6-4.9-3.9c7.4,2,13.1,7,19.5,10.8c0.3-1.3,0.6-2.3,1-3.9c3.6,3.5,7.1,6.1,9.5,9.9c2.6,4.3,5.6,8.2,9.3,11.7
		c3.1,2.8,6.2,5.7,8.9,9.5c1.4-1.7,2.6-3.3,3.8-4.8c-0.4-0.5-1-0.8-1-1.2c-0.4-5.7-1.6-11.3-1-17.1c0.1-0.8-0.3-1.9,0.1-2.5
		c1.6-2.3,0-5.1,1.1-7.1c1.4-2.6,0.5-5.1,0.8-7.7c0.1-1.2,0.1-2.3,0-3.5c-0.2-1.2-0.9-2.4-0.9-3.6c-0.1-2.4-1.1-4.5-2-6.7
		c-2.4-5.6-6-10.4-10-14.8c-0.7-0.7-1.6-1.3-2.2-3.2c1.4,0.8,2,0.9,2.4,1.3c1.8,1.7,3.5,3.6,5.3,5.3c6.7,6.3,10.2,14.5,13.6,22.9
		c1.2,2.9,2,5.9,2.7,8.8c1.1,4.1,2.5,8,3.3,12.2c0.4,1.7,0.2,4.3,2.7,5.2c2-0.5,3.6-2.8,6.4-1.6c-2.3,1.8-4.4,3.5-6.5,5.2
		c2.3,4.7,4.5,9.1,6.7,13.4h1.9c3.3-2.2,4.5-5.8,6.1-9c1.8,3,3.8,5.9,3.7,9.6c0,0.6,1,1.1,1.6,1.7c1.4-1.1,2.6-1.7,3.6-2.9
		c3.3-3.7,5.4-8.3,8.6-12c1.7-2,3.2-4.3,4.7-6.5c0.2-0.3,0.4-0.5,0.7-0.7c0.8-0.5,1.8-0.8,2.4-1.4c2.8-3.2,6.8-4.6,10.1-6.9
		c1.1-12.5,7.8-20.6,19.6-26c-2.7,4.9-6.2,8.3-7.6,13c-1.5,4.9-2,9.8-0.5,14.7c1,4.7,4,8.4,6.8,12.1c2.9,3.8,6.9,6.5,11.3,8.7
		c2-6.8-1.2-11.6-5.4-16.1c0.8,0,1.4,0.1,1.9,0.4c2.9,1.9,5.7,3.9,8.7,5.6c5.8,3.4,8.7,8.8,11.1,15.5c0.9-2.7,1.5-4.7,2.2-6.9
		c-0.2-0.3-0.7-0.6-0.8-1c-0.7-4.9-3-8.8-6.3-12.4c-1.4-1.5-2.2-3.2-4.2-4.2c-1-0.5-2.1-1.6-2.8-3.1c0.9,0,1.3-0.1,1.5,0
		c5.8,3.5,11.4,7.1,15.8,12.6c4,5,6.9,13,6.8,18.2c0,1.6,0,3.3,0,5c3.8,0.3,7.3,2.1,11.4,0.8c-3.4-5.1-0.1-9.6,0.9-14.3
		c2-1.9,3.8-4.1,6-5.9s4.5-3.7,8-3.1c-1.5,1.5-2.7,2.6-3.8,3.8c-1.9,2-4.1,8.5-3.4,11.1c0.9,3.3,2.1,6.5,3.1,9.4
		c3.9,2.3,7.8,1,11.5,1.4c3.9-5.4,5.3-11.5,7.1-17.4c0.5-1.7,0.2-3.6,0.3-5.7c-5.2-6.2-10.6-12.4-16-18.8c0.5-0.1,0.7-0.2,0.8-0.1
		c1.7,1.1,3.6,2.1,5,3.5c3.6,3.4,7.1,7,10.8,10.7c0.2-1.6,0.4-2.9,0.7-4.9c1.1,0.9,1.8,1.2,2.3,1.8c2.7,3.4,4.9,7.2,6.3,11.4
		c0.7,1.9,1.1,3.9,2,5.6c1.8,3.1,3.8,6.1,5.8,9.1c1.2,1.8,2.3,3.7,3.5,5.8c1.7-1.3,3.3-2.5,4.6-3.5c0.1-2.8-0.3-5.1,1-7.1
		c-0.2-6.5,2.6-12.2,5.1-17.9c2.9-6.6,5.5-13.1,4.9-20.5c-0.1-1.5,0-3,0-4.5c0-0.8,0-1.7-0.2-2.4c-2.1-5.8-4.2-11.7-8.4-16.5
		c-0.3-0.4-0.2-1.1-0.3-1.6c3,3.4,6,6.5,8.3,10.4c2.8,4.7,4.6,9.7,5.4,14.7c0.8,4.6,1.6,9.2,1.3,14.1c-0.4,6.3-0.1,12.7-0.1,19
		c0,0.9,0.2,1.7,0.2,2.4c2.7-0.6,4.9-2.4,7.9-1.3c-2.6,1.4-4.9,2.6-7.1,3.7c-0.3,5.3-0.1,10.3,2.4,14.9h2.2c2-2.7,6.2-3.8,6.7-8.5
		c2.7,3.9,3.5,7.4,2.1,11.4c0.8,0.3,1.6,0.7,2.5,1c4.4-4.2,9.1-8.1,13.2-12.5c5.4-5.6,11.7-9.7,18.8-12.7c2.3-1,7.5-2.2,9.5-2.1
		c-3.3,2.2-6.8,3.5-8.8,7.3c-2.1,4-1,7.9-1.5,11.7c0.7,0.6,1.2,1.1,1.7,1.5c0.1,0.1,0.3,0,0.7,0c7.2-8,12.9-17,17.1-27.1
		c0.5,0.5,1,0.8,1.2,1.2c2.9,6.2,3.3,15,0.9,21.9c-2,5.8-3.7,11.7-7.5,16.6c2.3,1.6,2.7,1.7,3.6,1.2c1-0.5,1.9-1.1,2.8-1.8
		c6-3.9,12.2-7.3,18.9-9.8c3-1.1,6.1-2.5,9.2-3c4.2-0.8,8.4-1.6,12.6-2.2c0.6-0.1,1.2,0.1,2.4,0.3c-17.9,5.5-23.5,10.3-28.7,19.2
		c4.8,2,9.3,1.9,14.2-0.1c4.6-1.8,9.1-3.5,12.5-7.7c1.2,4.6-1.5,8.1-2.9,12.3c1.2-0.1,2.3,0,3-0.4c4.5-2.4,9.1-4.8,13.4-7.4
		c5.4-3.3,10.8-6.8,16.9-8.8c4-1.3,7.9-3,12.1-3.3c2.7-0.2,5.3-0.7,7.9-1.6c1.4-2.6,2.8-5.1,4.3-7.9c1.4,3.2,3.3,5.7,2.6,9
		c-0.1,0.4,0.3,0.9,0.4,1.3c0.2,1.2,1,2.9,0.5,3.7c-1.7,2.8-0.8,5.9-1.7,8.8c-1.8,5.7-3.6,11.3-7,16.3c2.3,2.8,4.7,1,6.5-0.1
		c5-2.9,9.8-5.8,15.1-8.2c7.8-3.4,16.1-4.9,24.3-6.4c0.6-0.1,1.2,0.1,3,0.4c-12.7,2.9-22.2,8.5-28.8,19.3c3.9,0.2,7,2.4,10.3,0.9
		c2.8-1.2,5.9-1.8,8.6-3.4c2.8-1.7,6.1-2.6,8.4-5.2c-0.2,2.4-0.5,4.6-1.2,6.8c-0.6,2.1-2.5,3.7-2.4,6.4c2.3-1.2,4.2-2.2,6.1-3.2
		c5.5-3.1,11.3-6,16.6-9.5c7.6-5.1,16.1-7.2,25.1-8.9c2-3.8,3.1-8.1,3.3-13.8c1.2,1.8,1.8,2.6,2.3,3.4c3.2,4.6,5.4,9.6,5.3,15.3
		c0,2.7-0.3,5.4,0.1,8c0.4,3.3-1.2,6.3-1.2,9.6c0,1.4-1.2,2.8-1.7,4.2s-0.8,2.9-1.4,5.1c4.5-3.7,8.3-7.1,12.3-10.1
		c4.4-3.3,8.8-6.6,13.8-8.8c3.7-1.6,7.4-3.2,11.2-4.2c2.5-0.6,5-2.3,7.9-1c-9.8,3.4-17.6,8.9-21.7,18.6c-1,2.5-2.3,5.1-1.1,8
		c0.6-0.1,1-0.1,1.2-0.2c4-3,8.6-4.9,13.2-6.9c3.9-1.7,7.7-3.7,9.7-7.9c0.1-0.1,0.9,0.1,1.5,0.1c0,2.3-0.4,4.5,0.1,6.5
		c0.6,2.3-2.2,4-0.6,6.3c0.6-0.6,1-1.2,1.5-1.5c6.3-3.6,11.6-8.5,17-13.1c3.8-3.3,11.1-7.3,17.1-9.5c1.7-0.6,4.1-0.5,4.9-2.5
		c1.1-2.7,3.7-3.8,5.7-5.5s4.4-2.8,6.6-4.2c0,1.5-0.4,2.6-1.1,3.5c-4.2,5.1-6.5,10.6-6.4,17.4c0.1,5,1.7,9.1,4.3,13.3
		c2.6,4.1,6.4,7.1,9.7,10.5c1.2,1.3,3,1.9,4.9,3.1v-7.7c-0.3-0.8-0.6-1.5-0.9-2.2c-0.4-0.8-0.9-1.7-1.4-2.4s-1.2-1.1-1.7-1.8
		s-1.6-1-1.5-2.6c2,1.3,3.6,2.4,5.4,3.4c4.2,2.3,8.2,4.9,11.4,8.6c1.5,1.7,2.8,3.5,4.3,5.2c0.2,0.2,0.6,0.1,1.1,0.3
		c0.5-0.6,1.2-1.2,1.8-1.9c-1.8-4.8-2.3-9.9-6.7-13.1c-0.2-0.2-0.5-0.5-0.6-0.8c-0.8-2.1-2.3-3.4-4.2-4.4c-1.1-0.6-2.2-1.5-3.2-3.9
		c4.4,2.6,7.8,4.6,11.5,6.8c-0.6-4.7,1.3-8.4,4.1-11.5c2.8-3.2,6-6,11.5-6.6c-1.3,1.3-2,1.9-2.6,2.6c-4,4-4.7,9-3.8,14.2
		c0.7,3.9,2.6,7.6,4.7,11c1.3,2.2,2.5,4.6,4.9,6.5c6.1-9.7,11-19.4,12.3-31c-3.1-3.6-6.6-6.8-9-10.7c-2.4-4-6.7-6.2-8.8-10.5
		c6.5,4.5,12.2,9.8,18.1,15.4c0.3-1.4,0.6-2.4,1-3.9c4.6,3.6,6.6,8.2,8.3,12.8c0.8,2.1,1.2,4.1,2.7,5.9c1.4,1.7,2.4,3.6,3.5,5.6
		c1.8,3.1,3.5,6.2,5.3,9.5c1.6-1.7,3.1-3.3,4.7-5c-0.4-4.2,0.7-8.6,2-12.8c1.6-4.8,3.2-9.6,5.3-14.3c2.4-5.5,3.9-11.2,3.8-17.5
		c0-8.2-3.5-14.8-7.5-21.4c-0.3-0.6-0.4-1.3-0.6-1.9c3.2,3.1,5.7,6.6,7.9,10.2c4.6,7.5,5.3,16.1,5.9,24.5c0.5,7.9,0.1,15.9,0.1,24.3
		c1.2-0.2,2.1-0.5,2.9-0.6c2-0.2,3.7-2.4,6.3-1.1c-3.7,1.5-7.1,2.9-9.3,6.2c1.6,4.3,0.8,9.3,3.6,13.3c3.5-1.4,6.1-3.8,8.3-6.6
		c0.6-0.7,0.5-1.8,1.8-1.3c0.6,2.6,1.1,5.2,1.7,7.8c5.1,0,5.2-0.1,8.6-3.4c3.6-3.5,6.8-7.4,11.1-10.4c-2.1-3-4.3-5.9-6.3-8.9
		c-2.4-3.6-4.1-7.8-4.6-12c-0.8-5.6,1.4-10.6,5.1-14.8c0.3-0.3,1.1-0.3,1.5-0.4c-0.2,2.5-0.6,4.7-0.6,6.9c0,1,0.8,2,0.9,3.1
		c0.5,4.5,2.7,8.3,5.4,11.8c2.4,3.1,5.5,5.7,8.1,8.3c2.3-0.9,4.3-1.8,6.4-2.3c2-0.5,3.8-2.4,6.1-1.4c0,0.7,0,1.2,7.3,8.4
		c2.7-0.3-2.4-5-9.7-7c-1.4,2.2-4,3.2-4.7,5.8c6.8,3.2,13.7,5.7,14.4,1.2c-4.6-6.4-1.9-6.2,0.8-5.7c2.2,0.5,4.5,1.2,6.6,2.1
		c4.2,1.9,8.8,3,12.4,6.3c0.9,0.8,2.4,1.1,3.9,1.8c0-1,0.1-1.5-0.1-1.9c-1.8-3.4-4.4-6.2-7.5-8.2c-5.3-3.5-10.9-6.5-17.1-8.1
		c-0.4-0.1-0.9-0.3-1.3-0.6s-0.6-0.7-1.2-1.5c4.6,1,8.4,1.9,12.6,2.8c-1.8-3.7-3.6-7-3.4-11c0.2-3.4,2-6.4,6.3-9.8
		c-0.4,2.1-0.7,3.7-1.1,5.6c0.1,0.2,0.8,0.6,0.8,0.9c-0.4,3.8,2,6.4,4,8.8c5.2,6.4,12.1,10.9,19.4,14.5c0.7,0.4,1.7,0.1,2.8,0.1
		c-2.1-2.9-0.3-5.9-1.3-8.4s-0.6-5.4-1.9-7.7c-1.4-2.3-1.3-5.1-2.8-7.4c-1.4-2.1-2.2-4.7-3.2-7c-9.9-4.8-19.4-10.3-29.8-14
		c4.7,0.1,8.8,2.1,13.1,3.6c4.3,1.5,8.5,3.1,13,4.8c-0.5-1.3-0.9-2.4-1.5-4.1c1.1,0.7,1.6,1.1,2.1,1.3c5.3,2.2,10,5.3,14.1,9.4
		c0.7,0.7,1.5,1.1,2.3,1.6c5.3,3.3,10.6,6.7,15.8,10c1.7,1.1,3.4,2.2,5.2,3.4c0.6-1.8,1.1-3.2,1.7-4.8c-3.1-2.1-2.9-6.5-5.9-8.9
		c-1.7-5.3-3.5-10.6-5.2-15.9c-1.1-3.4-1.7-7-3.1-10.2c-3.2-7.1-6.5-11-12.5-16.7c-4.3-4.1-9.1-7.6-14.2-10.7c1-0.1,1.9-0.1,2.7,0.3
		c1.5,0.7,3,1.7,4.4,2.5c5.6,3.4,10.9,7.1,15.7,11.6c4,3.8,7.2,8.2,10.7,12.6c3.7,4.6,6.7,9.6,10.4,14.2c2.2,2.7,3.6,6.2,7.2,7.9
		c1.2-1.2,2.3-2.4,3.6-3.5c0.5-0.4,1.2-0.5,2.5-1c-1.8,2.6-3.1,4.5-4.6,6.6c2.4,6,7.9,9.1,12,14c1.2-2.2,2.2-4,3.2-5.9
		c0.1-1.4,0.3-2.9,0.4-5c4.7,3.1,7.1,7.2,9.2,12.8c1.6-4.6,3.7-7.8,3.5-11.8c-0.7-0.6-1.3-1.4-2.1-2c-5.9-3.9-11.5-8.2-16.4-13.4
		c-2.5-2.7-4.4-5.7-6-9c-2.4-5.3-2-9.7,1.3-14.7c2.9,14.7,16.3,24.7,26.8,27.7c2.9-6.2,6.3-12,13-15.2c0.3,0.8,0.5,1.4,0.7,2
		c2.9,0.3,5.8,0.6,9.1,1c-5.4-4.7-8.8-10-6.9-17.7c0.4-0.7,1.2-1.9,2.3-3.6c0.3,5,1.9,9,5.2,11.9c3.4,3,7,5.8,11.2,7.8
		c5,2.4,10.1,4.7,15.4,6.2c1.2,0.3,2.1,1.3,3.2,0.4c-0.6-1.3-1.5-2.5-1.8-3.8c-0.3-1.8-1.4-3.1-2.3-4.6c-2.6-4.7-5.5-9.2-8.9-13.3
		c-2.8-3.4-5.3-7.1-10.4-8.1c-2.3-0.5-4.9-1.1-7.1-2c-7.2-2.9-14.9-4.1-22.4-6.4c1.8-0.1,3.5-0.8,5.5,0.5c1.5,1,3.8-0.4,5.7,0.8
		c1.7,1.1,3.9,0.2,6,1.2c1.5,0.7,3.7,1.1,5.5,1c1.9-0.1,3.4,2.6,5.6,0.4c-0.8-0.6-1.6-1.1-2.8-1.9c1.1-0.2,1.6-0.4,2-0.3
		c4.2,1.4,8.7,2.4,12.6,4.6c5.5,3.1,11.1,6.1,17.2,8.1c4,1.3,7.8,3,11.6,4.7c1.2,0.5,2.4,1.2,4,2v-5c-4.2-4.5-9-8.3-12.4-13.5
		c-1.7-2.6-3.9-4.9-5.4-7.7c-2.4-4.4-5.3-8.6-8.8-12.3c-4.2-4.5-8.6-8.8-13.9-12.1c-6.1-3.8-12.5-6.8-19.5-9.2
		c1.7-0.6,2.9-0.7,4.4,0.1c1.8,0.9,3.7,1.9,5.5,2.3c3.8,0.9,6.8,3,10.2,4.5c3.5,1.6,6.8,3.7,10,6c5.3,3.7,10.6,7.6,15.7,11.7
		c5.2,4.2,10.1,8.7,15.1,13.1c1.5,1.3,3.1,2.2,5.1,1.9c0.8-1.6,2.4-3.2,4.8-4.9c-0.9,1.9-1.6,3.2-2.2,4.6v4.1
		c3.4,2.4,6.5,4.9,9.9,6.7c2,1.1,3.9,3.3,7.1,2.2c-0.3-2.9-0.6-5.7-0.9-8.6c1.2,0.3,2.4,0.5,4.7,1.1c-4.2-3.2-7.5-5.5-10.6-8
		c-6.5-5.2-11.6-11.4-13.2-18.5c-0.8-3.7-0.5-7.5,2.4-10.8c1.4,3.5,1.6,7.1,3.6,9.9c2.1,2.9,4.6,5.5,7,8.1s4.9,5.1,8.3,6.4
		c3.1,1.2,5.5,3.9,9.5,3.7c-0.9-9.2,1.8-16.8,8.7-22.8c-1.2,2.9-1,5.9-0.7,8.6c2.4,0.5,4.4,1,6.4,1.2c2.1,0.2,4.2,0,7.1,0
		c-2-1.9-3.6-3.2-4.8-4.7c-1.1-1.4-1.9-3.2-2.8-4.8c-0.6-3.9-0.1-7.6,2-11c0.1-0.1,0.4-0.1,0.9-0.2v4c2.6,5.3,6.2,9,10.7,12.1
		c7.4,5,15.5,8.2,24.3,10.8c-1.7-4.2-2.8-8.4-6-11.6c-2.3-6.6-8-11-11.7-16.6c-0.3-0.5-1.1-0.6-1.6-0.8c-3.7-1.7-7.5-2.9-11.4-3.9
		c-4.1-1-8-2.4-12.2-3.3c-2.9-0.6-6-1.3-8.8-2.7c9.1,0.5,17.8,2.9,27,4.8c-1.3-1.4-2.2-2.5-3.9-4.4c2.2,0.8,3.2,1.2,4.2,1.5
		c3.9,1.3,7.9,2.5,11.6,4.6c3.5,2,7,4,10.8,5.3c6.4,2.3,12.6,5.1,18.9,7.4c0.9,0.3,2,0.5,3,0.8V55c-2.8-2.6-5.2-4.8-7.5-7.1
		c-1.1-1.1-1.9-2.5-2.9-3.8c-2.5-3.3-5.2-6.4-7.5-9.9c-2.6-4-4.8-8.2-8.1-11.6c-2.5-2.6-4.9-5.4-7.6-7.8c-3.5-3.1-7.3-5.6-11.3-7.7
		c-4.5-2.4-9.2-4.4-14.1-6.8c1.9-0.4,3.3-0.5,4.8,0.7c0.8,0.6,2.1,0.6,3,1.1c5.2,2.4,10.6,4.3,15.4,7.4c3.3,2.1,6.5,4.3,9.8,6.5
		c5.6,3.7,10.6,8.2,15.8,12.4c3.2,2.5,6.1,5.5,9.2,8.1c1.7,1.4,3.6,2.5,5.9,4.2c1.4-1.5,2.7-2.8,4.2-4.4c-0.4,2.5-0.9,4.9-1.2,7
		c3.3,2.2,6.1,4.2,9,6.1C1398.4,49.8,1399.2,49.9,1400,50L1400,50z M1243.7,137.9c-1.8-2.4-3.6-4.8-6-6.5c-2.5-1.8-5.3-3.1-8.1-4.3
		c-2.7-1.2-5.4-2.2-8.2-3c-3-0.8-6-1.3-8.8-1.8c-0.6,0.5-1.2,0.9-1.6,1.2v5.1c0.5,0.5,1,1,1.6,1.6c5.4-0.8,10.6,1.1,16,1.9
		C1234,132.8,1238.6,135.7,1243.7,137.9L1243.7,137.9z M1319,72.1v2.7c2.5,2,5.1,4.1,7.5,6.1c2.9,0.4,5.6,0.6,8.2,1.2
		c5.5,1.3,10.8,3.4,16.2,6.5c-0.9-4.5-4.2-5.9-7-7.5c-5.9-3.3-12-6.4-18.9-7.1C1323,73.7,1321.2,72.8,1319,72.1L1319,72.1z
		 M66,124.7c0-2.6,0.1-4.9,0-7.2c-0.1-2.5,0.8-4.6,1.8-6.8c0.7-1.5,1.3-3.1,2.2-5.1c-5.7,2.1-9.7,5.7-14.3,8.9
		c1.4,4.1,3.4,7.9,5.8,11.7C63.1,125.8,64.4,125.3,66,124.7L66,124.7z M727.6,132c-5.5,1.4-9.4,3.8-12.6,7.4
		c-3.6,4-4.4,8.5-3.8,13.7C718,147.2,722.9,140.2,727.6,132z M807.1,172.1c3.3-0.1,2.8-3.6,4.9-4.5c1.5-4.9,5.3-9,6.2-14.6
		c-4.3,1.9-7,4.7-8.8,8.2C807.7,164.5,807.1,168.2,807.1,172.1L807.1,172.1z M246.2,127.9c-3.4-5.5-6.6-10.7-10.1-16.4
		c-0.1,6.7,1.5,12,5.3,16.4H246.2L246.2,127.9z M1213.1,132.3c1.3,3.3,4.2,5,6.3,7.8c2.2-1.2,4.1,1.9,6.5,0.6
		C1222.7,136.3,1218.4,133.6,1213.1,132.3L1213.1,132.3z M424.6,94.3c-1.9,10.3,0.7,14.8,4,16.4c-0.2-1.3,0-2.8-0.7-3.8
		c-0.9-1.4-0.8-2.7-1-4.1s-0.6-2.7-1-4.1C425.7,97.5,426.7,95.9,424.6,94.3L424.6,94.3z"/>
</g>
</svg>
