<?xml version="1.0" encoding="utf-8"?>
<!-- Generator: Adobe Illustrator 27.9.0, SVG Export Plug-In . SVG Version: 6.00 Build 0)  -->
<svg version="1.1" id="Layer_1" xmlns="http://www.w3.org/2000/svg" xmlns:xlink="http://www.w3.org/1999/xlink" x="0px" y="0px"
	 viewBox="0 0 1400 368" style="enable-background:new 0 0 1400 368;" xml:space="preserve">
<path d="M1400,50v318H0V60c2.8,0.1,5.3-1.8,8.2-1c1.8-1.5,4-0.8,6.1-1c2.2-0.2,4.4-1,6.6-0.9c5,0.1,10.1,0.6,15.1,0.9
	c1.6,1.8,4.1,0.5,7,1.9c-5.1,0.3-9.1-0.2-13.1,1.1c-4.4,1.4-8.8,2.7-11.8,6.6c-1.6,2.1-2.9,4.5-3.9,6.9s-1.8,5.1-2,7.6
	c-0.5,5.4-2.6,10.3-4.2,15.5c0.5,0.5,1,1.1,1.6,1.8c1.6-0.8,2.9-1.5,4.3-2.2c1.4-0.7,2.8-1.4,3.7-1.9c0.6-2.7,1.1-4.8,1.7-7.3
	c1.3,1.3,2.4,2.4,3.4,3.4c6.4-5.8,9.4-11.8,10.8-26.1c0.3,1.2,0.2,2.4,0.6,3.5c1.2,3.3,1.7,6.7,1.9,10.2c0.3,3.2-1,6-1,9.1
	c0,2.6-1,4.9-1.7,7.3c-1.9,6.2-4.1,12.4-3.3,19.1c0,0.5,0.1,0.9,0.2,1.8c2.7,1.6,5.5,3.2,8.4,4.8c0.5-0.5,0.9-0.9,1.3-1.3
	c0.2-2.5-0.3-5.3,0.6-7.4c1.1-2.4-0.6-5.3,1.5-7.4c0.8-7,4.5-12.5,9.7-16.9c2-1.7,4.2-3.6,7.4-4.1C53,95.1,53.5,98.2,54.5,110
	c5.5-1.4,10.3-5,16.5-5c0,2.3-0.2,4.3,0.1,6.2c0.2,1.8,0.4,3.9,1.2,5.5c2.6,4.6,2.8,4.5,2.7,6.8c-0.1,1.8,0.7,3.2,1.9,4.7
	c1.8-1.2,3.5-2.4,5.3-3.7c-0.5-2.4-0.8-5-1.6-7.3c-1.2-3.8-2.2-7.6-2.5-11.4c-0.3-4,0.5-8.1,0.9-12.1c0-0.3,0.5-0.5,0.6-0.8
	c2.1-7.1,5.9-13.2,10.7-18.5c5.3-5.9,10.7-11.8,17.5-16.2c0.1,0.5,0.3,0.9,0.2,1.1c-4.6,8.2-8.5,16.8-11.9,25.6
	c-2.5,6.4-4.7,12.9-5.1,19.9c0,0.8-0.2,1.6-0.5,2.3c-0.9,2.7-0.4,5.3-0.3,8.4c4.7-3.3,8.7-6.7,13.2-9.2c4.4-2.5,9.1-4.8,15.3-5.2
	c-1.4,1-2,1.5-2.7,1.9c-1.7,1.2-4,2-4.9,3.6c-3.1,5-4.5,7.8-2.1,14.8c1.9,5.5,4.5,10.6,8.3,14.6h8.2c1.1-1.1,2.1-1.9,2.9-2.9
	c0.8-1,1.4-2.1,2.1-3.1c4.8-6,10.4-16.2,12.6-24.3c1.4-5.4,2.9-10.7,2.7-16.3c-0.1-1.4,0.3-2.5,1.5-3c0.7,0.9,1.2,1.9,2,2.7
	c4.4,4,7.4,13.7,7.6,18.4c0.2,4.5,0.1,9,0,13.5c0,1.2,0,2.4-0.7,3.7c-0.9,1.8-0.9,4.2-1.3,6.3c2.1-1.5,3.3-3.5,5-5.1
	c3.5-3.4,7.1-6.8,10.9-9.9c3.4-2.7,7-5.3,11-7.1c3.9-1.7,8-3.2,12.1-4.6c0.6-0.2,1.3,0.2,2.2,0.3c-2.4,1.3-4.6,2.2-6.3,3.7
	c-3.2,2.8-6.4,5.6-8.8,9.2c-3,4.6-3.3,9.5-2.8,15.1c4.1-3.2,8.1-5.7,12.6-7.7c2.1-0.9,4.1-2.3,5.9-3.9c1.9-1.7,3.3-3.8,5-5.7
	c1.7,4.2,2,8.5,0.4,12.8c0.8,0,1.2,0.2,1.4,0.1c3.3-2.9,6.6-5.8,9.9-8.8c2.4-2.3,4.7-4.7,7.1-7c0.8-0.8,1.7-1.5,2.6-2.2
	c3-2.2,6.1-4.4,9-6.5c-0.8-2.3-1.5-4.3-2.3-6.3c-0.9-2.2-1.3-4.5-1.9-6.8c-1.4-6.2-1.1-12.2,1.4-17.2c1.8-3.6,5.2-5.9,7.8-8.8
	c0.3-0.4,1-0.4,1.5-0.5c0.3,0.4,0.4,0.6,0.4,0.7c0,0.3,0,0.7-0.1,0.9c-2,4.2-3,8.6-3,13.3c0,7.9,4,13.9,9,19.3
	c3.2,3.4,7.4,6.1,11.4,8.5c1.8,1.1,3.7,3.2,6.7,2c-0.4-1.6-0.4-3.4-1.1-4.8c-2.1-3.9-5-7.1-9.2-9.5c0.9-0.2,1.3-0.4,1.5-0.3
	c4.2,2,8.4,3.9,12.5,6c7,3.4,9.3,5.6,12.9,12c0.5-0.5,0.9-0.9,1.7-1.7c-0.4-1-1.2-2.1-1.2-3.3c0-2.7-1.2-4.5-2.9-6.4
	c-1.7-1.9-2.8-4.2-5.1-5.7c-3.1-2-6.1-4.3-9.8-6.9c3.6-0.3,6.1,0.9,8.2,2.2c3.3,2,6.7,4.1,9.9,6.4c5,3.6,8.5,8.1,11,13.5
	c1.9,3.9,3.2,8.2,2.5,12.8c4.4,0.2,8.4,0.4,12.3-1.5c-1.8-2.5-2.2-5.4-3.1-8c-0.9-2.7-0.2-5.9-0.2-8.2c1.9-5.2,5-8.5,10.5-10.6
	c-1,2.1-1.7,3.2-2,4.5c-0.5,1.9-2.2,3.9-1.4,5.8c1.1,2.4,1.2,5,2.5,7.5c1.7,3.1,4.1,5.6,5.6,8.4h10.4c0.8-2.8,1.8-5.4,1.3-8.2
	c0-0.3-0.1-0.7,0-1c2.1-3.9,0.6-8.1,0.9-12.1c0.1-1.2-0.9-2.7-1.6-3.8c-0.9-1.2-2-2.3-3.1-3.2c-4-3.1-8.1-6.1-12.2-9.2
	c-1.7-1.3-3.3-2.6-4.9-3.9c7.4,2,13.1,7,19.5,10.8c0.3-1.3,0.6-2.3,1-3.9c3.6,3.5,7.1,6.1,9.5,9.9c2.6,4.3,5.6,8.2,9.3,11.7
	c3.1,2.8,6.2,5.7,8.9,9.5c1.4-1.7,2.6-3.3,3.8-4.8c-0.4-0.5-1-0.8-1-1.2c-0.4-5.7-1.6-11.3-1-17.1c0.1-0.8-0.3-1.9,0.1-2.5
	c1.6-2.3,0-5.1,1.1-7.1c1.4-2.6,0.5-5.1,0.8-7.7c0.1-1.2,0.1-2.3,0-3.5c-0.2-1.2-0.9-2.4-0.9-3.6c-0.1-2.4-1.1-4.5-2-6.7
	c-2.4-5.6-6-10.4-10-14.8c-0.7-0.7-1.6-1.3-2.2-3.2c1.4,0.8,2,0.9,2.4,1.3c1.8,1.7,3.5,3.6,5.3,5.3c6.7,6.3,10.2,14.5,13.6,22.9
	c1.2,2.9,2,5.9,2.7,8.8c1.1,4.1,2.5,8,3.3,12.2c0.4,1.7,0.2,4.3,2.7,5.2c2-0.5,3.6-2.8,6.4-1.6c-2.3,1.8-4.4,3.5-6.5,5.2
	c2.3,4.7,4.5,9.1,6.7,13.4h1.9c3.3-2.2,4.5-5.8,6.1-9c1.8,3,3.8,5.9,3.7,9.6c0,0.6,1,1.1,1.6,1.7c1.4-1.1,2.6-1.7,3.6-2.9
	c3.3-3.7,5.4-8.3,8.6-12c1.7-2,3.2-4.3,4.7-6.5c0.2-0.3,0.4-0.5,0.7-0.7c0.8-0.5,1.8-0.8,2.4-1.4c2.8-3.2,6.8-4.6,10.1-6.9
	c1.1-12.5,7.8-20.6,19.6-26c-2.7,4.9-6.2,8.3-7.6,13c-1.5,4.9-2,9.8-0.5,14.7c1,4.7,4,8.4,6.8,12.1c2.9,3.8,6.9,6.5,11.3,8.7
	c2-6.8-1.2-11.6-5.4-16.1c0.8,0,1.4,0.1,1.9,0.4c2.9,1.9,5.7,3.9,8.7,5.6c5.8,3.4,8.7,8.8,11.1,15.5c0.9-2.7,1.5-4.7,2.2-6.9
	c-0.2-0.3-0.7-0.6-0.8-1c-0.7-4.9-3-8.8-6.3-12.4c-1.4-1.5-2.2-3.2-4.2-4.2c-1-0.5-2.1-1.6-2.8-3.1c0.9,0,1.3-0.1,1.5,0
	c5.8,3.5,11.4,7.1,15.8,12.6c4,5,6.9,13,6.8,18.2c0,1.6,0,3.3,0,5c3.8,0.3,7.3,2.1,11.4,0.8c-3.4-5.1-0.1-9.6,0.9-14.3
	c2-1.9,3.8-4.1,6-5.9c2.2-1.8,4.5-3.7,8-3.1c-1.5,1.5-2.7,2.6-3.8,3.8c-1.9,2-4.1,8.5-3.4,11.1c0.9,3.3,2.1,6.5,3.1,9.4
	c3.9,2.3,7.8,1,11.5,1.4c3.9-5.4,5.3-11.5,7.1-17.4c0.5-1.7,0.2-3.6,0.3-5.7c-5.2-6.2-10.6-12.4-16-18.8c0.5-0.1,0.7-0.2,0.8-0.1
	c1.7,1.1,3.6,2.1,5,3.5c3.6,3.4,7.1,7,10.8,10.7c0.2-1.6,0.4-2.9,0.7-4.9c1.1,0.9,1.8,1.2,2.3,1.8c2.7,3.4,4.9,7.2,6.3,11.4
	c0.7,1.9,1.1,3.9,2,5.6c1.8,3.1,3.8,6.1,5.8,9.1c1.2,1.8,2.3,3.7,3.5,5.8c1.7-1.3,3.3-2.5,4.6-3.5c0.1-2.8-0.3-5.1,1-7.1
	c-0.2-6.5,2.6-12.2,5.1-17.9c2.9-6.6,5.5-13.1,4.9-20.5c-0.1-1.5,0-3,0-4.5c0-0.8,0-1.7-0.2-2.4c-2.1-5.8-4.2-11.7-8.4-16.5
	c-0.3-0.4-0.2-1.1-0.3-1.6c3,3.4,6,6.5,8.3,10.4c2.8,4.7,4.6,9.7,5.4,14.7c0.8,4.6,1.6,9.2,1.3,14.1c-0.4,6.3-0.1,12.7-0.1,19
	c0,0.9,0.2,1.7,0.2,2.4c2.7-0.6,4.9-2.4,7.9-1.3c-2.6,1.4-4.9,2.6-7.1,3.7c-0.3,5.3-0.1,10.3,2.4,14.9h2.2c2-2.7,6.2-3.8,6.7-8.5
	c2.7,3.9,3.5,7.4,2.1,11.4c0.8,0.3,1.6,0.7,2.5,1c4.4-4.2,9.1-8.1,13.2-12.5c5.4-5.6,11.7-9.7,18.8-12.7c2.3-1,7.5-2.2,9.5-2.1
	c-3.3,2.2-6.8,3.5-8.8,7.3c-2.1,4-1,7.9-1.5,11.7c0.7,0.6,1.2,1.1,1.7,1.5c0.1,0.1,0.3,0,0.7,0c7.2-8,12.9-17,17.1-27.1
	c0.5,0.5,1,0.8,1.2,1.2c2.9,6.2,3.3,15,0.9,21.9c-2,5.8-3.7,11.7-7.5,16.6c2.3,1.6,2.7,1.7,3.6,1.2c1-0.5,1.9-1.1,2.8-1.8
	c6-3.9,12.2-7.3,18.9-9.8c3-1.1,6.1-2.5,9.2-3c4.2-0.8,8.4-1.6,12.6-2.2c0.6-0.1,1.2,0.1,2.4,0.3c-17.9,5.5-23.5,10.3-28.7,19.2
	c4.8,2,9.3,1.9,14.2-0.1c4.6-1.8,9.1-3.5,12.5-7.7c1.2,4.6-1.5,8.1-2.9,12.3c1.2-0.1,2.3,0,3-0.4c4.5-2.4,9.1-4.8,13.4-7.4
	c5.4-3.3,10.8-6.8,16.9-8.8c4-1.3,7.9-3,12.1-3.3c2.7-0.2,5.3-0.7,7.9-1.6c1.4-2.6,2.8-5.1,4.3-7.9c1.4,3.2,3.3,5.7,2.6,9
	c-0.1,0.4,0.3,0.9,0.4,1.3c0.2,1.2,1,2.9,0.5,3.7c-1.7,2.8-0.8,5.9-1.7,8.8c-1.8,5.7-3.6,11.3-7,16.3c2.3,2.8,4.7,1,6.5-0.1
	c5-2.9,9.8-5.8,15.1-8.2c7.8-3.4,16.1-4.9,24.3-6.4c0.6-0.1,1.2,0.1,3,0.4c-12.7,2.9-22.2,8.5-28.8,19.3c3.9,0.2,7,2.4,10.3,0.9
	c2.8-1.2,5.9-1.8,8.6-3.4c2.8-1.7,6.1-2.6,8.4-5.2c-0.2,2.4-0.5,4.6-1.2,6.8c-0.6,2.1-2.5,3.7-2.4,6.4c2.3-1.2,4.2-2.2,6.1-3.2
	c5.5-3.1,11.3-6,16.6-9.5c7.6-5.1,16.1-7.2,25.1-8.9c2-3.8,3.1-8.1,3.3-13.8c1.2,1.8,1.8,2.6,2.3,3.4c3.2,4.6,5.4,9.6,5.3,15.3
	c0,2.7-0.3,5.4,0.1,8c0.4,3.3-1.2,6.3-1.2,9.6c0,1.4-1.2,2.8-1.7,4.2c-0.5,1.4-0.8,2.9-1.4,5.1c4.5-3.7,8.3-7.1,12.3-10.1
	c4.4-3.3,8.8-6.6,13.8-8.8c3.7-1.6,7.4-3.2,11.2-4.2c2.5-0.6,5-2.3,7.9-1c-9.8,3.4-17.6,8.9-21.7,18.6c-1,2.5-2.3,5.1-1.1,8
	c0.6-0.1,1-0.1,1.2-0.2c4-3,8.6-4.9,13.2-6.9c3.9-1.7,7.7-3.7,9.7-7.9c0.1-0.1,0.9,0.1,1.5,0.1c0,2.3-0.4,4.5,0.1,6.5
	c0.6,2.3-2.2,4-0.6,6.3c0.6-0.6,1-1.2,1.5-1.5c6.3-3.6,11.6-8.5,17-13.1c3.8-3.3,11.1-7.3,17.1-9.5c1.7-0.6,4.1-0.5,4.9-2.5
	c1.1-2.7,3.7-3.8,5.7-5.5c2-1.7,4.4-2.8,6.6-4.2c0,1.5-0.4,2.6-1.1,3.5c-4.2,5.1-6.5,10.6-6.4,17.4c0.1,5,1.7,9.1,4.3,13.3
	c2.6,4.1,6.4,7.1,9.7,10.5c1.2,1.3,3,1.9,4.9,3.1v-7.7c-0.3-0.8-0.6-1.5-0.9-2.2c-0.4-0.8-0.9-1.7-1.4-2.4c-0.5-0.7-1.2-1.1-1.7-1.8
	c-0.5-0.7-1.6-1-1.5-2.6c2,1.3,3.6,2.4,5.4,3.4c4.2,2.3,8.2,4.9,11.4,8.6c1.5,1.7,2.8,3.5,4.3,5.2c0.2,0.2,0.6,0.1,1.1,0.3
	c0.5-0.6,1.2-1.2,1.8-1.9c-1.8-4.8-2.3-9.9-6.7-13.1c-0.2-0.2-0.5-0.5-0.6-0.8c-0.8-2.1-2.3-3.4-4.2-4.4c-1.1-0.6-2.2-1.5-3.2-3.9
	c4.4,2.6,7.8,4.6,11.5,6.8c-0.6-4.7,1.3-8.4,4.1-11.5c2.8-3.2,6-6,11.5-6.6c-1.3,1.3-2,1.9-2.6,2.6c-4,4-4.7,9-3.8,14.2
	c0.7,3.9,2.6,7.6,4.7,11c1.3,2.2,2.5,4.6,4.9,6.5c6.1-9.7,11-19.4,12.3-31c-3.1-3.6-6.6-6.8-9-10.7c-2.4-4-6.7-6.2-8.8-10.5
	c6.5,4.5,12.2,9.8,18.1,15.4c0.3-1.4,0.6-2.4,1-3.9c4.6,3.6,6.6,8.2,8.3,12.8c0.8,2.1,1.2,4.1,2.7,5.9c1.4,1.7,2.4,3.6,3.5,5.6
	c1.8,3.1,3.5,6.2,5.3,9.5c1.6-1.7,3.1-3.3,4.7-5c-0.4-4.2,0.7-8.6,2-12.8c1.6-4.8,3.2-9.6,5.3-14.3c2.4-5.5,3.9-11.2,3.8-17.5
	c0-8.2-3.5-14.8-7.5-21.4c-0.3-0.6-0.4-1.3-0.6-1.9c3.2,3.1,5.7,6.6,7.9,10.2c4.6,7.5,5.3,16.1,5.9,24.5c0.5,7.9,0.1,15.9,0.1,24.3
	c1.2-0.2,2.1-0.5,2.9-0.6c2-0.2,3.7-2.4,6.3-1.1c-3.7,1.5-7.1,2.9-9.3,6.2c1.6,4.3,0.8,9.3,3.6,13.3c3.5-1.4,6.1-3.8,8.3-6.6
	c0.6-0.7,0.5-1.8,1.8-1.3c0.6,2.6,1.1,5.2,1.7,7.8c5.1,0,5.2-0.1,8.6-3.4c3.6-3.5,6.8-7.4,11.1-10.4c-2.1-3-4.3-5.9-6.3-8.9
	c-2.4-3.6-4.1-7.8-4.6-12c-0.8-5.6,1.4-10.6,5.1-14.8c0.3-0.3,1.1-0.3,1.5-0.4c-0.2,2.5-0.6,4.7-0.6,6.9c0,1,0.8,2,0.9,3.1
	c0.5,4.5,2.7,8.3,5.4,11.8c2.4,3.1,5.5,5.7,8.1,8.3c2.3-0.9,4.3-1.8,6.4-2.3c2-0.5,3.8-2.4,6.1-1.4c0,0.7,0,1.2,7.3,8.4
	c2.7-0.3-2.4-5-9.7-7c-1.4,2.2-4,3.2-4.7,5.8c6.8,3.2,13.7,5.7,14.4,1.2c-4.6-6.4-1.9-6.2,0.8-5.7c2.2,0.5,4.5,1.2,6.6,2.1
	c4.2,1.9,8.8,3,12.4,6.3c0.9,0.8,2.4,1.1,3.9,1.8c0-1,0.1-1.5-0.1-1.9c-1.8-3.4-4.4-6.2-7.5-8.2c-5.3-3.5-10.9-6.5-17.1-8.1
	c-0.4-0.1-0.9-0.3-1.3-0.6c-0.4-0.3-0.6-0.7-1.2-1.5c4.6,1,8.4,1.9,12.6,2.8c-1.8-3.7-3.6-7-3.4-11c0.2-3.4,2-6.4,6.3-9.8
	c-0.4,2.1-0.7,3.7-1.1,5.6c0.1,0.2,0.8,0.6,0.8,0.9c-0.4,3.8,2,6.4,4,8.8c5.2,6.4,12.1,10.9,19.4,14.5c0.7,0.4,1.7,0.1,2.8,0.1
	c-2.1-2.9-0.3-5.9-1.3-8.4c-1-2.5-0.6-5.4-1.9-7.7c-1.4-2.3-1.3-5.1-2.8-7.4c-1.4-2.1-2.2-4.7-3.2-7c-9.9-4.8-19.4-10.3-29.8-14
	c4.7,0.1,8.8,2.1,13.1,3.6c4.3,1.5,8.5,3.1,13,4.8c-0.5-1.3-0.9-2.4-1.5-4.1c1.1,0.7,1.6,1.1,2.1,1.3c5.3,2.2,10,5.3,14.1,9.4
	c0.7,0.7,1.5,1.1,2.3,1.6c5.3,3.3,10.6,6.7,15.8,10c1.7,1.1,3.4,2.2,5.2,3.4c0.6-1.8,1.1-3.2,1.7-4.8c-3.1-2.1-2.9-6.5-5.9-8.9
	c-1.7-5.3-3.5-10.6-5.2-15.9c-1.1-3.4-1.7-7-3.1-10.2c-3.2-7.1-6.5-11-12.5-16.7c-4.3-4.1-9.1-7.6-14.2-10.7c1-0.1,1.9-0.1,2.7,0.3
	c1.5,0.7,3,1.7,4.4,2.5c5.6,3.4,10.9,7.1,15.7,11.6c4,3.8,7.2,8.2,10.7,12.6c3.7,4.6,6.7,9.6,10.4,14.2c2.2,2.7,3.6,6.2,7.2,7.9
	c1.2-1.2,2.3-2.4,3.6-3.5c0.5-0.4,1.2-0.5,2.5-1c-1.8,2.6-3.1,4.5-4.6,6.6c2.4,6,7.9,9.1,12,14c1.2-2.2,2.2-4,3.2-5.9
	c0.1-1.4,0.3-2.9,0.4-5c4.7,3.1,7.1,7.2,9.2,12.8c1.6-4.6,3.7-7.8,3.5-11.8c-0.7-0.6-1.3-1.4-2.1-2c-5.9-3.9-11.5-8.2-16.4-13.4
	c-2.5-2.7-4.4-5.7-6-9c-2.4-5.3-2-9.7,1.3-14.7c2.9,14.7,16.3,24.7,26.8,27.7c2.9-6.2,6.3-12,13-15.2c0.3,0.8,0.5,1.4,0.7,2
	c2.9,0.3,5.8,0.6,9.1,1c-5.4-4.7-8.8-10-6.9-17.7c0.4-0.7,1.2-1.9,2.3-3.6c0.3,5,1.9,9,5.2,11.9c3.4,3,7,5.8,11.2,7.8
	c5,2.4,10.1,4.7,15.4,6.2c1.2,0.3,2.1,1.3,3.2,0.4c-0.6-1.3-1.5-2.5-1.8-3.8c-0.3-1.8-1.4-3.1-2.3-4.6c-2.6-4.7-5.5-9.2-8.9-13.3
	c-2.8-3.4-5.3-7.1-10.4-8.1c-2.3-0.5-4.9-1.1-7.1-2c-7.2-2.9-14.9-4.1-22.4-6.4c1.8-0.1,3.5-0.8,5.5,0.5c1.5,1,3.8-0.4,5.7,0.8
	c1.7,1.1,3.9,0.2,6,1.2c1.5,0.7,3.7,1.1,5.5,1c1.9-0.1,3.4,2.6,5.6,0.4c-0.8-0.6-1.6-1.1-2.8-1.9c1.1-0.2,1.6-0.4,2-0.3
	c4.2,1.4,8.7,2.4,12.6,4.6c5.5,3.1,11.1,6.1,17.2,8.1c4,1.3,7.8,3,11.6,4.7c1.2,0.5,2.4,1.2,4,2v-5c-4.2-4.5-9-8.3-12.4-13.5
	c-1.7-2.6-3.9-4.9-5.4-7.7c-2.4-4.4-5.3-8.6-8.8-12.3c-4.2-4.5-8.6-8.8-13.9-12.1c-6.1-3.8-12.5-6.8-19.5-9.2
	c1.7-0.6,2.9-0.7,4.4,0.1c1.8,0.9,3.7,1.9,5.5,2.3c3.8,0.9,6.8,3,10.2,4.5c3.5,1.6,6.8,3.7,10,6c5.3,3.7,10.6,7.6,15.7,11.7
	c5.2,4.2,10.1,8.7,15.1,13.1c1.5,1.3,3.1,2.2,5.1,1.9c0.8-1.6,2.4-3.2,4.8-4.9c-0.9,1.9-1.6,3.2-2.2,4.6v4.1
	c3.4,2.4,6.5,4.9,9.9,6.7c2,1.1,3.9,3.3,7.1,2.2c-0.3-2.9-0.6-5.7-0.9-8.6c1.2,0.3,2.4,0.5,4.7,1.1c-4.2-3.2-7.5-5.5-10.6-8
	c-6.5-5.2-11.6-11.4-13.2-18.5c-0.8-3.7-0.5-7.5,2.4-10.8c1.4,3.5,1.6,7.1,3.6,9.9c2.1,2.9,4.6,5.5,7,8.1c2.4,2.6,4.9,5.1,8.3,6.4
	c3.1,1.2,5.5,3.9,9.5,3.7c-0.9-9.2,1.8-16.8,8.7-22.8c-1.2,2.9-1,5.9-0.7,8.6c2.4,0.5,4.4,1,6.4,1.2c2.1,0.2,4.2,0,7.1,0
	c-2-1.9-3.6-3.2-4.8-4.7c-1.1-1.4-1.9-3.2-2.8-4.8c-0.6-3.9-0.1-7.6,2-11c0.1-0.1,0.4-0.1,0.9-0.2v4c2.6,5.3,6.2,9,10.7,12.1
	c7.4,5,15.5,8.2,24.3,10.8c-1.7-4.2-2.8-8.4-6-11.6c-2.3-6.6-8-11-11.7-16.6c-0.3-0.5-1.1-0.6-1.6-0.8c-3.7-1.7-7.5-2.9-11.4-3.9
	c-4.1-1-8-2.4-12.2-3.3c-2.9-0.6-6-1.3-8.8-2.7c9.1,0.5,17.8,2.9,27,4.8c-1.3-1.4-2.2-2.5-3.9-4.4c2.2,0.8,3.2,1.2,4.2,1.5
	c3.9,1.3,7.9,2.5,11.6,4.6c3.5,2,7,4,10.8,5.3c6.4,2.3,12.6,5.1,18.9,7.4c0.9,0.3,2,0.5,3,0.8V55c-2.8-2.6-5.2-4.8-7.5-7.1
	c-1.1-1.1-1.9-2.5-2.9-3.8c-2.5-3.3-5.2-6.4-7.5-9.9c-2.6-4-4.8-8.2-8.1-11.6c-2.5-2.6-4.9-5.4-7.6-7.8c-3.5-3.1-7.3-5.6-11.3-7.7
	c-4.5-2.4-9.2-4.4-14.1-6.8c1.9-0.4,3.3-0.5,4.8,0.7c0.8,0.6,2.1,0.6,3,1.1c5.2,2.4,10.6,4.3,15.4,7.4c3.3,2.1,6.5,4.3,9.8,6.5
	c5.6,3.7,10.6,8.2,15.8,12.4c3.2,2.5,6.1,5.5,9.2,8.1c1.7,1.4,3.6,2.5,5.9,4.2c1.4-1.5,2.7-2.8,4.2-4.4c-0.4,2.5-0.9,4.9-1.2,7
	c3.3,2.2,6.1,4.2,9,6.1C1398.4,49.8,1399.2,49.9,1400,50L1400,50z M1243.7,137.9c-1.8-2.4-3.6-4.8-6-6.5c-2.5-1.8-5.3-3.1-8.1-4.3
	c-2.7-1.2-5.4-2.2-8.2-3c-3-0.8-6-1.3-8.8-1.8c-0.6,0.5-1.2,0.9-1.6,1.2v5.1c0.5,0.5,1,1,1.6,1.6c5.4-0.8,10.6,1.1,16,1.9
	C1234,132.8,1238.6,135.7,1243.7,137.9L1243.7,137.9z M1319,72.1v2.7c2.5,2,5.1,4.1,7.5,6.1c2.9,0.4,5.6,0.6,8.2,1.2
	c5.5,1.3,10.8,3.4,16.2,6.5c-0.9-4.5-4.2-5.9-7-7.5c-5.9-3.3-12-6.4-18.9-7.1C1323,73.7,1321.2,72.8,1319,72.1L1319,72.1z M66,124.7
	c0-2.6,0.1-4.9,0-7.2c-0.1-2.5,0.8-4.6,1.8-6.8c0.7-1.5,1.3-3.1,2.2-5.1c-5.7,2.1-9.7,5.7-14.3,8.9c1.4,4.1,3.4,7.9,5.8,11.7
	C63.1,125.8,64.4,125.3,66,124.7L66,124.7z M727.6,132c-5.5,1.4-9.4,3.8-12.6,7.4c-3.6,4-4.4,8.5-3.8,13.7
	C718,147.2,722.9,140.2,727.6,132z M807.1,172.1c3.3-0.1,2.8-3.6,4.9-4.5c1.5-4.9,5.3-9,6.2-14.6c-4.3,1.9-7,4.7-8.8,8.2
	C807.7,164.5,807.1,168.2,807.1,172.1L807.1,172.1z M246.2,127.9c-3.4-5.5-6.6-10.7-10.1-16.4c-0.1,6.7,1.5,12,5.3,16.4H246.2
	L246.2,127.9z M1213.1,132.3c1.3,3.3,4.2,5,6.3,7.8c2.2-1.2,4.1,1.9,6.5,0.6C1222.7,136.3,1218.4,133.6,1213.1,132.3L1213.1,132.3z
	 M424.6,94.3c-1.9,10.3,0.7,14.8,4,16.4c-0.2-1.3,0-2.8-0.7-3.8c-0.9-1.4-0.8-2.7-1-4.1c-0.2-1.4-0.6-2.7-1-4.1
	C425.7,97.5,426.7,95.9,424.6,94.3L424.6,94.3z"/>
</svg>
