<?xml version="1.0" encoding="UTF-8"?><svg id="Layer_1" xmlns="http://www.w3.org/2000/svg" viewBox="0 0 469.95 255.56"><defs><style>.cls-1{fill:none;}.cls-1,.cls-2,.cls-3,.cls-4,.cls-5,.cls-6,.cls-7,.cls-8,.cls-9,.cls-10,.cls-11,.cls-12,.cls-13,.cls-14,.cls-15,.cls-16,.cls-17,.cls-18,.cls-19,.cls-20,.cls-21,.cls-22,.cls-23,.cls-24,.cls-25{stroke-width:0px;}.cls-2{fill:#261f21;}.cls-3{fill:#261e1f;}.cls-4{fill:#282024;}.cls-5{fill:#455115;}.cls-6{fill:#5c790c;}.cls-7{fill:#59750c;}.cls-8{fill:#5b780c;}.cls-9{fill:#5b780b;}.cls-10{fill:#465415;}.cls-11{fill:#819928;}.cls-12{fill:#5a770b;}.cls-13{fill:#445015;}.cls-14{fill:#444f16;}.cls-15{fill:#424e15;}.cls-16{fill:#434f15;}.cls-17{fill:#251e1f;}.cls-18{fill:#92a739;}.cls-19{fill:#92a837;}.cls-20{fill:#92a838;}.cls-21{fill:#91a638;}.cls-22{fill:#8fa437;}.cls-23{fill:#8da137;}.cls-24{fill:#91a737;}.cls-25{fill:#93a938;}</style></defs><path class="cls-2" d="m424.33,191.2M6.93,200.83h0s-1.46-27.17.27-27.43c22.63-3.48,39.87-20.85,42.21-43.04.41-3.89.1-8.06-.9-11.84-3.07-11.67-15.95-15.1-24.76-6.75-3.86,3.66-4.31,7.92-2.01,12.75,1.08,2.27,1.41,4.9,2.08,7.37-2.98-.59-6.27-.57-8.88-1.89-8.51-4.34-17.29-21.34-14.38-29.78.37-.94.75-1.87,1.12-2.81.56-1.72.9-3.54,1.71-5.14,12.86-25.59,45.88-33.32,68.56-15.9,9.87,7.58,17.16,17.06,19.06,29.85.33,1.12.66,2.25.99,3.37.29-1.28.58-2.57.88-3.85,1.79-14.04-2.2-26.91-7.7-39.59-8.71-20.08-5.37-39.29,4.91-57.84,1.44-2.61,2.78-5.27,4.17-7.91.68-.04,1.35-.09,2.03-.13,1.03,2.95,2.41,5.82,3.02,8.85,3.6,17.87,11.96,33.66,20.89,49.27,6.45,11.28,12.05,22.96,13.21,36.2.11,1.29-.07,2.62-.11,3.92.25.46.51.93.76,1.39.33-.51.66-1.02.99-1.53,3.95-4.86,7.44-10.21,11.95-14.48,8.53-8.07,17.25-15.77,19.22-28.26.16-1,1.53-1.81,2.34-2.71.69.84,1.61,1.57,2.04,2.53,5,11.13,9.39,22.41,7.51,34.4,6.42-2.08,12.66-4.92,19.19-6.02,10.14-1.7,19.5.63,25.1,10.26,6.26,10.77,8.73,22.08,1.33,33.4-5.53,8.46-16.69,11.37-25.63,7.04-1.23-.59-2.16-1.78-3.23-2.7.97-.99,1.98-1.94,2.91-2.96,3.07-3.35,6.9-6.3,8.96-10.19,2.72-5.13-.43-9.89-6.32-9.94-3.07-.03-6.76,1.08-9.14,2.96-7.65,6.04-9.62,14.59-8.17,23.81,1.33,8.44,6.74,13.88,14.6,16.9,6.24,2.39,11.75.49,16.84-3.24,16.88-12.36,24.81-41.58,16.43-60.7-.79-1.79-2.07-3.37-3.12-5.04l1.28-1.31c20.69,12.99,38.5,28.43,45.11,53.3.76,2.87,1.02,5.87,1.52,8.81-.01.5-.03.99-.04,1.49.4-.54.8-1.08,1.2-1.62,6.41-13.18,11.24-26.81,8.83-41.73-1.66-10.31-3.73-20.61-6.54-30.66-3.51-12.55-4.45-25.25-3.37-38.05,1.04-12.31,7.96-22.38,14.28-32.53.38-.62,1.52-.77,2.3-1.13.31.88,1.07,1.9.85,2.61-5.02,16.3,3.34,29.39,10.24,42.8,5.24,10.19,11.44,19.98,15.67,30.57,3.72,9.28,5.3,19.41,7.82,29.17-.18.49-.36.98-.54,1.47.48-.37.97-.74,1.45-1.12,4.56-5.24,8.47-11.31,13.83-15.56,12.24-9.7,16.18-22.63,16.78-37.28.11-2.58.02-5.17.84-7.75,3.73,10.85,8.17,21.52,10.91,32.61,1.54,6.22.28,13.14.28,18.81,7.06-1.82,14.71-4.71,22.58-5.6,14-1.59,23.67,5.87,27.2,19.51,3.57,13.78-1.35,25.47-13.05,31.24-6.98,3.44-13.93,2.68-20.73-.27-1.41-.61-2.25-2.5-3.36-3.8,1.3-.48,2.56-1.18,3.9-1.42,7.64-1.37,12.9-8.01,12-15.28-.69-5.49-4.94-8.41-10.32-6.94-5.5,1.5-9.3,5.09-11.55,10.24-4.78,10.96.1,26.84,10.1,33.31,6.11,3.95,12.39,4.32,18.14-.19,13.9-10.9,22.69-25.13,23.02-42.93.12-6.68-4.05-13.44-6.22-20.17-.58-1.8-1.01-3.65-1.52-5.47,1.95.57,4.25.65,5.81,1.77,26.21,18.85,45.4,41.75,43.21,76.59-.31,4.96-1,9.95-2.12,14.78-1.54,6.7-7.84,18.89-7.84,18.89m-58.93-65.45l-.43.44c.16-.14.31-.27.46-.41.14-.16.27-.31.41-.47-.15.14-.3.29-.45.43Zm-28.03-31.16l-.15.14c-.29.26-.57.51-.86.77,0,0-.24.16-.24.16-1.57,1.06-3.74,1.76-4.6,3.24-3,5.15-5.55,10.57-8.27,15.89-1.32-.69-2.63-1.39-3.95-2.08.56-2.02,1.04-4.08,1.7-6.06,2.1-6.27,4.28-12.52,6.43-18.78,0-.68,0-1.37.01-2.05.33-.33.67-.67,1-1,.09-2.73,5.58-6.24-1.15-8,.02-5.36,2.4-10.89-1.03-16.73-1.11,3.67-2.02,6.67-2.93,9.67-4.23,4.8-8.23,9.83-12.75,14.35-6.94,6.95-14.05,13.8-17.1,23.42-4.87,15.36-9.33,30.85-13.96,46.29-.69,1.46-1.13,3.12-2.12,4.33-2.61,3.2-5.5,6.18-8.21,9.3-.59.69-.91,1.61-1.36,2.43.89.27,1.78.73,2.68.78,7.93.43,15.87.71,23.8,1.19,3.44.21,4.46-.37,2.71-4-4.63-9.63-2.8-19.42-.52-30.26.64,8.26,1.2,15.34,1.75,22.43,1.16,4.97,1.81,10.28,8.09,11.88-.67-1.31-1.34-2.63-2.01-3.94l.99-1.16c2.69,3.82,6.09,6.54,10.96,6.87,5.62.38,11.25.72,16.88,1.03,2.17.12,3.16.18,2.11-2.96-2.12-6.36-4.08-13.02-4.45-19.65-.42-7.36.97-14.83,1.64-22.24.72-7.98,1.83-15.86,7.14-22.37,6.24-7.66,14.26-12.19,23.24-6.98,7.13,4.14,9.24,9.6,6.12,17.18-.76,1.86-1.68,3.65-3.08,6.68,6.13-4.04,8.69-11.54,7.02-17.51-2.62-9.43-8.32-13.49-19.76-14.07,9.41-5.27,20.34,4.05,22.3,12.53,1.66,7.2-.89,13.34-3.97,19.47-.53.41-1.06.82-1.58,1.23l.33.33c.41-.53.82-1.05,1.23-1.58,1.49-.9,3.26-1.53,4.41-2.74,5.91-6.22,6.05-18.32.45-26.9-2.66-4.07-6.24-6.64-11.2-7.43-9.79-1.56-18.8-.16-26.76,6.11-.33.28-.66.57-.99.85ZM17.79,83.95c-.39.33-.77.66-1.16.99.57-.14,1.14-.28,1.7-.43.39-.28.78-.55,1.17-.83,3.75-1.57,7.51-3.13,11.26-4.7.45-.22.89-.44,1.34-.66.89-.13,1.79-.27,2.68-.4,5.25.43,10.64.27,15.73,1.43,9.04,2.06,18.15,4.51,22.5,14.2-.93-.31-2.03-.41-2.77-.97-10.71-8.26-23.1-9.63-35.89-8.23-7.73.84-14.69,4.01-19.31,10.85-6.43,6.4-7.81,14.79-3.35,21.48.42-.85.95-1.54,1.1-2.31,2.77-14.42,17.78-19.86,30.2-16.19,10.39,3.07,16.15,10.97,20.69,19.68,3.3,6.33,4.99,13.5,7.4,20.29.49,11.11-1.82,21.71-6.11,31.88-1.28,3.04-.87,4.17,2.59,4.18,3.45.01,6.91.49,10.36.76h5.43c-1.89-6.27-3.77-12.49-5.65-18.73-1.34,1.98-3.03,4.48-4.72,6.98-.03-2.03-.06-4.06-.09-6.09,4.31-11.07,8.62-22.15,12.93-33.22,2.55-10.51,1.16-20.32-4.71-29.57-15.04-23.67-40.11-29.63-62.24-11.29-.36.3-.72.61-1.08.91Zm268.16-12.73c-.23,1.05-.47,2.1-.65,3.16,0,.05.51.2.79.3.29-1.15.57-2.3.86-3.45-.57-.61-1.14-1.22-1.71-1.82-.28.32-.57.64-.85.95l1.56.87Zm-4-38.97c-.33,2-.67,4-1,5.99,0,2.33,0,4.66,0,6.99.26.83.51,1.67.77,2.5.41-.83.82-1.67,1.23-2.5.33-1.33.67-2.67,1-4,.63-.11,1.26-.22,1.9-.33-.63-.55-1.26-1.11-1.9-1.66-.33-.33-.67-.67-1-1v-5.99c.91-.95,1.83-1.9,2.74-2.85-.65-.35-1.3-.69-1.95-1.04-.59,1.13-1.19,2.27-1.77,3.41-.07.13-.01.32-.01.48Zm-6,141.88l3.02,1.99c1.49,3.41,4.19,3.45,7.21,2.57,2.86.1,5.73.21,8.59.31,1.13-.09,2.8.28,3.32-.33,4.7-5.48,10.61-10.49,13.49-16.85,7.5-16.59,9.73-34.46,9.34-52.63-.3-.84-.6-1.69-.9-2.53-.27.14-.78.33-.77.4.18.72.44,1.42.69,2.13-.39,13.03-4.38,25.28-8.34,37.5-1.07,3.32-3.18,6.29-4.82,9.43,2.38-8.29,4.91-16.54,7.11-24.88,5.42-20.56,4.29-40.37-6.45-59.28-6.48-11.41-12.34-23.16-18.48-34.75-.54-1.45-1.07-2.9-1.61-4.35-.39.16-1.14.37-1.13.46.2,1.33.5,2.64.78,3.96,3.32,9.96,6.63,19.91,9.95,29.87.3.71.6,1.43.89,2.14h0c-.22,2.22-.44,4.44-.65,6.66l-12.14-31.89c.4,8.23,1.92,16.27,2.88,24.38,1.28,10.81,2.52,21.66,3.04,32.52.37,7.66.62,15.63-1.08,23.01-1.98,8.6-5.71,16.89-9.46,24.96-3.84,8.27-6.39,16.33-2.41,25.19-.69,0-1.38.02-2.08.02-.86-1.93-1.71-3.86-2.57-5.8-.38.26-.76.52-1.13.77l3.7,5.02Zm-141.99,3.78c.36.04.71.08,1.07.12-.39-3.83-.95-7.65-1.14-11.48-.84-16.99,2.68-33.05,10.4-48.21.72-1.42,1.25-2.93,1.87-4.4-12.91,17.03-17.86,36.24-15.76,57.19.24,2.36,2.33,4.53,3.56,6.78ZM85.12,40.52c-.2,8.63,1.43,16.99,5.33,24.6,8.77,17.12,9.7,34.86,5.4,53.23-.22.95.06,2.02.1,3.03-.65.91-1.58,1.73-1.9,2.74-1.3,4.06-2.33,8.2-3.62,12.26-1.91,6-4.43,11.85-5.85,17.96-1.71,7.36-.02,14.2,5.78,19.54.65.6,1.74.71,2.62,1.04-.03-.91.19-1.92-.12-2.73-2.96-7.81-2.53-15.64-.17-23.45,3.07-10.16,6.33-20.27,9.39-30.44,3.06-10.14,3.09-20.24-.76-30.22-1.98-5.97-4.08-11.9-5.9-17.92-2.96-9.8-5.72-19.65-8.57-29.48-.12-1.31-.24-2.62-.36-3.93-.4.04-.8.09-1.2.13-.06,1.21-.12,2.42-.19,3.63Zm160.04,82.65c.27-2.66.54-5.33.81-7.99,1.13-.35,2.26-.69,3.39-1.04-1.16-.31-2.31-.62-3.47-.94-.94-1.73-1.88-3.46-2.82-5.18-.76-1.67-1.52-3.33-2.28-5-.17,15.08-5.37,28.06-13.43,39.97-7.86,11.61-18.99,20.31-37.16,11.91-.3-.07-.61-.14-.91-.22.19.19.37.38.56.57,2.65,3.06,5.3,6.12,7.94,9.19,3.01,1.58,5.87,3.9,9.07,4.6,9.82,2.14,20.66-4.05,27.33-14.27,5.75-8.8,8.54-18.56,10.73-28.61,1.31-.21,2.62-.43,3.94-.64-1.23-.78-2.47-1.57-3.7-2.35Zm-135.05.07c.3-.71.59-1.42.89-2.14.73-2.23,1.45-4.47,2.18-6.7,6.19-12.28,5.2-25.13,3.4-38.19-2.51-18.25-12.62-33.51-19.09-50.2-.63-2.79-1.27-5.59-2.14-9.4-4.54,8.82-5.81,17.08-3.57,25.22,3.03,11,6.77,21.85,10.91,32.49,6.85,17.61,9.73,35.08,1.79,53.19-2.45,5.59-4.16,11.59-5.52,17.55-1.55,6.81-2.41,13.8,2.01,20.13,3.45,9.22,10.12,13.25,18.37,11.01-8.3-9.22-11.99-20.11-11.37-32.35.35-6.9,1.4-13.75,2.14-20.63h0Zm9.92-53.11c-.88-1.89-1.77-3.79-2.65-5.68-.38.2-.77.4-1.15.59l2.71,4.91c.4,2.7.8,5.41,1.2,8.11-.01,5.08-.74,10.29.12,15.21,1.4,8-1.29,15.03-3.85,22.09-5.93,16.35-8.64,32.72-1.29,49.29,1.13,2.56,3.55,4.55,5.37,6.81.83-2.62,1.94-5.18,2.44-7.86,2.66-14.32,4.27-29.09,11.94-41.79,5.96-9.86,13.2-18.99,20.26-28.14,4.66-6.04,9.17-11.99,10.49-18.02-3.5,2.95-8.17,6.4-12.25,10.44-4.67,4.63-9.96,9.18-12.97,14.83-5.57,10.49-9.64,21.78-14.44,32.69-.72,1.63-2.03,2.99-3.07,4.48,1.75-9.61,3.42-19.23,5.27-28.82,2.75-14.21-2.22-26.77-8.13-39.16Zm316.26,110.96c-1.39,5.42-1.38,5.13,4.35,5.36,3.94.16,5.92-1.96,7.25-4.91,10.94-24.32,9.87-47.86-11.24-68.72.24,2.33.45,4.29.65,6.24-.13,3.15-.24,6.31-.4,9.46-.65,12.22-4.22,23.56-11.11,33.63-10.14,14.79-25.94,17.15-40.19,6.41-7.92-5.97-11.96-14.28-14.98-23.65-.71,4.38-.81,8.73-.69,13.08.4,14.78,12.75,26.99,27.38,27.24,2.31.04,4.63.75,6.91.62,2-.11,4.88-.32,5.77-1.6,4.84-6.97,11.91-10.35,19.36-13.43,6.22-2.57,11.82-5.93,15.35-12.12,4.84-8.49,2.39-16.65-.46-24.91-1.14-3.29-2.16-6.61-3.23-9.92,7.84,11.55,12.51,23.63,7.48,37.83-.77,2.17-5.01,4.6-.8,7.53.08.06-.23.97-.55,1.29-3.58,3.51-7.21,6.98-10.82,10.47-.4-.38-.81-.77-1.21-1.15l-.46.74c.55.17,1.11.35,1.66.52Zm-51.32-18.03c-.38-.23-.76-.47-1.15-.68-.03-.01-.19.23-.29.35.43.17.86.34,1.29.5,5.24,9.71,27.93,12.11,35.54.36,4.51-6.97,7.19-15.14,10.56-22.83.79-1.8,1.1-3.82,1.52-5.76.45-2.1.86-4.22,1.13-6.34.22-1.76.22-3.54.32-5.32-2.62,10.2-7.45,19.07-13.68,27.13-8.22,10.63-17.47,20.19-35.24,12.6Zm-137.12,12.07l1.57.26c-.01,5.6,4.33,1.68,6.32,2.89,6.33.1,9.7-2.37,12.33-9.98,3.7-10.71,3.18-21.84.25-32.38-1.96-7.06-6.72-13.33-10.23-19.96-3.3-4.48-6.61-8.96-9.91-13.44.9,5.01,2.48,9.34,4.32,13.55,7.34,16.84,7.7,33.86,1.54,51.08-.64-.33-1.28-.65-1.92-.98,4.68-15.89,4.85-31.6-1.62-47.03-.4,1.17-.37,2.32-.19,3.45,2.56,16.16-.2,31.12-10.45,44.19-2.63,3.36-6.01,6.13-9.03,9.2-.56.57-1.06,1.24-1.43,1.95-.05.1.87,1.02,1.3,1,5.91-.37,12.48,2.09,17.17-3.8Zm-81.98-40.04c.68-11.55,4.95-21.83,12.66-30.2,3.65-3.97,8.78-7.36,13.89-9.02,7.51-2.45,15.27-1.32,21.36,4.58,5.05,4.9,6.05,11.26,3.81,17.51-1.59,4.43-4.9,8.24-7.43,12.33,2.89-1.21,6.07-2.72,8.18-5.16,8.21-9.51,3.17-29.4-8.42-34.21-11.16-4.62-29.43.79-34.73,11.55-5.84,11.86-10.19,24.45-15.2,36.72.22-5.46-.53-11.19.89-16.32,2.06-7.46,5.7-14.48,8.62-21.7,2.55-6.33,4.32-12.79,3.25-19.59-1.41,4.55-2.63,9.17-4.27,13.64-4.91,13.36-10.86,26.42-14.74,40.07-3.75,13.18-3.36,26.62,5.08,38.68,2.13,3.05,4.43,4.84,8.23,4.16,1.6.23,3.2.47,4.81.7,7.68.08,15.36.16,23.04.23,6.82.02,13.67.42,20.45-.09,3.81-.28,8.16-1.16,11.13-3.33,15.27-11.15,24.2-25.56,21.16-45.39-.22.2-.56.36-.64.6-.39,1.26-.7,2.55-1.06,3.82-3.22,11.27-6.91,22.48-16.34,30.18-14.28,11.66-28.11,11.68-39.94-4.64-3.38-4.66-5.42-10.27-8.74-14.97-8.56-12.11-1.1-32.13,7.85-39.17,5.44-4.28,13.85-4.72,19.5-.62,5.33,3.87,5.67,9.35,3.81,15.22-.15.46-.07.99-.1,1.49-.13.15-.27.31-.4.46.15-.14.3-.27.45-.41,3.82-3.27,4.76-7.38,3.45-12.08-3.31-11.88-15.56-14.81-25.33-10.24-15.02,7.03-27.49,30.81-17.33,49.16.51.93-.45,2.68-.73,4.05-2.06-6-4.12-12-6.18-18Zm-23.91,43.17c3.38.05,6.77.09,10.15.14,2.23.48,4.45.96,6.68,1.43.05-.58.1-1.16.15-1.74-4.81-5.48-8.87-11.6-8.9-19-.05-9.69-.08-19.6,1.86-29.02,1.81-8.81,6.21-17.08,9.45-25.6,2.42-6.35,4.8-12.72,7.2-19.08-.51-.22-1.02-.45-1.54-.67-4.9,8.18-9.75,16.4-14.7,24.54-10.55,17.33-16.45,35.97-16.36,56.41.02,4.92,1.34,9.06,5.07,12.34.31.08.63.16.94.24Zm-115.11-5.53c7.85.62,14.71,1.11,20.33-6.89,8-11.4,14.28-22.89,12.68-37.17-.52-4.68-2.4-9.22-3.84-13.77-.22-.7-1.45-1.08-2.22-1.6-.05.83-.34,1.73-.12,2.49,3.07,10.94,1.29,21.38-3.25,31.5-4.96,11.08-12.85,19.53-23.58,25.45Zm417.48-57.28c17.93,22.28,16.34,45.94,5.26,70.25,9.06,1.18,10.39.25,12.66-8.12,2.75-10.17,2.28-20.42.35-30.55-2.35-12.32-7.97-23.05-18.27-31.57Zm-377.42,15.47l-.53.33c-1.05,5.56-1.18,11.52-3.37,16.59-3.32,7.67-8.08,14.72-12.21,22.04-.46.81-.84,1.67-1.26,2.5.89.26,1.77.64,2.69.76,1.15.15,2.46-.23,3.46.2,3.67,1.57,5.13-.17,6.01-3.44,2.02-7.5,4.81-14.87,6.01-22.49.84-5.32-.45-10.98-.79-16.48Zm216.65-63.63c.61-.05,1.22-.09,1.83-.14-.94-5.15-1.89-10.3-2.83-15.45-.52.09-1.05.18-1.57.26.86,5.11,1.72,10.22,2.57,15.32Zm155.75,40.77l-1.45,1.21c1.33,1.59,2.67,3.17,4,4.76l1.3-1.01c-1.28-1.65-2.57-3.3-3.85-4.96Zm-314.75,63.8c-.28-.12-.55-.24-.83-.36-.12.28-.39.61-.31.81.08.2.51.26.78.37.12-.28.24-.55.36-.83Zm25.14-65.25c-.12.28-.24.55-.36.83.28.12.61.39.81.31.2-.08.26-.51.37-.78-.28-.12-.55-.24-.83-.36ZM11.82,89.51l-.51.74c.26.06.53.15.79.15.09,0,.29-.32.26-.36-.14-.2-.35-.36-.54-.53Zm135.79,22.95c.05-.14.13-.28.13-.42,0-.05-.23-.09-.35-.13-.05.14-.13.28-.13.42,0,.05.23.09.35.13Zm-94.61-1.53c.13-.07.26-.14.4-.22-.11-.09-.22-.25-.35-.26-.12-.01-.26.13-.39.2.11.09.23.19.34.28Z"/><path class="cls-4" d="m449.89,192.87c2.1-.55,4.21-1.09,6.31-1.64-2.1.55-4.21,1.09-6.31,1.64Z"/><path class="cls-4" d="m92.88,105.73c-.29,1.28-.58,2.57-.88,3.85-.33-1.12-.66-2.25-.99-3.37.62-.16,1.25-.32,1.87-.48Z"/><path class="cls-4" d="m229.14,82.13c-.43.44-.85.87-1.28,1.31-.82-.89-1.63-1.78-2.45-2.66.22-.27.43-.55.65-.82,1.03.73,2.05,1.45,3.08,2.18Z"/><path class="cls-2" d="m166.9,51.59c.85-.37,1.39-.74,1.96-.78.27-.02.89.66.83.88-.13.48-.56.93-.97,1.26-.08.06-.63-.46-1.82-1.35Z"/><path class="cls-4" d="m1.69,97.39c-.37.94-.75,1.87-1.12,2.81.37-.94.75-1.87,1.12-2.81Z"/><path class="cls-4" d="m135.05,98.37c-.33.51-.66,1.02-.99,1.53-.25-.46-.51-.93-.76-1.39.58-.04,1.17-.09,1.75-.13Z"/><path class="cls-4" d="m276.93,144.11c-.4.54-.8,1.08-1.2,1.62.01-.5.03-.99.04-1.49.39-.04.78-.09,1.16-.13Z"/><path class="cls-4" d="m327.93,105.5c-.48.37-.97.74-1.45,1.12.18-.49.36-.98.54-1.47.32.08.62.2.91.35Z"/><path class="cls-4" d="m96.28.26c-.68.04-1.35.09-2.03.13.68-.04,1.35-.09,2.03-.13Z"/><path class="cls-2" d="m420.76,87.56c-.12.21-.24.43-.36.64-.11-.11-.33-.25-.31-.33.05-.24.2-.45.31-.67.11.11.22.22.36.36Z"/><path class="cls-10" d="m388.64,102.12c11.43.58,17.13,4.63,19.76,14.07,1.66,5.97-.9,13.47-7.02,17.51,1.41-3.03,2.32-4.83,3.08-6.68,3.12-7.58,1.01-13.04-6.12-17.18-8.98-5.21-17-.67-23.24,6.98-5.31,6.52-6.42,14.4-7.14,22.37-.67,7.41-2.06,14.88-1.64,22.24.37,6.63,2.33,13.29,4.45,19.65,1.05,3.14.06,3.08-2.11,2.96-5.63-.31-11.25-.65-16.88-1.03-4.87-.33-8.27-3.05-10.96-6.87,0,0,.33-.16.33-.16-.1-1.29-.2-2.57-.31-3.86-.25-3.11-.77-6.22-.71-9.32.15-7.32.54-14.63.93-21.94.06-1.25.55-2.47.85-3.7l.46-.04h.46c.09,1.98.18,3.96.34,7.41,2.17-8.06,3.96-14.71,5.75-21.36,2.08-3.91,4.28-7.75,6.16-11.75.66-1.39.52-3.16.74-4.75.19-.51.37-1.02.56-1.53,1.39-1.07,3.02-1.95,4.12-3.27,1.09-1.31,1.64-3.06,2.42-4.62-2.15,6.26-4.32,12.51-6.43,18.78-.67,1.99-1.14,4.04-1.7,6.06-.33,1.66-.66,3.32-.99,4.98-.31,1.36-.63,2.71-.94,4.07.32,1.73.64,3.45.97,5.18v8.79c.25,0,.5-.01.75-.02.78-5.31,1.57-10.62,2.35-15.93.03-.3.05-.61.06-.91.58-1.36,1.16-2.72,1.75-4.08,2.72-5.32,5.27-10.73,8.27-15.89.86-1.47,3.03-2.18,4.6-3.24-.29.9-.38,1.94-.92,2.66-10,13.45-14.22,28.72-13.65,45.25.23,6.73,1.03,13.62,5.41,19.41.47-7.79.41-15.52.49-23.24.13-13.73,4.48-26.09,12.72-36.98,3.35-4.42,6.75-9.18,12.99-10.04Zm-33.97,46.66c-.42-.03-.84-.05-1.26-.08v8.15h.37c.3-2.69.6-5.38.89-8.07Z"/><path class="cls-16" d="m172.06,153.08c.28-1.37,1.24-3.12.73-4.05-10.16-18.35,2.31-42.13,17.33-49.16,9.77-4.57,22.02-1.63,25.33,10.24,1.31,4.7.37,8.82-3.45,12.08l-.05-.05c.03-.5-.05-1.03.1-1.49,1.87-5.87,1.52-11.35-3.81-15.22-5.65-4.1-14.06-3.66-19.5.62-8.95,7.04-16.41,27.06-7.85,39.17,3.32,4.7,5.36,10.32,8.74,14.97,11.84,16.32,25.67,16.3,39.94,4.64,9.43-7.7,13.12-18.91,16.34-30.18.36-1.27.67-2.56,1.06-3.82.08-.24.42-.4.64-.6,3.04,19.82-5.89,34.24-21.16,45.39-2.97,2.17-7.33,3.04-11.13,3.33-6.78.51-13.63.11-20.45.09-.95-.64-1.91-1.27-2.85-1.92-8.9-6.15-16.24-13.6-19.98-24.04Z"/><path class="cls-12" d="m440.99,123.87c1.07,3.31,2.1,6.64,3.24,9.92,2.86,8.26,5.3,16.42.46,24.91-3.53,6.19-9.13,9.55-15.35,12.12-7.45,3.08-14.53,6.46-19.36,13.43-.89,1.28-3.77,1.49-5.77,1.6-2.28.13-4.6-.58-6.91-.62-14.63-.25-26.98-12.47-27.38-27.24-.12-4.35-.02-8.7.69-13.08,3.02,9.37,7.06,17.68,14.98,23.65,14.24,10.73,30.05,8.37,40.19-6.41,6.9-10.06,10.47-21.41,11.11-33.63.17-3.15.27-6.31.4-9.46,1.23,1.6,2.47,3.21,3.7,4.81Z"/><path class="cls-8" d="m333.76,169.38c-.55-7.08-1.11-14.17-1.75-22.43-2.28,10.84-4.11,20.64.52,30.26,1.75,3.63.73,4.21-2.71,4-7.93-.48-15.87-.76-23.8-1.19-.91-.05-1.79-.51-2.68-.78.45-.82.76-1.74,1.36-2.43,2.71-3.12,5.59-6.1,8.21-9.3.99-1.21,1.43-2.87,2.12-4.33.83-.72,2.05-1.27,2.43-2.17,3.59-8.68,7.89-17.19,10.35-26.19,5.03-18.37,14.82-33.34,29.27-45.48-1.1,3.41-1.95,6.94-3.35,10.23-3.8,8.92-7.84,17.73-11.78,26.59-2.33,9.99-4.65,19.99-6.98,29.98-.4,4.41-.79,8.82-1.19,13.23Z"/><path class="cls-9" d="m72.89,157.13c.03,2.03.06,4.06.09,6.09,1.65,3.92,3.29,7.83,4.94,11.75-3.45-.27-6.91-.75-10.36-.76-3.46-.01-3.87-1.14-2.59-4.18,4.3-10.17,6.6-20.77,6.11-31.88.32-1.23.84-2.45.92-3.7.98-15.9-7.03-27.36-19.09-36.17-11.01-8.04-23.06-8.55-35.13-1.88-1.8,1-2.97,1.83-2.74-1.2,4.62-6.84,11.58-10.01,19.31-10.85,12.78-1.4,25.18-.03,35.89,8.23.74.57,1.84.66,2.77.97,1.33,3.32,3.32,6.53,3.88,9.98,2.21,13.73,1.92,27.32-2.61,40.73-1.35,3.99-.98,8.56-1.4,12.86Z"/><path class="cls-13" d="m122.89,138.11c1.04-1.49,2.36-2.85,3.07-4.48,4.8-10.91,8.87-22.2,14.44-32.69,3-5.66,8.29-10.21,12.97-14.83,4.08-4.04,8.75-7.5,12.25-10.44-1.32,6.03-5.83,11.98-10.49,18.02-7.06,9.15-14.29,18.28-20.26,28.14-7.68,12.69-9.28,27.46-11.94,41.79-.5,2.68-1.61,5.24-2.44,7.86-1.82-2.26-4.23-4.25-5.37-6.81-7.35-16.58-4.64-32.95,1.29-49.29,2.56-7.06,5.26-14.1,3.85-22.09-.86-4.93-.14-10.13-.12-15.21,3.62,9.08,5.28,18.59,4.02,28.2-1.18,9.01-3.84,17.82-5.49,26.78-1.26,6.86-1.62,13.8,1.08,21.92,1.24-6.64,2.19-11.75,3.14-16.85Z"/><path class="cls-25" d="m294.78,179.01c-2.86-.1-5.73-.21-8.6-.31,0,0-.16-.07-.16-.07.95-1.16,1.91-2.32,2.86-3.48,2.11-2.51,4.96-4.69,6.2-7.57,8.79-20.36,16.92-41.08,14.7-63.84-1.19-12.25-5.72-23.75-11.95-34.47,0,0,0,0,0,0-.3-.71-.6-1.43-.89-2.14-3.32-9.96-6.63-19.91-9.95-29.87.65-.02,1.3-.05,1.95-.07,6.14,11.6,12.01,23.35,18.48,34.75,10.74,18.91,11.87,38.73,6.45,59.28-2.2,8.34-4.73,16.59-7.11,24.88,0,0,.11-.04.11-.04-.35.66-.7,1.31-1.04,1.97-3.69,6.99-7.38,13.97-11.07,20.96Z"/><path class="cls-9" d="m141.03,178.02c-3.73-3.28-5.05-7.42-5.07-12.34-.09-20.44,5.81-39.08,16.36-56.41,4.96-8.15,9.81-16.36,14.7-24.54.51.22,1.02.45,1.54.67-2.4,6.36-4.79,12.73-7.2,19.08-3.24,8.52-7.64,16.79-9.45,25.6-1.94,9.41-1.91,19.33-1.86,29.02.03,7.4,4.09,13.52,8.9,19-2.28.1-4.55.21-6.83.31-3.38-.05-6.77-.09-10.15-.14-.31-.11-.62-.19-.94-.24Z"/><path class="cls-6" d="m297.84,69.28c6.23,10.71,10.76,22.21,11.95,34.47,2.22,22.76-5.9,43.47-14.7,63.84-1.24,2.88-4.1,5.06-6.2,7.57-3.04-1-4.3-2.95-3.97-6.26.35-3.56.23-7.17.31-10.76.08-.26.16-.53.23-.8.33-.66.66-1.32,1-1.98,1.92-4.91,3.62-9.91,5.8-14.7,7.51-16.55,13.49-33.41,9.56-51.95-.87-4.13.73-9.64-4.84-12.02.12-.23.2-.48.22-.75.22-2.22.44-4.44.65-6.66Z"/><path class="cls-15" d="m297.19,75.94c-.02.27-.09.52-.22.75.04.83-.08,1.7.15,2.47,5.46,19.02,2.97,37.11-5.43,54.88-3.13,6.62-4.57,14.05-6.78,21.1-.3.67-.61,1.34-.91,2-.04.33-.06.66-.05,1-2.26,7.13-3.31,14.14,2.09,20.49,0,0,.15.07.16.07-3.02.88-5.72.83-7.21-2.58-.31-.67-.63-1.34-.94-2.01-3.97-8.86-1.43-16.92,2.41-25.19,3.75-8.06,7.48-16.36,9.46-24.96,1.7-7.38,1.44-15.35,1.08-23.01-.52-10.87-1.75-21.71-3.04-32.52-.96-8.1-2.48-16.14-2.88-24.38l12.14,31.89Z"/><path class="cls-19" d="m388.64,102.12c-6.24.86-9.64,5.62-12.99,10.04-8.24,10.89-12.6,23.25-12.72,36.98-.07,7.72-.01,15.44-.49,23.24-4.38-5.79-5.17-12.68-5.41-19.41-.57-16.53,3.65-31.8,13.65-45.25.53-.72.62-1.77.92-2.66,0,0,.24-.16.24-.16.29-.26.57-.51.86-.77,0,0,.15-.14.15-.14.33-.28.66-.57.99-.85,7.96-6.26,16.97-7.66,26.76-6.11,4.97.79,8.54,3.36,11.2,7.43,5.6,8.58,5.46,20.68-.45,26.9-1.15,1.21-2.93,1.84-4.41,2.74l.03.02c3.08-6.13,5.62-12.27,3.97-19.47-1.95-8.49-12.89-17.8-22.3-12.53Z"/><path class="cls-21" d="m171.84,178.81c-1.6-.23-3.2-.47-4.81-.7-7.43-9.95-9.78-21.28-8.84-33.42.15-1.87,1.17-3.67,1.79-5.5,5-12.27,9.36-24.86,15.2-36.72,5.3-10.76,23.57-16.17,34.73-11.55,11.6,4.8,16.63,24.69,8.42,34.21-2.11,2.44-5.29,3.95-8.18,5.16,2.54-4.09,5.84-7.9,7.43-12.33,2.25-6.25,1.24-12.61-3.81-17.51-6.09-5.9-13.85-7.03-21.36-4.58-5.11,1.67-10.23,5.06-13.89,9.02-7.71,8.37-11.98,18.65-12.66,30.2-.7,7.08-2.75,14.35-1.74,21.18,1.14,7.73,5.02,15.05,7.71,22.55Z"/><path class="cls-20" d="m113.18,114.4c-.73,2.23-1.45,4.47-2.18,6.7-.3.71-.59,1.42-.89,2.14,0,0,0,0,0,0-.38.51-.88.96-1.12,1.53-5.5,12.92-7.86,26.46-8.02,40.44-4.43-6.33-3.56-13.32-2.01-20.13,1.36-5.97,3.07-11.96,5.52-17.55,7.94-18.11,5.06-35.58-1.79-53.19-4.14-10.64-7.88-21.49-10.91-32.49-2.24-8.14-.97-16.39,3.57-25.22.87,3.81,1.5,6.6,2.13,9.4-1.9,16.87,1.91,32.63,9.27,47.7,5.99,12.27,10.69,24.73,6.35,38.7-.18.59.04,1.32.07,1.98Z"/><path class="cls-25" d="m190.2,154.91c18.16,8.4,29.3-.3,37.15-11.91,8.06-11.92,13.26-24.89,13.43-39.97.76,1.67,1.52,3.33,2.28,5,0,3.32-.17,6.65.03,9.96.58,9.76-1.95,18.73-6.63,27.17-5.72,10.33-13.44,18.21-25.87,19.5-4.22.44-8.54-.11-12.81-.2-2.65-3.06-5.3-6.12-7.94-9.19.12-.12.24-.23.36-.36Z"/><path class="cls-6" d="m113.18,114.4c-.03-.66-.26-1.38-.07-1.98,4.34-13.97-.36-26.43-6.35-38.7-7.36-15.07-11.17-30.83-9.27-47.7,6.47,16.69,16.59,31.94,19.1,50.2,1.8,13.06,2.79,25.91-3.4,38.19Z"/><path class="cls-8" d="m255.74,178.27c-1.99-1.21-6.33,2.71-6.33-2.89,1.54-2.74,3.07-5.49,4.61-8.23,6.16-17.23,5.8-34.25-1.54-51.09-1.84-4.22-3.42-8.55-4.32-13.55,3.3,4.48,6.61,8.96,9.91,13.44.98,2.78,2.15,5.51,2.91,8.35,4.87,18.1,8.93,36.15-4.88,52.54-.29.34-.26.95-.37,1.43Z"/><path class="cls-16" d="m15.05,95.2c-.23,3.04.93,2.2,2.74,1.2,12.07-6.67,24.12-6.16,35.13,1.88,12.06,8.8,20.06,20.26,19.09,36.17-.08,1.25-.6,2.47-.92,3.7-2.41-6.79-4.1-13.96-7.4-20.29-4.54-8.71-10.29-16.61-20.69-19.68-12.42-3.67-27.43,1.77-30.2,16.19-.15.77-.68,1.46-1.1,2.31-4.46-6.69-3.08-15.08,3.35-21.48Z"/><path class="cls-6" d="m171.84,178.81c-2.69-7.5-6.57-14.82-7.71-22.55-1.01-6.83,1.04-14.1,1.74-21.18,2.06,6,4.12,12,6.18,18,3.74,10.44,11.08,17.89,19.98,24.04.94.65,1.9,1.28,2.85,1.92-7.68-.08-15.36-.16-23.04-.24Z"/><path class="cls-7" d="m247.85,175.13c-4.69,5.88-11.25,3.42-17.17,3.8-.43.03-1.35-.9-1.3-1,.37-.71.87-1.37,1.43-1.95,3.01-3.07,6.39-5.84,9.03-9.2,10.25-13.07,13.01-28.03,10.45-44.19-.18-1.13-.21-2.29.19-3.45,6.47,15.43,6.3,31.14,1.62,47.03-1.42,2.98-2.83,5.97-4.25,8.95Z"/><path class="cls-16" d="m159.99,139.19c-.62,1.83-1.64,3.63-1.79,5.5-.94,12.14,1.41,23.47,8.84,33.42-3.8.69-6.09-1.11-8.23-4.16-8.45-12.06-8.84-25.49-5.08-38.68,3.88-13.65,9.84-26.7,14.74-40.07,1.64-4.46,2.86-9.08,4.27-13.64,1.07,6.8-.7,13.26-3.25,19.59-2.91,7.23-6.56,14.25-8.62,21.7-1.42,5.13-.67,10.86-.89,16.32Z"/><path class="cls-5" d="m72.89,157.13c.42-4.3.05-8.87,1.4-12.86,4.53-13.42,4.83-27.01,2.61-40.73-.56-3.45-2.55-6.66-3.88-9.98-4.36-9.68-13.47-12.14-22.5-14.19-5.09-1.16-10.48-1-15.73-1.43,8.43-3.15,16.76-1.63,24.82,1.15,15.04,5.21,21.01,17.32,23.46,31.95.72,4.32,1.83,8.58,2.76,12.87-4.31,11.07-8.62,22.15-12.93,33.22Z"/><path class="cls-11" d="m26.86,172.73c10.73-5.92,18.61-14.37,23.58-25.45,4.54-10.12,6.32-20.56,3.25-31.5-.21-.76.07-1.66.12-2.49.76.53,1.99.91,2.22,1.6,1.44,4.55,3.31,9.09,3.84,13.77,1.6,14.28-4.68,25.77-12.68,37.17-5.62,8-12.47,7.51-20.33,6.89Z"/><path class="cls-15" d="m444.34,115.45c10.29,8.52,15.91,19.25,18.27,31.57,1.94,10.13,2.41,20.38-.35,30.55-2.27,8.38-3.6,9.3-12.66,8.12,11.08-24.31,12.67-47.97-5.26-70.25Z"/><path class="cls-16" d="m357.06,89.35c-14.45,12.15-24.24,27.11-29.27,45.48-2.46,9-6.76,17.51-10.35,26.19-.37.9-1.6,1.46-2.43,2.17,4.63-15.43,9.09-30.92,13.96-46.29,3.05-9.62,10.16-16.47,17.1-23.42,4.51-4.52,8.52-9.55,12.75-14.35-.32,3.01-.64,6.02-.96,9.04-.29.36-.57.73-.86,1.09l.05.08Z"/><path class="cls-14" d="m101.33,88.1c3.85,9.98,3.82,20.09.76,30.22-3.07,10.17-6.32,20.28-9.39,30.44-2.36,7.81-2.79,15.64.17,23.45.31.81.09,1.81.12,2.73-.89-.34-1.98-.45-2.62-1.04-5.8-5.34-7.48-12.18-5.78-19.54,1.42-6.11,3.93-11.96,5.85-17.96,1.29-4.06,2.32-8.21,3.62-12.26.32-1.01,1.25-1.83,1.9-2.74,1-1.98,2.66-3.89,2.9-5.96,1.05-9.08,1.69-18.22,2.48-27.33Z"/><path class="cls-15" d="m384.98,163.06c17.77,7.6,27.02-1.97,35.24-12.6,6.23-8.06,11.06-16.92,13.68-27.13-.1,1.77-.1,3.56-.32,5.32-.27,2.13-.67,4.25-1.13,6.34-.42,1.94-.73,3.96-1.52,5.76-3.37,7.69-6.04,15.86-10.56,22.83-7.61,11.75-30.31,9.35-35.54-.36l.15-.18Z"/><path class="cls-18" d="m440.99,123.87c-1.24-1.6-2.47-3.21-3.7-4.81-.2-1.95-.41-3.91-.65-6.24,21.11,20.86,22.19,44.41,11.24,68.72-1.33,2.95-3.3,5.06-7.25,4.91-5.73-.23-5.74.06-4.35-5.36,0,0,.01-.1.01-.1,3.61-3.48,7.24-6.96,10.82-10.47.32-.32.64-1.23.55-1.29-4.21-2.93.04-5.36.8-7.53,5.02-14.2.35-26.28-7.48-37.83Z"/><path class="cls-24" d="m122.89,138.11c-.95,5.1-1.9,10.21-3.14,16.85-2.69-8.13-2.34-15.06-1.08-21.92,1.65-8.96,4.31-17.77,5.49-26.78,1.26-9.61-.4-19.12-4.02-28.2-.4-2.7-.8-5.41-1.2-8.11.36.06.73.12,1.09.18,5.91,12.39,10.87,24.95,8.13,39.16-1.85,9.59-3.52,19.21-5.27,28.82Z"/><path class="cls-8" d="m100.98,165.2c.16-13.98,2.51-27.52,8.02-40.44.24-.57.74-1.02,1.12-1.53-.74,6.88-1.79,13.73-2.14,20.63-.62,12.23,3.07,23.13,11.37,32.35-8.25,2.24-14.92-1.78-18.37-11.01Z"/><path class="cls-21" d="m85.82,123.91c-.93-4.29-2.04-8.55-2.76-12.87-2.45-14.63-8.42-26.74-23.46-31.95-8.05-2.79-16.38-4.31-24.82-1.15-.9.13-1.79.27-2.68.4-.45.22-.89.44-1.34.66-3.75,1.57-7.51,3.13-11.26,4.7-.2-.22-.41-.44-.63-.64,22.13-18.34,47.2-12.38,62.24,11.29,5.87,9.25,7.26,19.06,4.71,29.57Z"/><path class="cls-15" d="m294.78,179.01c3.69-6.99,7.38-13.97,11.07-20.96.35-.66.7-1.31,1.04-1.97,0,0-.11.04-.11.04,1.63-3.13,3.75-6.11,4.82-9.43,3.96-12.22,7.95-24.47,8.34-37.5,0,0,.49,0,.49,0l.49.02c.38,18.17-1.84,36.04-9.34,52.63-2.87,6.36-8.78,11.37-13.49,16.85-.52.61-2.19.24-3.32.33Z"/><path class="cls-25" d="m255.74,178.27c.12-.48.09-1.09.37-1.43,13.81-16.39,9.75-34.44,4.88-52.54-.76-2.84-1.93-5.57-2.91-8.35,3.51,6.62,8.27,12.9,10.23,19.96,2.93,10.54,3.46,21.67-.25,32.38-2.63,7.61-6,10.08-12.33,9.98Z"/><path class="cls-8" d="m197.79,164.45c4.27.1,8.59.64,12.81.2,12.43-1.29,20.15-9.17,25.87-19.5,4.67-8.44,7.21-17.42,6.63-27.17-.2-3.31-.03-6.64-.03-9.96.94,1.73,1.88,3.45,2.82,5.18.03.66.05,1.32.08,1.97-.27,2.66-.54,5.33-.81,7.99-.08,1-.16,2-.23,3-2.19,10.06-4.98,19.82-10.73,28.61-6.67,10.22-17.51,16.41-27.33,14.27-3.21-.7-6.06-3.02-9.07-4.6Z"/><path class="cls-15" d="m66.92,130.92c.34,5.51,1.63,11.16.79,16.48-1.2,7.62-3.99,14.99-6.01,22.49-.88,3.27-2.34,5.01-6.01,3.44-1-.43-2.31-.04-3.46-.2-.91-.12-1.79-.5-2.69-.76.42-.84.8-1.69,1.26-2.5,4.13-7.32,8.89-14.37,12.21-22.04,2.19-5.07,2.32-11.03,3.37-16.59l.53-.33Z"/><path class="cls-21" d="m357.86,88.18c.32-3.01.64-6.02.96-9.04.91-3,1.81-6,2.92-9.67,3.43,5.84,1.05,11.36,1.03,16.73-2.14,6.31-4.27,12.63-6.41,18.94-.19.51-.37,1.02-.56,1.53-4.21,6.98-8.42,13.96-12.63,20.94-.42-.48-.84-.96-1.26-1.44,3.94-8.86,7.98-17.67,11.78-26.59,1.4-3.29,2.25-6.81,3.35-10.23,0,0-.05-.08-.05-.08.28-.36.57-.73.86-1.09Z"/><path class="cls-22" d="m101.33,88.1c-.79,9.11-1.43,18.25-2.48,27.33-.24,2.07-1.89,3.97-2.9,5.96-.05-1.01-.33-2.08-.1-3.03,4.31-18.37,3.37-36.11-5.4-53.23-3.9-7.62-5.53-15.97-5.33-24.61.58.06,1.16.11,1.74.17,2.85,9.83,5.61,19.69,8.57,29.48,1.82,6.02,3.92,11.95,5.9,17.92Z"/><path class="cls-23" d="m133.96,177.91c-1.23-2.26-3.32-4.43-3.56-6.78-2.1-20.95,2.85-40.16,15.76-57.19-.62,1.47-1.15,2.98-1.87,4.4-7.73,15.16-11.24,31.22-10.4,48.21.19,3.84.75,7.66,1.14,11.48-.36-.04-.71-.08-1.07-.12Z"/><path class="cls-5" d="m77.92,174.97c-1.65-3.92-3.29-7.84-4.94-11.75,1.69-2.5,3.38-4.99,4.72-6.98,1.88,6.24,3.76,12.46,5.65,18.73h-5.43Z"/><path class="cls-11" d="m333.76,169.38c.4-4.41.79-8.82,1.19-13.23,3.96,2.08.66,5.15,1.04,7.71-.28,1.3-1.13,2.83-.73,3.87,1.28,3.29,3.02,6.4,4.58,9.58.67,1.31,1.34,2.63,2.01,3.94-6.28-1.6-6.93-6.9-8.09-11.88Z"/><path class="cls-17" d="m356.37,105.14c2.14-6.31,4.27-12.63,6.41-18.94,6.72,1.76,1.24,5.26,1.15,8-.33.33-.67.67-1,1,0,.68,0,1.37-.01,2.05-.79,1.56-1.34,3.31-2.42,4.62-1.1,1.32-2.72,2.2-4.12,3.27Z"/><path class="cls-10" d="m283.57,67.29c-.86-5.11-1.72-10.22-2.57-15.32.52-.09,1.05-.18,1.57-.26.94,5.15,1.89,10.3,2.83,15.45-.61.05-1.22.09-1.83.14Z"/><path class="cls-4" d="m339.83,177.31c-1.56-3.18-3.31-6.29-4.58-9.58-.4-1.04.45-2.57.73-3.87,1.08,2.75,2.16,5.51,3.24,8.26.64,1.29,1.29,2.58,1.93,3.87,0,0-.33.16-.33.16-.33.39-.66.77-.99,1.16Z"/><path class="cls-17" d="m247.85,175.13c1.42-2.98,2.83-5.97,4.25-8.95.64.33,1.28.65,1.92.98-1.54,2.74-3.08,5.48-4.61,8.23-.52-.08-1.04-.17-1.56-.26Z"/><path class="cls-17" d="m282.95,38.25c.33.33.67.67,1,1,0,.66,0,1.33,0,1.99-.33,1.33-.67,2.67-1,4h-2v-6.99c.67,0,1.33,0,2,0Z"/><path class="cls-17" d="m358.73,124.18c-.58,1.36-1.16,2.72-1.75,4.08-1.02-.36-2.04-.72-3.06-1.08l-.13-.09c.33-1.66.66-3.32.99-4.98,1.32.69,2.63,1.39,3.95,2.08Z"/><path class="cls-17" d="m275.95,174.13c-1.23-1.67-2.47-3.35-3.7-5.02.38-.26.76-.52,1.13-.77.86,1.93,1.71,3.86,2.57,5.8h0Z"/><path class="cls-15" d="m439.33,108.06c1.28,1.65,2.57,3.3,3.85,4.96l-1.3,1.01c-1.33-1.59-2.67-3.17-4-4.76l1.45-1.21Z"/><path class="cls-17" d="m244.92,126.17c.08-1,.16-2,.23-3,1.23.78,2.47,1.57,3.7,2.35-1.31.21-2.62.43-3.94.64Z"/><path class="cls-17" d="m281.95,32.25c0-.16-.06-.35.01-.48.58-1.14,1.18-2.27,1.77-3.41.65.35,1.3.69,1.95,1.04-.91.95-1.82,1.9-2.74,2.85-.33,0-.67,0-1,0Z"/><path class="cls-4" d="m288.96,37.21c-.65.02-1.3.05-1.95.07-.28-1.32-.58-2.63-.78-3.96-.01-.1.73-.3,1.13-.46.54,1.45,1.07,2.9,1.61,4.35Z"/><path class="cls-3" d="m281.95,32.25c.33,0,.67,0,1,0v5.99c-.67,0-1.33,0-2,0,.33-2,.67-4,1-5.99Z"/><path class="cls-4" d="m120.03,70.13c-.36-.06-.73-.12-1.09-.18-.9-1.64-1.81-3.27-2.71-4.91.38-.2.77-.4,1.15-.59.88,1.89,1.77,3.79,2.65,5.68Z"/><path class="cls-4" d="m152.12,178.4c2.28-.1,4.55-.2,6.83-.31-.05.58-.1,1.16-.15,1.74-2.23-.48-4.45-.96-6.68-1.43Z"/><path class="cls-4" d="m86.86,40.69c-.58-.06-1.16-.11-1.74-.17.06-1.21.12-2.42.19-3.63.4-.04.8-.09,1.2-.13.12,1.31.24,2.62.36,3.93Z"/><path class="cls-17" d="m245.97,115.18c-.03-.66-.05-1.32-.08-1.97,1.16.31,2.31.62,3.47.94-1.13.35-2.26.69-3.39,1.04Z"/><path class="cls-3" d="m286.95,71.22c-.29,1.15-.57,2.3-.86,3.45-.27-.1-.8-.25-.79-.3.18-1.06.42-2.11.65-3.16.33,0,.67,0,1,0Z"/><path class="cls-17" d="m286.95,71.22c-.33,0-.67,0-1,0-.52-.29-1.04-.58-1.56-.87.28-.32.57-.64.85-.95.57.61,1.14,1.22,1.71,1.82Z"/><path class="cls-3" d="m320.93,109.21l-.49-.02s-.49,0-.49,0c-.24-.71-.5-1.4-.69-2.13-.02-.06.5-.26.77-.4.3.84.6,1.69.9,2.53Z"/><path class="cls-17" d="m278.03,174.11c.31.67.63,1.34.94,2.01-1.01-.66-2.01-1.33-3.02-1.99h0c.69,0,1.38-.02,2.08-.02Z"/><path class="cls-3" d="m280.95,45.24h2c-.41.83-.82,1.67-1.23,2.5-.26-.83-.51-1.67-.77-2.5Z"/><path class="cls-3" d="m283.95,41.24c0-.66,0-1.33,0-1.99.63.55,1.26,1.11,1.9,1.66-.63.11-1.26.22-1.9.33Z"/><path class="cls-4" d="m406.95,134.1c-.41.53-.82,1.05-1.23,1.58l-.33-.33c.53-.41,1.06-.82,1.58-1.23,0,0-.03-.02-.03-.02Z"/><path class="cls-17" d="m124.58,171.86c-.12.28-.24.55-.36.83-.28-.12-.71-.18-.78-.37-.08-.2.19-.54.31-.81.28.12.55.24.83.36Z"/><path class="cls-4" d="m149.72,106.61c.28.12.55.24.83.36-.12.28-.18.71-.37.78-.2.08-.54-.19-.81-.31.12-.28.24-.55.36-.83Z"/><path class="cls-4" d="m11.82,89.51c.19.17.39.33.54.53.03.04-.16.36-.26.36-.26,0-.53-.09-.79-.15.17-.25.34-.49.51-.74Z"/><path class="cls-4" d="m436.3,180.98s-.01.1-.01.1c-.55-.17-1.11-.34-1.66-.51l.46-.74c.4.38.81.77,1.21,1.15Z"/><path class="cls-8" d="m110.11,123.24c.3-.71.59-1.42.89-2.14-.3.71-.59,1.42-.89,2.14Z"/><path class="cls-6" d="m296.95,67.15c.3.71.6,1.42.89,2.14-.3-.71-.6-1.42-.89-2.14Z"/><path class="cls-4" d="m147.61,112.46c-.12-.04-.35-.08-.35-.13,0-.14.08-.28.13-.42.12.04.35.08.35.13,0,.14-.08.28-.13.42Z"/><path class="cls-4" d="m53,110.94c-.11-.09-.23-.19-.34-.28.13-.07.27-.21.39-.2.12.01.23.17.35.26-.13.07-.26.14-.4.22Z"/><path class="cls-21" d="m18.33,84.51c-.57.14-1.14.28-1.71.43.39-.33.77-.66,1.16-.99.19.18.37.37.54.56Z"/><path class="cls-15" d="m384.82,163.23c-.43-.17-.86-.34-1.29-.5.1-.12.26-.36.29-.35.39.21.77.45,1.15.68,0,0-.15.18-.15.18Z"/><path class="cls-3" d="m362.92,95.2c.33-.33.67-.67,1-1-.33.33-.67.67-1,1Z"/><path class="cls-25" d="m189.85,155.27c-.19-.19-.37-.38-.56-.57.3.07.61.14.91.21-.11.12-.23.24-.35.35Z"/><path class="cls-10" d="m372.71,104.12c-.29.26-.57.52-.86.77.29-.26.57-.51.86-.77Z"/><path class="cls-10" d="m373.85,103.13c-.33.28-.66.57-.99.85.33-.28.66-.57.99-.85Z"/><path class="cls-10" d="m400.93,135.18c-.16.14-.31.27-.47.41l.43-.44.04.04Z"/><path class="cls-4" d="m133.96,177.91c.36.04.71.08,1.07.12-.36-.04-.71-.08-1.07-.12Z"/><path class="cls-4" d="m141.03,178.02c.32.05.64.13.94.24-.31-.08-.63-.16-.94-.24Z"/><path class="cls-21" d="m19.5,83.68c-.39.28-.78.55-1.17.83-.18-.19-.36-.37-.54-.56.36-.3.72-.61,1.08-.91.22.2.43.42.63.64Z"/><path class="cls-10" d="m400.89,135.14c.15-.14.3-.29.45-.43-.14.16-.27.31-.41.47,0,0-.04-.04-.04-.04Z"/><path class="cls-5" d="m30.76,78.99c.45-.22.89-.44,1.34-.66-.45.22-.89.44-1.34.66Z"/><path class="cls-16" d="m212,122.2c-.15.14-.3.27-.45.41.13-.15.27-.31.4-.46,0,0,.05.05.05.05Z"/><path class="cls-25" d="m339.22,172.13c-1.08-2.75-2.16-5.51-3.24-8.26-.38-2.57,2.93-5.63-1.04-7.71,2.33-9.99,4.65-19.99,6.98-29.98.42.48.84.96,1.25,1.44-.42,3.19-.84,6.37-1.26,9.56-.29,1.23-.78,2.46-.85,3.7-.38,7.31-.77,14.62-.93,21.94-.06,3.1.45,6.21.71,9.32-.54,0-1.09,0-1.63,0Z"/><path class="cls-4" d="m341.91,137.17c.42-3.19.84-6.38,1.26-9.56,4.21-6.98,8.42-13.96,12.64-20.94-.22,1.6-.08,3.36-.74,4.75-1.88,4-4.08,7.85-6.16,11.75-2.03,4.65-4.06,9.31-6.09,13.96h-.46s-.46.03-.46.03Z"/><path class="cls-23" d="m342.83,137.14c2.03-4.65,4.06-9.31,6.09-13.96-1.79,6.65-3.58,13.31-5.75,21.36-.16-3.44-.25-5.42-.34-7.4Z"/><path class="cls-17" d="m352.85,131.15c.32-1.36.63-2.71.94-4.07,0,0,.13.09.13.09,1,.67,2,1.33,2.99,2-.78,5.31-1.57,10.62-2.35,15.93-.25,0-.5.01-.75.02,0-2.93,0-5.86,0-8.79.7-1.92,2.72-4.08-.97-5.18Z"/><path class="cls-3" d="m354.67,148.79c-.3,2.69-.6,5.38-.89,8.06h-.37v-8.14c.42.03.84.05,1.26.08Z"/><path class="cls-3" d="m352.85,131.15c3.69,1.1,1.67,3.26.97,5.18-.32-1.72-.65-3.45-.97-5.18Z"/><path class="cls-19" d="m339.22,172.13c.54,0,1.09,0,1.63,0,.1,1.29.2,2.57.31,3.86-.64-1.29-1.29-2.58-1.93-3.87Z"/><path class="cls-3" d="m356.92,129.17c-1-.67-2-1.33-2.99-2,1.02.36,2.04.72,3.06,1.08,0,.31-.03.61-.06.92Z"/><path class="cls-2" d="m286.03,178.63c-5.4-6.35-4.34-13.36-2.09-20.49.43,0,.86,0,1.29,0-.08,3.59.04,7.2-.31,10.76-.32,3.31.93,5.26,3.97,6.26-.95,1.16-1.91,2.32-2.86,3.48Z"/><path class="cls-2" d="m306.9,156.08c-.35.66-.7,1.31-1.04,1.97.35-.66.7-1.31,1.04-1.97Z"/><path class="cls-17" d="m284.91,155.15c2.21-7.06,3.65-14.48,6.78-21.1,8.4-17.77,10.89-35.86,5.43-54.88-.22-.77-.11-1.65-.15-2.47,5.57,2.37,3.96,7.89,4.84,12.02,3.93,18.54-2.05,35.4-9.56,51.95-2.17,4.79-3.88,9.79-5.8,14.7-.52-.07-1.03-.14-1.54-.21Z"/><path class="cls-2" d="m284.91,155.15c.51.07,1.03.14,1.54.21-.33.66-.66,1.32-1,1.98-.49-.06-.97-.13-1.46-.19.3-.67.61-1.34.91-2Z"/><path class="cls-17" d="m284,157.15c.48.06.97.13,1.46.19-.06.27-.14.54-.22.8-.43,0-.86,0-1.29,0,0-.33.02-.67.05-1Z"/><path class="cls-8" d="m357.86,88.18c-.29.36-.57.73-.86,1.09.29-.36.57-.73.86-1.09Z"/><line class="cls-1" x1="357.86" y1="255.56" x2="346.13" y2="253.3"/></svg>