<?xml version="1.0" encoding="utf-8"?>
<!-- Generator: Adobe Illustrator 27.9.0, SVG Export Plug-In . SVG Version: 6.00 Build 0)  -->
<svg version="1.1" id="uuid-b0ca9725-4fd2-447e-9c19-b9ef5bd91ac0_copy"
	 xmlns="http://www.w3.org/2000/svg" xmlns:xlink="http://www.w3.org/1999/xlink" x="0px" y="0px" viewBox="0 0 2971.9 4351.8"
	 style="enable-background:new 0 0 2971.9 4351.8;" xml:space="preserve">
<style type="text/css">
	.st0{fill:none;}
	.st1{fill:#BCD197;}
</style>
<g>
	<path class="st0" d="M1571.6,583.4c0,31.5,8.3,52.4,14.3,52.9c5.9,0.6,3.6-25,3.6-25c3.6,3,7.7-2.4,8.9-9.5
		c1.2-7.1,4.2-35.7,5.9-49.4c1.8-13.7-4.8-28-11.3-29.7s-23.2,15.5-25,29.7C1566.3,566.8,1571.6,583.4,1571.6,583.4L1571.6,583.4z"
		/>
	<path class="st0" d="M1623.4,672.1L1623.4,672.1c1.8,7.1,7.2,2.4,11.9,3c4.8,0.6,8.9,12.5,14.9,11.3c5.9-1.2,3.6-13.1,3-20.8
		c-0.6-7.7,4.2-7.1,7.7-6c3.6,1.2,3.6-13.1,3.6-20.8s-7.1-1.8-7.1-8.9c0-7.1,10.7-38.1,16.7-60.7c5.9-22.6,2.4-27.4-6.5-29.1
		c-8.9-1.8-3.6,11.3-8.3,14.3c-4.8,3-6.5-5.9-11.9-7.7c-5.4-1.8-14.3,33.9-14.3,33.9c-2.4,39.9-10.7,37.5-11.9,45.2
		c-1.2,7.7,0,17.2,3,21.4C1626.9,651.2,1621.6,664.9,1623.4,672.1z"/>
	<path class="st1" d="M1679.9,385.3c13.1-1.8,23.8-50.6,30.3-61.3s5.3-23.8,1.8-38.7c0,0-3-20.2-11.9-24.4
		c-8.9-4.2-32.7-8.3-41.1,10.1c-4.1,9.1-14.2,61.9-8.3,83.9S1666.8,387.1,1679.9,385.3z"/>
	<path d="M2768.4,1066.2c21.5,1.7,22.3-7.7,30.9-14.6c8.6-6.9,44.6-12.9,49.8-12.9c12.3,0,37.8,6.9,37.8,6.9
		c20.6,13.7,78.1,19.7,84.1,13.7c6-6-17.2-19.7-35.2-22.3s-43.8-22.3-48.9-27.5c-5.1-5.1-31.8-8.6-41.2,0s-60.1,10.3-67.8,7.7
		c-7.7-2.6-26.6,8.6-30,20.6c-3.4,12-65.2,66.1-71.2,54.9s6-78.1,22.3-92.7c16.3-14.6,5.2-23.2,5.2-23.2s7.7-3.4,11.2-13.7
		c3.4-10.3,54.9-31.8,64.4-28.3c9.4,3.4,21.4-4.3,21.4-4.3c1.7,5.1,14.6,0.9,23.2,5.1c8.6,4.3,44.6,15.5,55.8,9.4
		c11.1-6,6.9-18.9-6.9-18.9s-47.2-17.2-58.4-23.2c-11.2-6-40.3,3.4-62.7,10.3c-22.3,6.9-76.4,23.2-84.1,37.8
		c-7.7,14.6-41.5,114.9-41.5,114.9c-20.7-3.2-44.5,55.7-81.1,89.1s-111.3,60.4-130.4,71.6c-19.1,11.1-85.9,11.1-124,11.1
		c-38.2,0-31.8-7.9-47.7-4.8c-15.9,3.2-20.7,19.1-101.8,27c-81.1,7.9-198.8,7.9-224.2-1.6c-25.4-9.5-19.1-20.7-19.1-20.7
		c-23.9,4.8-120.9-15.9-149.5-17.5c-28.6-1.6-76.3,0-76.3,0l0,0l-24.3-0.2c-0.6-2.8-1.1-4.6-1.1-4.6c-23.9-55.7-63.6-50.9-84.3-55.7
		c-14.6-3.4-45.7-28-62.8-42.3c10.7-3,19-6.9,18.3-13.4c-1.6-14.3-25.4-22.3-25.4-22.3s-4.9-29-32.3-44.6
		c-52.1-29.7-69.5-82.6-69.5-82.6l33.4-62l-54.1-62c0,0,36.6-23.9,38.2-41.4c1.6-17.5,3.2-31.8,3.2-31.8s27-14.3,39.8-22.3
		c8.3-5.2,29.9-15.7,44.1-22.4c0.4,4.1,0.7,7.3,1,9c1.3,9.4,10,8.7,12.1,15.4s6,8,19.4,8.7c13.4,0.7,16.6,15,19,18.9
		c2.5,3.9-9.9,20.8-3.9,24.7c5.9,4,9.9-4.9,15.8-7.9c5.9-3,6.9,2.5,10.9,4.9c4,2.5,8.4-4.4,19.3-5.9c10.9-1.5,46.9,21.2,53.8,22.7
		c6.9,1.5,8.4,1,8.9-2s31.6,12.4,38,15.3c6.4,3-1.5,8.4,4.4,9.4c5.9,1,32.1,10.9,40,9.9c7.9-1,23.7-4.9,33.1-16.8
		c9.4-11.9,8.4-39.5,9.9-45.4c1.5-5.9,19.8-18.8,34.6-25.2c14.8-6.4,24.7,0,25.7-10.4s-5.9-16.8-9.9-20.2c-4-3.5-15.8,1.5-16.8-2
		s25.2-32.6,24.7-38c-0.5-5.4-19.8-3.9-25.2-3.5c-5.4,0.5-19.8,32.6-22.2,39c-2.5,6.4-15.3,3.9-17.3,1c-2-3,13.8-21.2,16.8-28.7
		s-14.3-16.3-23.2-15.8c-8.9,0.5-19.1,15.6-19.1,15.6s5.1-12.4-5.2-15.4c-10.3-3.1-19.6,0-24.7,3.1c-5.1,3.1-18.5,18.5-26.8,17.5
		c-8.2-1-15.4-19.6-8.2-69c7.2-49.4,26.8-81.4,33-84.5c6.2-3.1,5.2,6.2,6.2,11.3s12.4,7.2,20.6,5.1c8.2-2.1,9.3,6.2,19.6,5.2
		s7.2-18.5,6.2-28.8c-1-10.3,7.2-21.6,10.3-17.5c3.1,4.1,0,37.1,8.2,43.3c8.2,6.2,21.6,0,26.8-4.1c5.2-4.1-2.1-17.5-4.1-28.8
		s0-25.8,3.1-29.9c3.1-4.1,20.6,1,24.7,7.2c4.1,6.2,12.4,43.3,24.7,43.3c12.4,0,27.8-4.1,23.7-13.4c-4.1-9.3-16.5-39.1-20.6-47.4
		c-4.1-8.2-15.4-56.7-29.9-65.9c-14.4-9.3-27.8-23.7-30.9-37.1c-3.1-13.4,23.7-54.6,16.5-65.9c-7.2-11.3-23.7-3.1-40.2-9.3
		s-26.8-27.8-26.8-27.8c0-8.7,14.8-26.1,6.7-46.1c-8-20.1-41.5-46.9-53.5-52.2c-12-5.4-20.3-111.6-210.8-141.4
		c-8.2-1.3-16.3-2.2-24.2-2.7c5.3-2.9,11.5-7.5,10.9-12.4c-1.1-8.4-23-19.6-33.1-16.4c-10.1,3.2-20.8,7.2-23.7,1.1
		c-2.9-6.1-13.3-6.5-13.3-6.5s8.3,4,10.1,9.7s8.3,7.2,16.5,5s18.3-0.4,19.8,3.2c1.3,3.3-6,11.9-13.7,15.7c-2,0.1-4,0.1-6,0.2
		c1.8-2.5,3.7-6.4,0.9-9.2c-4.3-4.3-15.8-6.1-18.3-4c-2.5,2.2,1.4,6.1-7.2,6.8c-8.6,0.7-18.3-2.2-18-7.2c0.4-5,4.3-7.6,9-6.8
		c0,0-8.6-3.6-12.9,5.4c-4.3,9,4.3,11.5,11.9,12.6c7.6,1.1,18.7-1.1,21.9-0.4c1.6,0.4,0.9,2.1-0.2,3.7
		c-39.8,4.1-76.1,16.8-108.2,34.4c0-3.4-0.6-8.3-4.4-9c-5.8-1.1-10.6-0.5-14.8,1.6s-15.4,14.3-23.9,10.6s-12.2-3.7-14.3-9.5
		s-9.5-7.4-23.3,0c0,0,16.2-5.2,19.5,2.4c3.3,7.6,10.9,11.5,14.6,14c3.6,2.4,9.4,3,9.4,3s-10.6,5.5-18.5,2.7
		c-7.9-2.7-14.3-7.6-18.8-2.1c-4.6,5.5-6.4,10.3-13.1,8.2c0,0,6.7,3.3,10,0c3.3-3.3,10-4.5,12.1-3c2.1,1.5,3.6,5.2,7.9,6.4
		c4.2,1.2,10,2.4,13.6,0.3c1.6-1,3.5-0.9,5.1-0.5c-17.7,13.2-33.7,27.6-47.8,42.4c-6.7-0.6-26-1.8-31.8,2.3
		c-7.2,5-17.5,14.3-20.4,19.1c-2.9,4.8-8.8,20.4-16.4,20.7c-7.7,0.3-14.8,4.5-17-4c-2.1-8.5,4.2-9.5,4.2-9.5s-7.7,0-7.2,10.3
		s6.1,11.9,11.9,13.2c4.9,1.1,18.6-1.3,25.8-7.1c-6.6,15.7-16.5,32.8-32.1,34.4c-23.2,2.3-38.4,3-41.8-11.6c0,0,0,18.6,11.6,24.4
		c9.6,4.8,32.1,7.2,49.4,1.2c-3.9,9.6-6.2,18-6.8,24.6l0,0c-0.8,8.9-1.9,18.7-2.8,29.3c-8.8,7.7-27.8,26-29,40
		c-1.6,18.3,7.2,45.3-6.4,55.7c-13.5,10.3-23.9,3.2-31,9.5c-7.2,6.4-4.8,27.8-4.8,27.8s9.5-24.6,22.3-21.5
		c12.7,3.2,30.2,0.8,34.2-13.5c2.2-7.9,9-16.5,14.6-22.7c3.5,31.1,12.4,65,32,99.9c-2.5,15.8-12.9,25.8-24.4,27.7
		c-14.3,2.4-27,19.1-27,19.1s11.1-11.9,30.2-10.3c19.1,1.6,33.4-14.3,33.4-14.3s-4.8,23.9-19.9,24.7c-15.1,0.8-20.7,9.6-20.7,20.7
		c0,11.1-11.9,20.7-25.4,19.9c-9.5-0.6-15.9,2.4-18.8,4.2c5.6-2.6,14.3,3.6,29.9,2.9c17.5-0.8,19.1-18.3,31-25.4
		c11.9-7.2,41.3,3.2,41.3,3.2c-24.6-0.8-32.6,23.9-32.6,33.4c0,9.5-7.9,10.3-16.7,11.9s-7.2,14.3-7.2,14.3s4.8-4.8,13.5-1.6
		s13.5,4.8,20.7,1.6c7.1-3.2,1.6-16.7,11.1-26.2c9.5-9.5,32.6,3.2,32.6,3.2c-7.9,1.6-21.5,14.3-15.1,25.4
		c6.4,11.1,2.4,18.3,2.4,18.3c11.1-5.6-2.4-18.3,9.5-27c11.9-8.8,30.2-2.4,35-8.8c3.2-4.2,2.5-17.4,1.7-25.9
		c12.6,7.6,25.4,13.7,38.3,18.5c-7.2,6.1-14.6,14-14.6,20.6c0,12.7-12.7,33.1-30.6,38.2c-17.8,5.1-45.9,15.3-61.1,5.1
		s-53.5-51-71.3-38.2c-17.8,12.7-45.9,51-45.9,51s-107-2.6-124.9,17.8c-17.8,20.4-40.8,45.9-66.2,53.5
		c-25.5,7.6-104.5,63.7-137.6,101.9s-79.3,72.8-100.7,87.7c-21.4,14.8-94.1,92.7-97.1,97.1c0,0,29,0.9,29.6,6.6
		c1.6,13.2-46.1,67.5-57.6,100.4c-11.5,32.9-75.7,163-88.9,181.1s-52.7,79-52.7,105.4c0,26.3-8.2,47.8-18.1,47.8
		c0,0,0.3,12.1,16.8,8.1s13.3,29,12.6,40s-10.2,17.2-10.2,17.2s4.7,10.2,3.1,22.7c-1.6,12.6,2.4,25.9-8.6,25.9s-14.1-9.4-18-5.5
		c-3.9,3.9,8.6,51.8,8.6,95.7s-8.5,232.9-22.8,275.9s-31,77.5-28.6,88.3c2.4,10.7,29.8,29.8,8.4,57.2
		c-21.5,27.4-57.2,118.1-114.5,93c0,0-8.4,7.2,1.2,17.9c9.5,10.7,52.5,16.7,65.6,21.5c0,0,23.9-17.9,44.1-20.3
		c20.3-2.4,47.7-11.9,47.7-26.2s4.8-38.2,11.9-37s-6,25.1,4.8,32.2c3.2,2.1,8.7,2.6,15,1.9c2,56.7,9.8,143.1,9.8,143.1v65.2
		c0,0,32.6,46.6,34.9,69.9s66.8,323.7,66.8,323.7s-19.9,42.9-22.3,80.1c-2.3,37.3,20,66.8,20,66.8s-73.4,55.6-73.4,93.5
		c0,13.4,31.2,22.3,31.2,22.3s-35.6,38.9-35.6,64.6s4.4,69,4.4,69c-25.6,30.3-133.4,248.5-135.8,267.1
		c-2.1,16.8,124.4-31-10.5,137.7c-19.3,24.1-27.6-11.5-43.3,4.8c-15.3,15.9-114.1,222.5-114.1,222.5l-85.6,80.9l-2.3,36.4
		l-39.6,39.6c12,5.4,25,10.2,38.9,14.6L0,4024.2c0,0,28.6,32.2,130,99l27.4-34.6l14.3,52.5l120.5,128.8h298.2
		c0,0,16.7-91.9-155.1-101.4c0,0-40.6-70.4-69.2-96.6l1-81.4c41.6,0,68.7-1.3,68.7-1.3s-16.3-67.5-18.6-74.5c-2.3-7,25.6-14,25.6-14
		l-4.7-81.5l32.6-79.2l58.2-193.3l46.6-62.9c0,0,153.7-430.8,167.6-444.7s30.3-53.6,39.6-81.5c9.3-27.9,4.7-83.8,2.3-109.4
		c-2.3-25.6,11.6-41.9,18.6-58.2c5.3-12.3,18.9-174.4,25.3-254c43.6,44.7,132.4,216.5,132.4,216.5c24,2,66.1,108.1,66.1,108.1
		c30-20,52-6,52-6s20-16,46-18s32,38,32,38s1.2-4.5,4.1-11.4c6.9,29.7,4.8,74.6,4.8,95.3c0,25.4,28.6,44.5,27,57.2
		s-27,105-44.5,197.2c-17.5,92.2-9.5,154.3,7.9,240.1c11.5,56.4,12,237.4,11,355.2c-12.8,9.3-28.5,22-46,42.4
		c-28.6,33.4-81.1,22.3-81.1,22.3l0,0c0,0-9.5,30.2-4.8,52.5c4.8,22.3-17.5,41.4-17.5,41.4s25.4,35,25.4,55.7s-57.2,23.9-58.8,35
		s-11.1,71.6,3.2,73.2c14.3,1.6,12.7,27,4.8,46.1c-7.9,19.1-46.1-4.8-46.1-4.8l-50.9-4.8l-46.1,38.2c0,0,11.1,20.7,1.6,38.2
		s-82.7,12.7-82.7,12.7s1.6,22.3-22.3,46.1c-23.9,23.9-89.1,3.2-89.1,3.2c-22.3,28.6-57.2,20.7-57.2,20.7
		c21.3,10.6,12.7,25.5,47.7,25.5s124.1-27,152.7-49.3c28.6-22.3,66.8,12.7,120.9,6.4c54.1-6.4,79.5-23.9,103.4-68.4
		c13.6-25.3,28.1-26,40.5-22.1c-5.1,18.1-18.3,67.3-18.3,98c0,0,78.7,16.7,172.9-1.2l3.6-26.2c0,0,125.2,34.6,165.8,35.8
		c40.6,1.2,252.9,9.5,359-65.6c0,0-47.7-81.1-76.3-88.3c-28.6-7.2-102.6,3.6-131.2,11.9c-28.6,8.4-140.8-14.3-164.6-51.3
		c0,0,20.3-34.6,17.9-41.8c-2.4-7.2-27.4-54.9-33.4-65.6s-20.3-22.7-20.3-22.7s5.4-10.2,5-18.3c21.8-10.7,43.4-21.3,51.5-32.2
		c17.5-23.9,3.2-27-4.8-54.1s6.4-57.2,3.2-81.1s-35-22.3-35-22.3s-22-22-49.4-32.8c19.1-135.5,56.6-370.4,59-382.3
		c3.2-15.9,15.9-33.4,15.9-33.4c-11.1-36.6,13.8-232.1,21.4-262.7c7.7-30.6,41.6-67.1,41.6-67.1c14.4-8.5,26.3-55.2,23.8-96.8
		c-2.6-41.6-29.7-70.5-39.9-79c-7.8-6.5-30.1-38.9-40-53.7c31.5-7.6,97.1,14.1,97.1,14.1c-19.7-8.7-60.4-38.4-74.1-63.1
		c-13.7-24.7-8.2-90.6-30.2-120.7s-71.3-101.5-71.3-101.5s0-41.2-24.7-71.3c-24.7-30.2-90.5-183.8-90.5-183.8s0-49.4-38.4-85.1
		c-38.4-35.7-76.9-106.2-76.9-106.2c1.5-12.1,3.8-28.6,5.7-42.5c1.8,2.5,3.6,5.1,5.5,7.9c0,0,48.9-7.2,54.9,31
		c0,0,39.4,27.4,42.9,60.8c0,0,15.5,22.7,47.7,28.6c0,0-21.5-25.1-22.7-46.5s-27.4-44.1-27.4-44.1s7.2-4.8,6-19.1
		c-1.2-14.3-11.9-20.3-11.9-20.3s7.2-44.1-13.1-78.7c-17-28.9-44.5-290.9-42.8-456.7c2.5-12.7,20.5-25.4,44.1-36.9
		c19.1,33.8,35.1,68.8,45.7,93.8c-0.4,24.8-3.6,74.6,10.5,61.1c17.1-16.4,16.3,13.3,19.2,26.4c2.8,13.2,31.9,25.4,40.1,14.7
		c8.2-10.7,23.4-14.1,42.6-9.8s24.4,16,52.6,14.6s59,3.5,95.7,11.6c36.7,8.2,71.9,10.2,71.9,10.2s-10.6-4.3-7.3-10.3
		s102.4,16,118.9,19.7c16.5,3.7-3.1,13.8-3.1,13.8c44.4,12.8,95,10.5,147.1,23.1c52.1,12.5,126.6,32.9,126.6,32.9
		c9.6-17.1,87.2-12.4,96.3-5.9c9.1,6.4,19.9,13.2,49.5,22.4c29.6,9.2,26.8-1.9,44.7,4.7c17.9,6.6,67.3,17.6,99.1,8.9
		c31.8-8.8,108.2-35.7,126-52.9c17.9-17.1,43.1-15.9,55.4-15.8c12.3,0.1,38.9,6.9,42.2,12c3.3,5.1,15.2,6.9,24.4,8.9
		c9.2,2,20.9,23.6,19.3,31.1c-1.7,7.5,9.4,21.1,7.7,36.5c-1.7,15.5,10.2,41,17.7,39.1c7.4-1.9-0.7-20.4,1.7-31.3
		c2.4-10.9,7.8-34.8,1.3-41.5c-6.4-6.7-25.3-39.5-28-47.1c-2.7-7.6-9.7-11.8-27.9-16.8c-18.2-4.9-50.4-22.6-47.7-30.8
		s60.1-17.6,71.4-13.3c11.4,4.3,19.1,5.1,35,0.8c15.9-4.4,36.8,12.6,36.8,12.6c2.4,12.8,31.2,27.1,31.2,27.1
		c8.8,19.6,28,36.1,38.2,37.5c10.2,1.4,11.8-9.7,11.8-9.7c-13.9-12.8-30.9-50.8-30.9-50.8s-3.7-22.8-23.7-23.7
		c-20-0.9-56.4-20.4-61.1-23.2c-4.7-2.8-16.9-7.3-33.1-1.2c-16.3,6-80.4,2.5-79.9-7.9c0.6-10.4,69-45.3,69-45.3
		c20.6,6.3,23.4-2.7,33.3-7.5c9.9-4.8,46.3-2.9,51.4-1.8c12,2.7,35.4,14.9,35.4,14.9c17.1,17.9,71.9,36.2,79.1,31.7
		c7.2-4.6-12.5-23-29.5-29.4s-37.9-31.3-41.8-37.4c-3.9-6.1-29.1-15.3-40.2-8.9c-11.1,6.3-60.9-3-67.9-7.2
		c-7-4.2-27.8,2.6-33.8,13.6c-6,11-78,50.4-81.4,38.2c-3.5-12.2,22.8-74.9,41.9-85.6c19.1-10.7,10.1-21.5,10.1-21.5s8.3-1.7,13.9-11
		c5.6-9.3,60.5-19.1,69-13.7s21.9,0.5,21.9,0.5c0.6,5.4,14.1,4,21.5,10.1c7.4,6,40.2,24.8,52.4,21.3c12.2-3.4,10.8-16.9-2.6-19.9
		c-13.4-3-42.4-27-51.9-35.3c-9.6-8.3-40.1-5.4-63.4-3.5s-79.6,6-90.3,18.6c-10.7,12.6-65.4,103.1-65.4,103.1
		c-19.5-7.6-55.5,44.7-98.5,69.3c-3.3,1.9-6.9,3.7-10.6,5.5v-45.1c0,0,4.7-16.5,3.5-29.5c-1.2-13,3.5-28.3,3.5-28.3
		s5.9-10.6,18.9-17.7c13-7.1,20.1-29.5,11.8-29.5c-8.3,0-50.8,30.7-54.3,40.1c-3.5,9.4-7.1,43.7-7.1,43.7s-13,4.7-15.3,36.6
		c-1.6,21.1-11.4,39-17.9,48.8c-32.4,8.2-63.4,13.2-75.4,17c-21.1,6.7-86.2-7.8-123.5-16c-37.3-8.3-29.3-14.7-45.5-15
		c-16.2-0.3-24.3,14.1-105.2,4.3c-80.9-9.8-195.8-35.4-218.6-50.2c-22.8-14.8-14.1-24.3-14.1-24.3c-24.3-0.5-114.5-41.8-142.1-49.5
		c-27.6-7.8-74.5-16.6-74.5-16.6l0,0l-23.7-5.5c0-2.9-0.1-4.7-0.1-4.7c-9.8-52.1-41.5-61.6-62.1-69.3c10.2-2.7,16.5-4.3,16.5-4.3
		c-22.2-25.1-46.4-61.9-65.9-94c7.6-12.6,19.6-29.3,27.8-25.2c12.7,6.4,63.6,57.2,63.6,57.2s23.9-97,31.8-127.2
		c3.6-13.6,21-31.4,40.4-47.6c47.8,34.7,97.5,98.8,125.3,137.6c2.1,19.3,1.2,55.7,2.7,63.3c1.9,9.4,8.5,15.1,21.6-4.7
		c13.2-19.7,18.8,9.4,24.4,21.6c5.6,12.2-6.8,28.5-6,43.2c0.3,6,8.6,23.6,21.7,25.1c13.8,1.5,18.5-15.4,22.4-26.9
		c5.2-15.2,2.5-23.2,8.1-35.4c5.6-12.2,15.9-19.1,35.6-19.1s27.3,10.3,54.5,2.8s58.3-9.4,95.9-9.4c37.6,0,72.4-5.6,72.4-5.6
		s-11.3-1.9-9.4-8.5c1.9-6.6,103.4-6.6,120.4-6.6s0,14.1,0,14.1c46.1,2.8,95-10.3,148.6-9.4c53.6,0.9,130.7,4.7,130.7,4.7
		c5.6-18.8,82.4-31,92.7-26.7s22.3,8.6,53.2,11.2c30.9,2.6,25.8-7.7,44.6-5.1c18.9,2.6,69.5,2.6,98.7-12.9
		c29.2-15.4,97.8-58.4,111.6-78.9c13.7-20.6,38.6-24.9,50.6-27.5c12-2.6,39.5-1.7,43.8,2.6s16.3,3.4,25.8,3.4
		c9.4,0,25.6,18.4,25.6,26.2s13.7,18.5,15.4,34c1.7,15.5,18.9,37.8,25.8,34.3c6.9-3.4-5.1-19.8-5.1-30.9c0-11.2,0-35.7-7.7-40.8
		c-7.7-5.2-33.3-33-37.6-39.9c-4.3-6.9-12-9.4-30.9-10.3c-18.9-0.9-54.1-11.2-53.2-19.7c0.9-8.6,54.8-30.2,66.8-28.5
		c12,1.7,19.7,0.9,34.3-6.9c14.6-7.7,38.6,4.3,38.6,4.3c5.2,12,36.3,19.7,36.3,19.7c12.9,17.2,35.2,29.2,45.5,28.3
		c10.3-0.8,9.4-12,9.4-12c-16.3-9.4-41.2-42.9-41.2-42.9s-8.6-21.5-28.3-18s-59.5-7.7-64.6-9.4s-18-3.4-32.6,6
		c-14.6,9.4-78,19.9-79.7,9.6C2709.2,1115.1,2768.4,1066.2,2768.4,1066.2z M1659,271.1c8.3-18.4,32.1-14.3,41.1-10.1
		c8.9,4.2,11.9,24.4,11.9,24.4c3.6,14.9,4.8,28-1.8,38.7s-17.2,59.5-30.3,61.3c-13.1,1.8-23.2-8.3-29.1-30.3
		S1654.9,280.2,1659,271.1z M1621,625.7c1.2-7.7,9.5-5.4,11.9-45.2c0,0,8.9-35.7,14.3-33.9c5.4,1.8,7.1,10.7,11.9,7.7
		c4.8-3-0.6-16.1,8.3-14.3c8.9,1.8,12.5,6.5,6.5,29.1c-6,22.6-16.7,53.5-16.7,60.7c0,7.1,7.1,1.2,7.1,8.9s0,22-3.6,20.8
		c-3.6-1.2-8.3-1.8-7.7,6c0.6,7.7,3,19.6-3,20.8c-5.9,1.2-10.1-10.7-14.9-11.3c-4.8-0.6-10.1,4.2-11.9-3l0,0
		c-1.8-7.1,3.6-20.8,0.6-25C1621,642.9,1619.8,633.4,1621,625.7z M1568.1,552.5c1.8-14.3,18.4-31.5,25-29.7s13.1,16.1,11.3,29.7
		c-1.8,13.7-4.8,42.2-5.9,49.4c-1.2,7.1-5.4,12.5-8.9,9.5c0,0,2.4,25.6-3.6,25c-5.9-0.6-14.3-21.4-14.3-52.9h0
		C1571.6,583.4,1566.3,566.8,1568.1,552.5z M358.4,2156.6c-8.2,4.1-27.8,23.7-30.9,5.2c-3.1-18.6,24.8-46.4,32-33
		C359.4,2128.8,366.6,2152.5,358.4,2156.6z M407.8,3961.8c-4.3,4.3-28.7,5.7-28.7,5.7s14.3-31.5,22.9-28.7l0,0
		C402.1,3938.8,412.1,3957.5,407.8,3961.8z M488.1,2997.1c-5.7,12.9-25.8-4.3-25.8-14.3s25.8-27.2,25.8-27.2v0
		C503.9,2951.3,493.8,2984.2,488.1,2997.1z M1246.6,3107.6c-17.4,15.5-32.9-29.1-38.8-50.4c-5.8-21.3,32.9-31,32.9-31v0
		C1250.5,3043.6,1264.1,3092.1,1246.6,3107.6z M1254.4,3727.6c0,21.3-21.3,23.2-36.8,17.4s15.5-155,15.5-155
		C1246.6,3580.4,1254.4,3706.3,1254.4,3727.6z M1215.6,3144.4L1215.6,3144.4c0,0,29.1,15.5,13.6,29.1c-15.5,13.6-25.2,1.9-27.1-15.5
		S1215.6,3144.4,1215.6,3144.4z M1928.4,1671.9L1928.4,1671.9c0,0,89.2,3.5,91.5,16.2c2.3,12.7-30.1,22-51,19.7
		c-20.8-2.3-92.7-15.1-93.8-20.9C1873.9,1681.1,1884.4,1669.6,1928.4,1671.9z M1760.4,1662.6c1.2-6.9,26.6-5.8,26.6-5.8l0,0
		c0,0,38.2,2.3,39.4,8.1c1.2,5.8-9.3,15.1-29,12.7C1777.8,1675.4,1759.2,1669.6,1760.4,1662.6z M414.1,1373.9
		c1-15.4,29.8-37.1,29.9-37.1c0,0,0,0,0,0v0c0,0,0,0,0,0c-2.1,7.2-9.3,38.1-15.5,51.5c-6.2,13.4-1,18.6-4.1,40.2
		c-3.1,21.7-14.4-3.1-16.5-17.5C405.8,1396.6,413.1,1389.4,414.1,1373.9z M1156.7,2002c3,6,19.1,22.1,0,23.3
		c-19.2,1.2-31.7-13.8-41.3-16.8c-9.6-3-11.4-14.4-7.2-20.9h0c0,0,20.3,6,27.5,5.4C1143,1992.4,1153.7,1996,1156.7,2002z
		 M1142.6,1923.3c1.6,18.9,11.1,45.8-4.7,45.8s-23.7-14.2-28.4-28.4c-4.7-14.2,3.2-63.2,11.1-61.6v0
		C1120.5,1879.1,1141,1904.3,1142.6,1923.3z M1443.3,723.7c-16.7,6-50.1,21.5-45.3,3.6v0c0,0,25.1-40.6,34.6-39.4
		c9.5,1.2,27.4-4.8,29.8,3.6S1459.9,717.8,1443.3,723.7z M1542.9,1342.5c-5.9-4.2-5.2-24-5.2-24l0,0c0,0,9.4,16,15.3,22.9
		C1553,1341.5,1548.8,1346.7,1542.9,1342.5z M1603.8,1391c-2.9,19.2-8.2,23.3-11.7,17.2c-4.3-7.4,6.8-27.7-14.5-50.3l0,0
		c0,0,19.9,10,23.4,9c3.5-1,7.1-3.5,10.9-3.5c3.8,0,4.8,4.9,14.9,3.8C1626.9,1367.2,1606.7,1372.4,1603.8,1391z M1746.5,1304.6
		c-19.7,2.3-38.2-2.3-32.4-24.3c0,0,19.7-9.3,29-4.6C1752.3,1280.3,1766.2,1302.3,1746.5,1304.6z M1792.8,1301.2
		c-8.1-7-1.2-20.9-1.2-20.9h0c9.3-8.1,49.8,12.7,51,19.7C1843.8,1307,1800.9,1308.1,1792.8,1301.2z"/>
	<path class="st1" d="M1432.5,687.9c-9.5-1.2-34.6,39.4-34.6,39.4v0c-4.8,17.9,28.6,2.4,45.3-3.6c16.7-6,21.5-23.9,19.1-32.2
		S1442.1,689.1,1432.5,687.9z"/>
	<path class="st1" d="M1612,1363.3c-3.8,0-7.5,2.5-10.9,3.5c-3.5,1-23.4-9-23.4-9l0,0c21.3,22.6,10.2,43,14.5,50.3
		c3.5,6,8.7,2,11.7-17.2c2.8-18.5,23.1-23.8,23.1-23.8C1616.8,1368.2,1615.8,1363.3,1612,1363.3z"/>
	<path class="st1" d="M1537.7,1318.5L1537.7,1318.5c0,0-0.7,19.8,5.2,24c5.9,4.2,10.1-1,10.1-1
		C1547.1,1334.5,1537.7,1318.5,1537.7,1318.5z"/>
	<path class="st1" d="M1968.9,1707.8c20.9,2.3,53.3-7,51-19.7c-2.3-12.7-91.5-16.2-91.5-16.2h0c-44-2.3-54.5,9.3-53.3,15.1
		C1876.2,1692.7,1948.1,1705.5,1968.9,1707.8z"/>
	<path class="st1" d="M1797.5,1677.7c19.7,2.3,30.1-6.9,29-12.7c-1.2-5.8-39.4-8.1-39.4-8.1l0,0c0,0-25.5-1.2-26.6,5.8
		C1759.2,1669.6,1777.8,1675.4,1797.5,1677.7z"/>
	<path class="st1" d="M1743,1275.7c-9.3-4.6-29,4.6-29,4.6c-5.8,22,12.8,26.6,32.4,24.3C1766.2,1302.3,1752.3,1280.3,1743,1275.7z"
		/>
	<path class="st1" d="M1791.7,1280.3L1791.7,1280.3c0,0-7,13.9,1.2,20.9c8.1,6.9,51,5.8,49.8-1.2
		C1841.5,1293.1,1800.9,1272.2,1791.7,1280.3z"/>
	<path class="st1" d="M1233.1,3590.1c0,0-31,149.2-15.5,155s36.8,3.9,36.8-17.4S1246.6,3580.4,1233.1,3590.1z"/>
	<path class="st1" d="M1240.8,3026.2L1240.8,3026.2c0,0-38.8,9.7-32.9,31c5.8,21.3,21.3,65.9,38.8,50.4
		C1264.1,3092.1,1250.5,3043.6,1240.8,3026.2z"/>
	<path class="st1" d="M1229.2,3173.4c15.5-13.6-13.6-29.1-13.6-29.1l0,0c0,0-15.5-3.9-13.6,13.6S1213.7,3187,1229.2,3173.4z"/>
	<path class="st1" d="M488.1,2955.6L488.1,2955.6c0,0-25.8,17.2-25.8,27.2s20.1,27.2,25.8,14.3S503.9,2951.3,488.1,2955.6z"/>
	<path class="st1" d="M402.1,3938.8c-8.6-2.9-22.9,28.7-22.9,28.7s24.4-1.4,28.7-5.7S402.1,3938.8,402.1,3938.8L402.1,3938.8z"/>
	<path class="st1" d="M1120.5,1879c-7.9-1.6-15.8,47.4-11.1,61.6c4.7,14.2,12.6,28.4,28.4,28.4s6.3-26.9,4.7-45.8
		C1141,1904.3,1120.5,1879.1,1120.5,1879L1120.5,1879z"/>
	<path class="st1" d="M1135.8,1993c-7.2,0.6-27.5-5.4-27.5-5.4h0c-4.2,6.6-2.4,18,7.2,20.9c9.6,3,22.1,18,41.3,16.8
		c19.1-1.2,3-17.4,0-23.3C1153.7,1996,1143,1992.4,1135.8,1993z"/>
	<path class="st1" d="M327.5,2161.8c3.1,18.6,22.7-1,30.9-5.2s1-27.8,1-27.8C352.2,2115.4,324.4,2143.2,327.5,2161.8z"/>
	<polygon class="st1" points="444,1336.8 444,1336.8 444,1336.8 	"/>
	<path class="st1" d="M424.4,1428.6c3.1-21.7-2.1-26.8,4.1-40.2c6.2-13.4,13.4-44.3,15.5-51.5c-0.1,0.1-28.9,21.7-29.9,37.1
		c-1,15.5-8.2,22.7-6.2,37.1C410,1425.5,421.3,1450.2,424.4,1428.6z"/>
	<path d="M1115.1,551c-0.7,0.3-1.3,0.7-1.9,1.3C1113.2,552.4,1113.9,551.8,1115.1,551z"/>
</g>
<path class="st1" d="M1397.9,727.3c-4.8,17.9,28.6,2.4,45.3-3.6c16.7-6,21.5-23.9,19.1-32.2s-20.3-2.4-29.8-3.6
	C1423,686.7,1397.9,727.3,1397.9,727.3L1397.9,727.3z"/>
<path class="st1" d="M1577.6,1357.9c21.3,22.6,10.2,42.9,14.5,50.3c3.5,6,8.7,2,11.7-17.2c2.8-18.5,23.1-23.8,23.1-23.8
	c-10.1,1-11.1-3.8-14.9-3.8s-7.5,2.5-10.9,3.5S1577.6,1357.9,1577.6,1357.9L1577.6,1357.9z"/>
<path class="st1" d="M1537.7,1318.5c0,0-0.7,19.8,5.2,24c5.9,4.2,10.1-1,10.1-1C1547.1,1334.5,1537.7,1318.5,1537.7,1318.5
	L1537.7,1318.5z"/>
<path class="st1" d="M1928.4,1671.9c-44-2.3-54.5,9.3-53.3,15.1c1.2,5.8,73,18.5,93.8,20.8c20.8,2.3,53.3-6.9,51-19.7
	C2017.6,1675.4,1928.4,1671.9,1928.4,1671.9L1928.4,1671.9z"/>
<path class="st1" d="M1787,1656.8c0,0-25.5-1.2-26.6,5.8c-1.2,7,17.4,12.7,37.1,15.1c19.7,2.3,30.1-6.9,29-12.7
	S1787,1656.8,1787,1656.8L1787,1656.8z"/>
<path class="st1" d="M1746.5,1304.6c19.7-2.3,5.8-24.3-3.5-29s-29,4.6-29,4.6C1708.3,1302.3,1726.8,1307,1746.5,1304.6z"/>
<path class="st1" d="M1791.7,1280.3c9.3-8.1,49.8,12.7,51,19.7c1.2,7-41.7,8.1-49.8,1.2S1791.7,1280.3,1791.7,1280.3L1791.7,1280.3z
	"/>
<path class="st1" d="M1254.4,3727.6c0,21.3-21.3,23.2-36.8,17.4s15.5-155,15.5-155C1246.6,3580.4,1254.4,3706.3,1254.4,3727.6z"/>
<path class="st1" d="M1240.8,3026.2c9.7,17.4,23.2,65.9,5.8,81.4c-17.4,15.5-32.9-29.1-38.8-50.4
	C1202.1,3035.9,1240.8,3026.2,1240.8,3026.2L1240.8,3026.2z"/>
<path class="st1" d="M1215.6,3144.4c0,0-15.5-3.9-13.6,13.6c1.9,17.4,11.6,29.1,27.1,15.5
	C1244.7,3159.9,1215.6,3144.4,1215.6,3144.4L1215.6,3144.4z"/>
<path class="st1" d="M488.1,2955.6c15.8-4.3,5.7,28.7,0,41.6s-25.8-4.3-25.8-14.3S488.1,2955.6,488.1,2955.6L488.1,2955.6z"/>
<path class="st1" d="M402.1,3938.8c-8.6-2.9-22.9,28.7-22.9,28.7s24.4-1.4,28.7-5.7S402.1,3938.8,402.1,3938.8L402.1,3938.8z"/>
<path class="st1" d="M1120.5,1879c-7.9-1.6-15.8,47.4-11.1,61.6s12.6,28.4,28.4,28.4s6.3-26.9,4.7-45.8S1120.5,1879.1,1120.5,1879
	L1120.5,1879z"/>
<path class="st1" d="M1108.3,1987.6c-4.2,6.6-2.4,18,7.2,20.9c9.6,3,22.2,18,41.3,16.8s3-17.4,0-23.3c-3-6-13.8-9.6-20.9-9
	C1128.6,1993.6,1108.3,1987.6,1108.3,1987.6L1108.3,1987.6z"/>
<path class="st1" d="M327.5,2161.8c3.1,18.6,22.7-1,30.9-5.2s1-27.8,1-27.8C352.2,2115.4,324.4,2143.2,327.5,2161.8z"/>
<path class="st1" d="M444,1336.8c-2.1,7.2-9.3,38.2-15.5,51.6c-6.2,13.4-1,18.6-4.1,40.2c-3.1,21.7-14.4-3.1-16.5-17.5
	c-2.1-14.4,5.2-21.7,6.2-37.1C415.1,1358.5,444,1336.8,444,1336.8L444,1336.8z"/>
</svg>
